<svg width="512" height="512" xmlns="http://www.w3.org/2000/svg"><circle style="fill:#dee2e6;fill-opacity:1;stroke:#000;stroke-width:1.23158" cx="256" cy="256" r="206.884"/><circle cx="256" cy="256" r="255" fill="#f9a825"/><circle cx="237.519" cy="273.234" r="250" fill="#283593" transform="rotate(-4)"/><circle cx="-360.661" cy="-31.554" r="195" fill="#dee2e6" transform="rotate(-140)"/><circle cx="-351.437" cy="-86.972" r="190" fill="#1e88e5" transform="rotate(-148.9)"/><g style="font-size:33.1897px;line-height:1.25;letter-spacing:0;word-spacing:0;white-space:pre;fill:#dee2e6"><path d="m462.976 259.918.164-3.06 23.63 10.14-.162 3.013-24.577 7.561.164-3.06 20.676-6.117.01-.188zm9.355 1.634-.66 12.334-2.59-.138.66-12.335zm12.592 25.741-23.94-3.091.375-2.9 23.939 3.092zm-24.675 2.715 23.651 4.821-1.629 7.992q-.565 2.772-1.874 4.357-1.298 1.588-3.112 2.108t-3.905.095q-2.09-.427-3.532-1.61-1.443-1.185-2.007-3.14-.552-1.953.008-4.702l1.319-6.467 2.586.527-1.3 6.375q-.385 1.894-.066 3.162.316 1.28 1.227 2.006.92.741 2.34 1.03 1.42.29 2.59-.024 1.172-.315 1.987-1.364.827-1.046 1.217-2.963l1.027-5.035-21.111-4.304zm8.355 13.299-11.811 3.655.678-3.326 11.792-3.563zm-2.988 31.024.896-2.782q1.28.14 2.387-.185 1.104-.313 2.003-.99.906-.661 1.56-1.614.654-.954 1.022-2.098.672-2.087.163-4.12-.513-2.023-2.245-3.682-1.735-1.649-4.72-2.61-2.983-.96-5.354-.634-2.375.338-3.971 1.68-1.6 1.355-2.272 3.442-.369 1.145-.394 2.3-.025 1.156.314 2.218.346 1.078 1.06 1.976.721.913 1.83 1.543l-.895 2.782q-1.66-.88-2.784-2.159-1.124-1.278-1.703-2.826-.567-1.545-.577-3.245-.014-1.688.546-3.427.946-2.94 3.12-4.766 2.172-1.826 5.242-2.286 3.07-.46 6.706.71 3.635 1.17 5.86 3.335 2.225 2.165 2.924 4.916.7 2.751-.247 5.69-.56 1.74-1.556 3.103-1 1.374-2.373 2.294-1.362.924-3.02 1.306-1.648.386-3.522.13zm-17.626-.721 22.022 9.883-3.34 7.441q-1.157 2.58-2.782 3.841-1.614 1.265-3.498 1.376-1.885.11-3.83-.763-1.947-.874-3.095-2.345-1.149-1.471-1.27-3.503-.112-2.026 1.037-4.585l2.702-6.022 2.409 1.081-2.664 5.936q-.791 1.763-.758 3.07.029 1.318.758 2.226.735.924 2.058 1.518 1.322.593 2.534.543 1.21-.05 2.236-.896 1.036-.84 1.837-2.625l2.104-4.688-19.657-8.821zm5.24 14.806-12.324.98 1.39-3.097 12.286-.894zm-14.681 5.296 1.543-2.648 16.392 19.812-1.52 2.607-25.317-4.497 1.543-2.647 21.187 3.999.095-.163zm7.576 5.725-6.22 10.672-2.24-1.306 6.22-10.672zm-18.698 12.62 19.52 14.198-8.513 11.704-2.097-1.525 6.794-9.34-6.596-4.798-6.156 8.464-2.097-1.525 6.156-8.464-8.73-6.35zm5.324 28.939 1.937 1.723-12.031 13.527-1.938-1.723 5.045-5.672-16.099-14.318 1.943-2.184 16.098 14.318zm-43.871 13.583 5.73-4.76 15.424 18.567-5.984 4.97q-2.701 2.245-5.55 2.727-2.84.49-5.59-.735-2.741-1.216-5.136-4.099-2.41-2.9-3.116-5.854-.7-2.943.343-5.71 1.05-2.756 3.879-5.106zm5.138-.898-3.336 2.772q-2.303 1.913-3.079 4.059-.776 2.146-.156 4.405.62 2.258 2.503 4.525 1.867 2.248 3.95 3.26 2.09 1.023 4.272.68 2.19-.333 4.366-2.14l3.59-2.983zM376.068 424.6l2.544-1.707 6.096 24.98-2.505 1.682-20.813-15.1 2.544-1.708 17.314 12.85.157-.106zm4.316 8.46-10.255 6.885-1.445-2.153 10.255-6.885zm-8.469 19.96 1.242 2.277-15.895 8.666-1.241-2.276 6.664-3.634-10.314-18.916 2.567-1.4 10.313 18.917zm-28.708-9.216 2.823-1.193 1.232 25.684-2.779 1.175-17.56-18.784 2.822-1.193 14.554 15.909.174-.074zm2.628 9.125-11.377 4.809-1.01-2.389 11.378-4.808zm-22.52-1.083 6.964 23.111-8.08 2.435q-2.415.728-4.236.365-1.816-.35-3.005-1.519-1.186-1.157-1.696-2.85-.449-1.49-.211-2.62.227-1.126.914-1.95.677-.818 1.588-1.388l-.068-.226q-1.081.252-2.357-.102-1.276-.354-2.38-1.4-1.102-1.047-1.653-2.875-.524-1.738-.152-3.364t1.83-2.952q1.46-1.326 4.191-2.149zm-2.05 3.326-5.553 1.673q-2.742.826-3.574 2.234-.839 1.422-.38 2.945.354 1.174 1.251 1.987.9.824 2.187 1.089 1.29.276 2.802-.18l5.687-1.713zm3.155 10.472-5.191 1.564q-1.264.381-2.13 1.184-.878.806-1.204 1.889-.337 1.086.03 2.305.46 1.523 1.84 2.265 1.383.752 3.686.058l5.28-1.591zm-22.842-7.664 3.012-.566-4.258 25.36-2.965.556-13.164-22.089 3.011-.565 10.838 18.64.186-.035zm.628 9.476-12.14 2.278-.478-2.548 12.14-2.279zm-33.483 13.246q.355 1.768 1.938 2.634 1.583.866 3.768.69 1.598-.128 2.755-.741 1.145-.612 1.742-1.57.585-.958.492-2.11-.077-.963-.59-1.62-.526-.643-1.29-1.043-.765-.388-1.588-.617-.821-.218-1.505-.34l-2.496-.462q-.96-.17-2.146-.513-1.198-.341-2.316-1.008-1.129-.654-1.915-1.761-.787-1.108-.923-2.8-.157-1.95.739-3.606.883-1.656 2.759-2.74 1.864-1.084 4.636-1.307 2.585-.208 4.543.474 1.947.683 3.148 2.088 1.19 1.406 1.489 3.368l-3.008.242q-.227-1.353-1.098-2.182-.881-.816-2.15-1.151-1.279-.323-2.712-.208-1.668.134-2.952.781-1.284.66-1.98 1.697-.697 1.049-.59 2.365.095 1.198.826 1.896.73.698 1.86 1.08 1.13.382 2.428.633l3.028.608q2.885.584 4.65 1.955 1.766 1.372 1.962 3.804.162 2.02-.81 3.612-.982 1.604-2.771 2.588-1.8.996-4.103 1.18-2.326.188-4.202-.5-1.876-.678-3.048-2.026-1.184-1.347-1.39-3.164zm-9.419-17.727-.424 24.134-14.566-.256.046-2.592 11.643.204.143-8.155-10.889-.19.046-2.593 10.889.19.144-8.2-11.832-.209.046-2.592zm-40.964 10.13.38-2.565 10.446 1.543-.379 2.565zm-32.939-4.892q.034 1.252.375 2.338.327 1.093.971 1.985.634.89 1.583 1.54.95.652 2.204 1.025 2.056.611 4.055.05 2-.561 3.608-2.333 1.61-1.772 2.503-4.777.894-3.005.503-5.371-.39-2.367-1.792-3.94-1.401-1.572-3.548-2.21-1.988-.591-3.754-.194-1.78.405-3.091 1.712-1.326 1.315-1.957 3.439l-.805-.436 6.959 2.07-.74 2.484-8.811-2.62.739-2.485q.85-2.859 2.698-4.608 1.837-1.753 4.319-2.282 2.466-.52 5.223.299 3.072.914 4.97 3.052 1.886 2.135 2.392 5.187.495 3.05-.594 6.71-.816 2.745-2.202 4.718-1.4 1.981-3.217 3.126-1.816 1.144-3.914 1.418t-4.323-.388q-1.83-.544-3.247-1.568-1.432-1.016-2.376-2.391-.958-1.367-1.38-3.005-.427-1.627-.243-3.405zm-2.944-18.69-9.227 22.305-2.701-1.118 8.236-19.908-10.368-4.29.99-2.395zm-40.007-5.976q1.82-3.357 4.357-5.146 2.538-1.788 5.37-1.969 2.833-.18 5.548 1.29 2.715 1.472 4.11 3.944 1.395 2.472 1.282 5.574-.112 3.103-1.932 6.46-1.82 3.358-4.357 5.146-2.538 1.789-5.37 1.97-2.833.18-5.548-1.291-2.715-1.471-4.11-3.943-1.395-2.472-1.282-5.575.113-3.102 1.932-6.46zm2.487 1.348q-1.494 2.756-1.6 5.153-.115 2.39.922 4.212 1.026 1.816 2.954 2.86 1.927 1.045 4.02.92 2.082-.133 4.032-1.53 1.94-1.401 3.433-4.158 1.494-2.756 1.61-5.146.105-2.397-.922-4.213-1.036-1.822-2.964-2.866-1.927-1.045-4.01-.913-2.092.126-4.032 1.528-1.95 1.397-3.443 4.153zm-.84-14.679-13.824 19.786-6.918-4.833q-2.068-1.444-2.911-3.098-.85-1.643-.67-3.3.173-1.648 1.186-3.097.89-1.275 1.925-1.789 1.025-.52 2.097-.49 1.062.023 2.075.385l.135-.193q-.868-.693-1.38-1.914-.514-1.22-.376-2.735.138-1.514 1.231-3.079 1.04-1.488 2.546-2.204 1.507-.716 3.452-.392 1.945.324 4.283 1.957zm-3.88.451-4.754-3.321q-2.348-1.64-3.968-1.42-1.636.222-2.548 1.526-.702 1.005-.784 2.213-.088 1.217.5 2.391.583 1.183 1.878 2.088l4.869 3.402zm-6.265 8.966-4.444-3.105q-1.082-.756-2.249-.939-1.176-.189-2.228.226-1.062.409-1.791 1.452-.911 1.304-.638 2.847.267 1.553 2.238 2.93l4.522 3.159zm-8.14-22.673 2.312 2.01-22.528 12.398-2.277-1.98 9.153-24.03 2.312 2.01-7.892 20.066.143.124zm-7.042 6.372-9.32-8.106 1.702-1.957 9.32 8.106zm-8.892-20.736L92.32 419.159l-2.005-2.127 15.672-14.783-7.699-8.162 1.886-1.78zm-22.791-27.108 4.277 6.098-19.76 13.862-4.468-6.368q-2.017-2.876-2.265-5.754-.258-2.871 1.187-5.512 1.435-2.633 4.503-4.785 3.088-2.166 6.089-2.63 2.99-.457 5.662.807 2.663 1.271 4.775 4.282zm.476 5.194-2.49-3.551q-1.72-2.45-3.796-3.399-2.076-.948-4.377-.514-2.302.434-4.714 2.126-2.393 1.679-3.572 3.672-1.188 2-1.025 4.203.154 2.21 1.778 4.526l2.68 3.82zm-9.422-18.78 1.495 2.676-25.395 4.035-1.472-2.634 16.75-19.51 1.494 2.675-14.22 16.207.091.164zm-8.783 3.611-6.024-10.783 2.263-1.265 6.025 10.784zm-19.204-10.077-2.371 1.05-7.334-16.552 2.371-1.05 3.075 6.94 19.698-8.728 1.184 2.673-19.698 8.727zm11.541-27.856.956 2.91-25.698-.884-.942-2.866 20.165-15.956.956 2.911-17.052 13.196.06.18zm-9.311 1.868-3.856-11.734 2.463-.81 3.856 11.735zm2.934-22.355-23.607 5.039-1.761-8.253q-.527-2.467-.016-4.251.5-1.782 1.762-2.87 1.25-1.087 2.979-1.456 1.522-.325 2.628.005 1.105.318 1.868 1.071.761.742 1.254 1.697l.23-.05q-.161-1.097.296-2.34.458-1.243 1.592-2.256 1.133-1.013 3-1.412 1.776-.379 3.366.126 1.59.504 2.791 2.067 1.201 1.564 1.797 4.353zm-3.146-2.317-1.21-5.671q-.599-2.801-1.933-3.746-1.349-.953-2.905-.621-1.199.256-2.082 1.083-.896.83-1.266 2.09-.381 1.263-.051 2.807l1.24 5.81zm-10.697 2.283-1.132-5.302q-.275-1.291-1.004-2.22-.731-.941-1.783-1.355-1.055-.426-2.3-.16-1.556.332-2.409 1.647-.863 1.317-.361 3.669l1.151 5.394zm9.517-22.133.318 3.048-24.926-6.317-.313-3.001 23.091-11.315.317 3.048-19.463 9.278.02.188zm-9.495-.15-1.279-12.285 2.58-.269 1.278 12.286zm-10.482-34.433q-1.791.211-2.782 1.72-.991 1.507-.992 3.7-.001 1.602.517 2.805.518 1.19 1.425 1.863.907.66 2.062.66.967.001 1.662-.458.684-.471 1.144-1.202.449-.73.744-1.531.283-.802.46-1.473l.661-2.452q.248-.942.685-2.097.437-1.167 1.192-2.227.743-1.072 1.91-1.767 1.167-.695 2.864-.694 1.957.001 3.536 1.027 1.578 1.015 2.508 2.972.93 1.945.93 4.726-.002 2.593-.84 4.49-.838 1.886-2.335 2.97-1.498 1.071-3.478 1.211l.002-3.017q1.367-.117 2.263-.918.885-.813 1.321-2.05.425-1.25.426-2.687 0-1.674-.54-3.006-.554-1.332-1.532-2.11-.99-.779-2.31-.78-1.202 0-1.956.671-.755.672-1.227 1.768-.472 1.096-.826 2.368l-.85 2.97q-.815 2.828-2.324 4.478-1.51 1.649-3.95 1.648-2.027-.001-3.535-1.098-1.52-1.11-2.356-2.972-.847-1.874-.846-4.184.001-2.334.839-4.149.826-1.814 2.264-2.874 1.439-1.072 3.266-1.13zm18.423-7.959-24.02-2.374 1.432-14.497 2.58.255-1.145 11.588 8.117.802 1.07-10.837 2.581.255-1.07 10.837 8.162.807 1.164-11.776 2.58.255zm-2.761-51.676q3.697.956 6.045 2.988t3.206 4.737q.859 2.706.085 5.695-.773 2.99-2.836 4.94-2.062 1.95-5.1 2.588-3.039.639-6.736-.317-3.697-.957-6.044-2.988-2.348-2.032-3.206-4.737-.859-2.706-.086-5.695.774-2.99 2.836-4.94 2.063-1.95 5.101-2.589 3.038-.638 6.735.318zm-.708 2.739q-3.035-.785-5.386-.31-2.348.464-3.866 1.91-1.515 1.434-2.064 3.556-.55 2.123.078 4.123.63 1.989 2.455 3.545 1.828 1.544 4.864 2.329 3.035.785 5.383.321 2.35-.475 3.866-1.91 1.518-1.445 2.067-3.568.549-2.122-.08-4.11-.628-2.001-2.456-3.546-1.826-1.555-4.861-2.34zm14.081-4.34-22.573-8.55 5.126-13.535 2.425.918-4.091 10.802 7.627 2.889 3.707-9.788 2.425.919-3.707 9.787 10.096 3.824zm11.623-27.427-1.494 2.676-16.756-19.504 1.47-2.635 25.397 4.027-1.493 2.676-21.258-3.607-.092.165zm-7.682-5.583 6.021-10.785 2.264 1.263-6.02 10.786zm.034-28.662 20.13 13.32-1.613 2.438-20.13-13.32zm23.349 8.433-19.116-14.74 4.98-6.458q1.728-2.24 3.601-3.088 1.865-.854 3.723-.523 1.858.331 3.547 1.634 1.69 1.303 2.464 3 .774 1.7.42 3.703-.364 1.996-2.077 4.218l-4.03 5.227-2.091-1.612 3.972-5.152q1.18-1.531 1.452-2.81.28-1.288-.218-2.342-.5-1.07-1.648-1.955t-2.338-1.118q-1.19-.232-2.383.35-1.203.576-2.398 2.126l-3.137 4.07 17.062 13.155zm-1.65-15.62 12.215 1.918-2.073 2.688-12.157-1.992zm16.302-26.545L100 95.81q-1.088-.687-2.226-.882-1.13-.203-2.234.01-1.104.197-2.11.767-1.006.57-1.84 1.436-1.519 1.58-1.954 3.631-.427 2.042.4 4.294.836 2.242 3.096 4.415 2.26 2.173 4.533 2.92 2.282.74 4.306.233 2.032-.514 3.552-2.094.833-.867 1.363-1.894.53-1.028.692-2.131.162-1.12-.085-2.24-.248-1.138-.968-2.19l2.026-2.108q1.105 1.521 1.554 3.163.448 1.641.289 3.287-.168 1.637-.905 3.168-.729 1.523-1.995 2.84-2.14 2.226-4.895 2.913-2.754.687-5.714-.247-2.961-.934-5.714-3.58-2.752-2.648-3.801-5.57-1.05-2.922-.47-5.7.58-2.78 2.72-5.005 1.266-1.317 2.76-2.105 1.5-.796 3.139-1.02 1.629-.231 3.287.153 1.65.376 3.22 1.43zm15.517 8.381-15.475-18.525 6.259-5.229q2.17-1.813 4.183-2.235 2.005-.431 3.748.294 1.742.725 3.11 2.362 1.367 1.637 1.756 3.463.389 1.825-.39 3.705-.788 1.87-2.94 3.67l-5.066 4.23-1.692-2.025 4.992-4.171q1.484-1.24 2.026-2.43.55-1.197.293-2.333-.257-1.152-1.186-2.265-.93-1.113-2.041-1.597-1.111-.485-2.403-.174-1.299.302-2.8 1.557l-3.944 3.294 13.813 16.535zm1.768-15.606 11.51 4.513-2.605 2.176-11.438-4.574zm15.516 1.66-2.545 1.707-6.086-24.984 2.506-1.68 20.807 15.108-2.545 1.707-17.31-12.856-.156.105zm-4.313-8.461 10.258-6.88 1.444 2.153-10.257 6.88zm22.333-3.18-11.35-21.304 12.774-6.805 1.22 2.288-10.195 5.431 3.835 7.199 9.237-4.922 1.22 2.289-9.238 4.921 5.077 9.528zm7.881-28.364-.987-2.397 16.74-6.891.987 2.397-7.019 2.89 8.202 19.923-2.703 1.112-8.201-19.923zm39.121 8.559-2.978.724 2.909-25.549 2.932-.713 14.315 21.36-2.977.725-11.81-18.04-.183.045zm-1.129-9.43 12.002-2.918.613 2.52-12.002 2.918zm38.066-21.694 2.974 23.954-2.807.348-15.388-17.187-.234.03 2.335 18.807-2.9.36-2.975-23.954 2.807-.348 15.441 17.228.234-.03-2.34-18.854zm16.277 23.562-7.449.05-.158-24.138 7.778-.051q3.513-.023 6.02 1.41 2.509 1.422 3.858 4.112 1.35 2.678 1.374 6.426.025 3.772-1.3 6.503-1.326 2.72-3.886 4.198-2.56 1.466-6.237 1.49zm-4.543-2.563 4.337-.028q2.994-.02 4.955-1.188 1.96-1.168 2.913-3.307.952-2.14.933-5.086-.02-2.923-.988-5.027-.969-2.115-2.874-3.234-1.905-1.13-4.733-1.112l-4.667.03zm30.255 3.669 3.436-23.892 14.419 2.073-.37 2.567-11.525-1.658-1.161 8.073 10.78 1.55-.37 2.567-10.78-1.55-1.167 8.12 11.713 1.684-.37 2.566zm44.181-15.608-6.011 23.377-2.74-.704-8.019-21.63-.228-.06-4.72 18.355-2.83-.728 6.01-23.377 2.74.705 8.053 21.688.228.058 4.732-18.4zm20.977 15.739q.071-1.25-.178-2.36-.235-1.117-.803-2.06-.556-.94-1.449-1.668-.892-.728-2.11-1.204-1.998-.781-4.037-.388-2.039.392-3.79 2.023-1.751 1.632-2.893 4.552-1.14 2.92-.949 5.31.192 2.391 1.457 4.075 1.266 1.684 3.351 2.5 1.932.755 3.725.506 1.808-.255 3.223-1.448 1.431-1.2 2.238-3.264l.765.502-6.762-2.643.944-2.415 8.562 3.347-.943 2.415q-1.086 2.777-3.074 4.366-1.977 1.594-4.493 1.914-2.502.313-5.18-.734-2.986-1.167-4.698-3.456-1.701-2.284-1.951-5.368-.24-3.08 1.15-6.637 1.043-2.667 2.59-4.518 1.56-1.858 3.465-2.847 1.906-.989 4.02-1.086 2.113-.098 4.275.747 1.778.695 3.105 1.834 1.342 1.131 2.168 2.58.84 1.443 1.125 3.11.29 1.657-.043 3.413zm14.549-1.471L347.899 70.59l-2.627-1.281 10.582-21.695Zm23.502 13.191-12.319 20.758-2.432-1.443-1.64-23.011-.202-.12-9.672 16.298-2.514-1.492 12.319-20.758 2.432 1.444 1.656 23.075.203.12 9.696-16.338zm-7.527 24.133 14.488-19.306 11.652 8.743-1.556 2.074-9.314-6.99-4.896 6.524 8.71 6.537-1.555 2.074-8.711-6.537-4.924 6.562 9.465 7.102-1.556 2.074zm40.274 1.509 2.412 2.52-8.802 19.78.196.205 20.146-7.928 2.413 2.52-17.438 16.69-1.89-1.975 13.248-12.68-.163-.171-18.465 7.231-1.825-1.907 8.033-18.13-.163-.17-13.249 12.68-1.89-1.975zm24.361 47.685q-3.082 2.255-6.14 2.785-3.06.53-5.697-.52-2.638-1.049-4.461-3.541-1.824-2.492-2.026-5.323-.203-2.831 1.227-5.587 1.43-2.755 4.512-5.01 3.082-2.256 6.14-2.786 3.06-.53 5.697.52 2.638 1.05 4.461 3.541 1.824 2.492 2.026 5.323.203 2.831-1.227 5.587-1.43 2.755-4.512 5.01zm-1.67-2.283q2.53-1.852 3.65-3.972 1.128-2.11.971-4.201-.15-2.081-1.444-3.85-1.295-1.77-3.24-2.551-1.938-.773-4.298-.345-2.353.437-4.883 2.288-2.53 1.852-3.658 3.962-1.121 2.12-.971 4.202.157 2.09 1.451 3.86 1.295 1.768 3.233 2.54 1.945.783 4.298.346 2.36-.428 4.89-2.28zm-1.827 20.089-3.656-6.488 21.028-11.85 3.82 6.776q1.724 3.06 1.687 5.949-.026 2.882-1.723 5.368-1.687 2.48-4.953 4.32-3.285 1.85-6.317 2.017-3.021.16-5.556-1.36-2.524-1.527-4.33-4.731zm.038-5.215 2.129 3.779q1.47 2.608 3.442 3.755 1.973 1.148 4.306.943 2.333-.206 4.9-1.652 2.546-1.435 3.915-3.302 1.38-1.874 1.434-4.082.065-2.215-1.324-4.68l-2.291-4.065zm7.654 19.711 22.165-9.558 5.769 13.377-2.381 1.027-4.611-10.693-7.49 3.23 4.313 10-2.381 1.026-4.313-10-7.532 3.249 4.686 10.866-2.381 1.026zm7.583 18.345 22.962-7.441.902 2.78-20.496 6.642 3.46 10.674-2.467.8zm26.06 26.839q1.704-.592 2.347-2.278.643-1.687.173-3.828-.345-1.565-1.11-2.628-.761-1.051-1.792-1.512-1.028-.45-2.156-.202-.944.207-1.525.806-.566.607-.858 1.42-.28.81-.396 1.655-.104.844-.133 1.538l-.118 2.536q-.04.974-.217 2.196-.176 1.233-.684 2.43-.495 1.208-1.486 2.138-.99.93-2.648 1.294-1.91.42-3.673-.242-1.76-.651-3.09-2.362-1.327-1.7-1.924-4.416-.557-2.533-.147-4.566.412-2.021 1.641-3.402 1.232-1.369 3.136-1.932l.647 2.947q-1.31.409-2.012 1.384-.689.984-.85 2.286-.145 1.311.163 2.716.36 1.634 1.175 2.819.827 1.182 1.95 1.731 1.134.547 2.423.264 1.174-.258 1.767-1.076.592-.818.817-1.99.225-1.172.297-2.491l.191-3.083q.187-2.938 1.306-4.873 1.12-1.936 3.502-2.46 1.98-.435 3.689.312 1.723.755 2.94 2.394 1.231 1.649 1.727 3.905.501 2.279.074 4.231-.416 1.95-1.593 3.295-1.174 1.356-2.945 1.806zm-1.01 29.857-2.583.216-.877-10.524 2.584-.216z" style="font-family:Inter;-inkscape-font-specification:Inter" transform="matrix(-.74 -.69681 .69603 -.74063 267.305 623.884)" aria-label="AIRCRAFT DATABASE - GLOBAL DATABASE OF AIRCRAFT AND ENGINE MODELS -"/></g><g fill="#343a40"><path d="M315.821 257.885c3 8.289 3 8.314 2.543 8.975-.687.966-24.992 35.239-25.069 35.315-.05.076-2.745.356-18.56 1.958-6.28.635-13.602 1.372-16.271 1.652l-30.255 3.076c-4.526.433-16.272.585-20.62.255-4.728-.356-12.635-1.348-15.508-1.933-2.212-.457-5.34-1.601-7.094-2.593-.635-.33-1.144-.635-1.144-.66 0-.026.33-1.806.712-3.942l.737-3.864h-6.812l-.941 1.525c-.509.814-1.017 1.475-1.119 1.45-.33-.102-4.856-4.246-11.212-10.323-5.67-5.39-14.365-14.161-26.34-26.568l-3.127-3.255-5.44 1.373c-3 .737-5.442 1.45-5.442 1.576 0 .128 6.636 13.272 14.721 29.239 8.11 15.94 14.772 29.161 14.823 29.365.05.254-.407.457-1.5.712l-1.551.356.508 1.83c.28 1.017.56 2.009.636 2.212.152.534-1.144.966-10.602 3.56-22.069 6.101-39.942 11.313-41.544 12.127-1.703.84-2.085 2.085-1.042 3.33.991 1.196 2.008 1.5 6.356 1.958l4.068.407 4.83-1.297c2.67-.711 7.755-2.084 11.314-3.05 3.56-.967 10.145-2.72 14.62-3.941 4.474-1.195 10.5-2.822 13.398-3.585l5.288-1.424 3.484 1.526c7.474 3.305 19.195 7.805 27.661 10.652 4.246 1.424 5.263 1.653 8.263 1.984 1.882.203 6.306.737 9.789 1.195 6.127.813 6.66.839 14.44.813 4.45-.025 8.06 0 8.01.026-.051.05-2.467.94-5.416 1.983-2.924 1.042-8.873 3.203-13.22 4.754-14.95 5.39-20.62 7.424-25.425 9.153-7.83 2.796-23.772 8.542-28.984 10.424-13.424 4.856-17.645 6.356-17.797 6.356-.076 0-2.314-1.881-4.983-4.195-2.644-2.314-4.958-4.195-5.136-4.195-1.17-.026-10.856.915-10.856 1.042 0 .102.89.966 1.957 1.933 2.823 2.517 9.077 9.28 10.679 11.568 1.729 2.44 2.237 2.873 4.5 3.585 1.576.483 2.364.559 6.127.559l4.322-.026 3.305-1.067c1.831-.61 6.407-2.11 10.17-3.356 52.07-17.086 55.73-18.28 76.528-25.196l18.814-6.254 1.347 1.245c.763.661 1.45 1.22 1.526 1.22.102 0 .356-.38.56-.838.203-.433.66-.941 1.016-1.119.687-.33 3.56-.839 3.56-.661 0 .076-.483.661-1.043 1.297-1.754 1.957-2.44 3.94-1.627 4.627.356.305.915.254 2.314-.153.457-.127.635.077 1.195 1.22 1.017 2.086 2.288 3.408 4.093 4.272 1.373.636 2.136.814 4.882 1.042 1.932.178 4.856.204 7.093.128 2.11-.102 6.229-.28 9.153-.382 3.381-.127 5.67-.33 6.229-.534 1.195-.457 5.415-3.407 6.178-4.322 1.17-1.373 2.975-6.407 2.975-8.263 0-1.322-1.424-6.381-2.136-7.602-.737-1.271-1.551-1.932-3.509-2.822-.737-.33-1.17-.61-.966-.61.204-.025 2.263-.254 4.577-.534 13.983-1.678 20.848-2.364 31.526-3.178 25.018-1.932 58.578-5.568 65.239-7.119 6.915-1.602 15.331-6.254 21.255-11.797 2.136-2.008 3-3.508 3.178-5.568.102-1.296.025-1.576-.636-2.644-1.17-1.78-4.398-4.195-9.839-7.322-1.525-.89-3.305-2.06-3.94-2.619-1.704-1.5-6.204-3.56-10.298-4.729-8.695-2.491-11.898-3.203-16.83-3.839-4.526-.56-25.298.687-51.13 3.076-4.652.433-8.516.738-8.593.661-.076-.076 2.238-7.423 5.136-16.347a6682.63 6682.63 0 0 1 5.288-16.4c0-.1-2.491-3.89-5.568-8.44l-5.593-8.289-4.602-.025h-4.602z" stroke="#dee2e6" stroke-width="5.084"/><path d="M315.812 257.949c3 8.288 3 8.314 2.542 8.975-.686.966-24.992 35.238-25.068 35.314-.05.077-2.746.356-18.56 1.958-6.28.636-13.602 1.373-16.272 1.653l-30.255 3.076c-4.525.432-16.271.585-20.619.254-4.729-.356-12.636-1.347-15.509-1.932-2.212-.458-5.339-1.602-7.093-2.593-.636-.33-1.144-.636-1.144-.661 0-.026.33-1.805.712-3.941l.737-3.865h-6.814l-.94 1.526c-.509.813-1.018 1.474-1.12 1.449-.33-.102-4.855-4.246-11.211-10.322-5.67-5.39-14.365-14.162-26.34-26.569l-3.127-3.254-5.441 1.373c-3 .737-5.441 1.449-5.441 1.576s6.636 13.272 14.72 29.238c8.111 15.941 14.772 29.162 14.823 29.365.051.255-.407.458-1.5.712l-1.55.356.508 1.83c.28 1.018.56 2.01.635 2.213.153.534-1.144.966-10.602 3.56-22.068 6.101-39.941 11.313-41.543 12.127-1.704.839-2.085 2.084-1.043 3.33.992 1.195 2.009 1.5 6.357 1.958l4.067.407 4.831-1.297c2.67-.712 7.755-2.085 11.314-3.05 3.56-.967 10.144-2.721 14.619-3.942 4.475-1.195 10.5-2.822 13.399-3.585l5.288-1.423 3.483 1.525c7.475 3.305 19.196 7.805 27.662 10.653 4.246 1.424 5.263 1.653 8.263 1.983 1.881.204 6.305.737 9.788 1.195 6.128.814 6.662.84 14.441.814 4.45-.026 8.06 0 8.01.025-.052.05-2.467.94-5.416 1.983-2.924 1.043-8.873 3.204-13.221 4.755-14.95 5.39-20.62 7.424-25.424 9.152-7.831 2.797-23.772 8.543-28.984 10.424-13.424 4.856-17.645 6.357-17.797 6.357-.077 0-2.314-1.882-4.984-4.196-2.644-2.313-4.957-4.195-5.135-4.195-1.17-.025-10.857.916-10.857 1.043 0 .102.89.966 1.958 1.932 2.822 2.517 9.077 9.28 10.678 11.568 1.73 2.441 2.238 2.873 4.5 3.585 1.577.483 2.365.56 6.128.56l4.322-.026 3.305-1.068c1.83-.61 6.407-2.11 10.17-3.356 52.07-17.085 55.73-18.28 76.527-25.196l18.815-6.254 1.347 1.246c.763.66 1.45 1.22 1.526 1.22.101 0 .355-.381.559-.839.203-.432.66-.94 1.017-1.118.686-.331 3.56-.84 3.56-.661 0 .076-.484.66-1.043 1.296-1.754 1.958-2.44 3.941-1.627 4.627.356.306.915.255 2.313-.152.458-.127.636.076 1.195 1.22 1.017 2.085 2.288 3.407 4.094 4.272 1.373.635 2.135.813 4.881 1.042 1.932.178 4.856.203 7.094.127 2.11-.102 6.228-.28 9.152-.381 3.382-.127 5.67-.33 6.23-.534 1.194-.458 5.415-3.407 6.177-4.322 1.17-1.373 2.975-6.407 2.975-8.263 0-1.322-1.424-6.382-2.136-7.602-.737-1.271-1.55-1.932-3.508-2.822-.737-.33-1.17-.61-.966-.61.203-.026 2.263-.255 4.576-.534 13.984-1.678 20.848-2.365 31.526-3.178 25.018-1.933 58.578-5.568 65.24-7.12 6.915-1.601 15.33-6.254 21.254-11.796 2.136-2.009 3-3.509 3.179-5.568.101-1.297.025-1.577-.636-2.644-1.17-1.78-4.399-4.195-9.84-7.323-1.525-.89-3.305-2.059-3.94-2.618-1.704-1.5-6.204-3.56-10.297-4.73-8.695-2.49-11.899-3.203-16.831-3.838-4.526-.56-25.297.686-51.129 3.076-4.652.432-8.517.737-8.593.661-.076-.076 2.237-7.424 5.136-16.348 2.873-8.95 5.263-16.322 5.288-16.399 0-.101-2.492-3.89-5.568-8.44l-5.593-8.289-4.602-.025h-4.602z"/></g><path d="M382.405 145.325c-.513.117-1.436.367-2.051.572-1.085.351-4.586 1.318-6.682 1.846l-3.59.938c-2.783.732-2.871.762-6.96 1.86-1.523.41-3.282.865-3.882 1.012-1.51.351-5.129 1.274-6.374 1.611-1.744.484-2.74.748-3.956 1.04-.645.147-1.495.367-1.905.484-.396.117-1.656.454-2.784.747-1.128.308-2.608.704-3.297.894-.688.176-1.905.513-2.71.718-.806.22-1.656.454-1.905.513a557.7 557.7 0 0 1-5.861 1.538c-1.363.352-2.887.748-3.37.88a565.775 565.775 0 0 1-12.162 3.077c-1.524.366-3.194.776-3.707.908-.718.19-.996.205-1.29.059-.263-.118-.527-.118-.908-.015a87.78 87.78 0 0 1-3.282.747c-.732.147-.879.147-1.099-.044-.425-.38-1.348-.557-2.916-.557-2.564 0-4.967.572-5.978 1.422-.425.351-.498.366-1.553.263-1.89-.19-2.96-.16-3.487.132-.454.235-.674.235-2.345.103-1.025-.088-2.652-.22-3.619-.308-.967-.073-3.472-.337-5.568-.586a643.969 643.969 0 0 0-7.912-.879 523.197 523.197 0 0 1-5.421-.586c-.718-.088-2.564-.279-4.103-.44-6.564-.659-16.718-1.773-18.682-2.036-3.12-.425-4.63-.586-7.4-.82-6.798-.572-10.9-.968-12.893-1.246-.557-.074-1.7-.176-2.506-.235-1.45-.088-1.494-.088-1.597.235-.058.205-.03.395.088.527.132.117 1.817.366 5.04.718 8.865.953 18.228 1.978 27.767 3.018 19.81 2.14 23.15 2.506 30.99 3.356 4.44.483 8.102.879 8.146.879.044 0 .161.161.25.366.116.264.278.367.585.367.235 0 .455.044.499.088.058.044.776.087 1.626.102 1.802.03 1.949.117 2.623 1.51.63 1.318.557 1.582-.689 2.432-.982.674-1.524 1.172-1.802 1.67-.073.147-.762.396-1.773.66-2.99.761-4.835 1.89-8.264 5.098l-1.29 1.202-.908-.044c-.615-.03-.952.015-1.055.146-.102.132-.63.22-1.48.25-.732.029-1.494.131-1.729.205-.22.088-.967.293-1.67.454-.703.176-1.7.41-2.213.527-1.128.264-1.714.557-2.227 1.1-.498.527-.644.527-.85.014-.088-.22-.337-.6-.542-.835l-.366-.44.308.615c.44.924.38 1.129-.47 1.744-.937.66-3.97 3.326-7.955 6.99-.162.16-1.305 1.172-2.52 2.27-1.231 1.085-2.243 2.037-2.243 2.11 0 .235-.278.118-.366-.175-.161-.484-.6-.337-1.304.454-.645.718-.82 1.187-.264.674.337-.308.47-.308.47 0 0 .132-.675.938-1.51 1.787-1.86 1.92-2.374 2.828-2.374 4.279 0 .864.059 1.055.499 1.7.761 1.113 2.652 2.212 5.333 3.106 1.539.513 6.93 1.392 9.92 1.626 1.01.074 3.956.147 6.55.147 2.886 0 4.747.058 4.805.146.132.205-.102.25-3.487.528-.63.058-1.172.161-1.216.22-.117.205.513.718.894.718.249 0 .674.278 1.304.864.513.469 1.084.908 1.274.952 1.026.279 1.451.44 1.451.543 0 .16-.293.22-2.93.483-5.32.557-7.327.82-7.327.982 0 .161.792.571 1.129.571.146 0 .63.367 1.07.806.585.586.908.806 1.2.806.411 0 1.788.484 3.488 1.216 1.07.469 3.194 1.26 4.132 1.553 1.348.425 3.458.41 7.59-.058 1.817-.205 4.19-.47 5.275-.586 1.084-.118 2.579-.279 3.297-.367.732-.073 1.875-.205 2.564-.293.688-.073 2.33-.249 3.663-.38a198.93 198.93 0 0 0 3.59-.352c3.15-.337 4.205-.44 5.421-.513 4-.22 17.48-1.114 17.744-1.172.513-.118.615-.82.147-.997-.088-.044-2.93.117-6.316.352-6.256.425-7.956.483-8.527.337-.337-.088-.616-.63-.674-1.304-.03-.396.014-.44.556-.542.924-.176 6.184-.542 13.158-.909 6.374-.351 6.843-.41 6.843-.894 0-.512-.352-.556-3.487-.38-3.634.205-5.114.234-6.184.087-.747-.087-.835-.146-1.128-.644-.498-.865-1.45-5.246-1.275-5.876.059-.205.088-.513.074-.689-.015-.19.073-.337.234-.395.147-.044.396-.293.528-.528.234-.395.249-.454.029-.527-.117-.059-.513-.044-.88 0-.644.102-.644.102-.878-.44-.132-.307-.19-.644-.161-.747.087-.205 2.33-1.348 7.326-3.707 3.458-1.626 3.53-1.656 5.934-2.154a211.34 211.34 0 0 1 4.132-.777c.938-.16 1.875-.351 2.066-.424.205-.074 1.538-.381 2.989-.674 2.418-.484 5.128-1.07 21.89-4.762 9.173-2.022 19.18-4.191 21.671-4.704l2.272-.469.322.396c.19.205.38.38.425.38.132 0 1.099.733 1.465 1.1.63.63 3.282 2.754 4.528 3.648.586.41.996.865 1.509 1.715.63 1.04.776 1.186 1.524 1.509.469.205 1.524.542 2.359.747.82.22 2.198.586 3.033.82 1.626.455 2.49.572 1.7.22-.235-.102-.865-.293-1.392-.44-1.773-.468-3.444-.996-3.576-1.127-.249-.22.381-.733 1.744-1.407.733-.366 1.333-.689 1.363-.703.044-.044-.499-1.524-.997-2.711-.674-1.568-2.198-5.495-2.198-5.641 0-.147 1.641-.557 3.019-.762.557-.088 1.172-.586 1.304-1.055l.102-.352-2.359.103c-2.036.088-2.359.073-2.359-.117 0-.118.25-1.231.572-2.462.308-1.23.864-3.531 1.245-5.1.381-1.567.733-3.061.806-3.296.117-.38.718-2.799 1.788-7.165.146-.645.278-1.216.278-1.29 0-.058-.527-.117-1.172-.117h-1.172l-.205-.512c-.396-.923-.967-.82-.967.175 0 .44-.044.484-.425.484-.235 0-.557.117-.718.25-.25.234-1.92 3.882-1.934 4.234a4.47 4.47 0 0 1-.293.718 5.39 5.39 0 0 0-.294.688c0 .059-.19.513-.424 1.026-.704 1.524-.997 2.227-1.114 2.608-.059.205-.161.44-.234.528-.074.087-.22.41-.337.732a18.14 18.14 0 0 1-.499 1.23c-.16.367-.527 1.246-.835 1.979a368.26 368.26 0 0 1-.938 2.271l-.395.953-1.319.102c-.718.059-2.462.161-3.868.25-1.421.072-2.755.219-2.99.307-.366.132-.468.102-.878-.264-.557-.498-2.99-3.048-4.499-4.733-1.304-1.436-1.729-1.714-2.241-1.48-.206.088-.47.338-.616.528-.22.352-.22.425.015.996.293.748.63 1.143 3.048 3.634 1.26 1.29 1.831 1.993 1.743 2.08-.088.089-1.597.206-3.355.28-1.759.072-4.308.19-5.685.278-1.363.073-4.66.249-7.327.366-4.762.205-7.765.38-12.234.674-3.532.22-7.84.425-11.312.527l-3.165.088-.322-.644c-.323-.645-.85-1.304-1.026-1.304-.058 0-1.07-.528-2.271-1.187-1.201-.645-2.579-1.363-3.077-1.597-1.04-.499-2.99-1.568-3.297-1.817-.513-.425-1.245-.542-4.03-.645l-2.915-.103-.19-.644c-.206-.704-.557-1.187-.88-1.187-.117 0-.468.132-.79.308-.572.278-.616.278-.88.044-.147-.132-.352-.47-.454-.762l-.19-.499-4.47.103c-2.461.059-4.732.147-5.055.22-1.436.293-4.03.483-4.366.337a5.169 5.169 0 0 0-.557-.235c-.278-.088-.425-1.055-.425-2.754 0-.718.059-1.172.19-1.275.089-.073 5.554-1.568 12.118-3.326 24.499-6.52 36.822-9.876 45.276-12.337a582.056 582.056 0 0 1 7.253-2.052c1.612-.425 3.62-1.01 4.469-1.275 1.758-.571 3.824-1.157 6.96-1.963 2.417-.645 5.026-1.407 5.143-1.538.249-.25-.542-1.422-.938-1.407-.132 0-.674.103-1.187.205zm-65.452 57.965c.615.484.483.674-.528.777-.512.058-1.142.132-1.392.19-.38.059-.483.03-.483-.176 0-.146.322-.395.923-.66.498-.233.952-.424.996-.439.059 0 .264.132.484.308zm3.092 1.978c0 .161.073.396.175.513.162.205.557 1.729.997 3.868.16.777.205 1.45.146 2.008-.117.996.088.908-3.003 1.142-1.085.074-2.726.22-3.634.308-.909.088-1.7.117-1.759.059-.058-.059-.131-1.334-.175-2.828-.044-1.51-.118-2.813-.176-2.901-.059-.088-.044-.572.044-1.07.132-.733.22-.908.483-.952.162-.044 1.495-.147 2.945-.235 1.451-.088 2.8-.19 3.004-.205.733-.088.953-.03.953.293zm-8.455 1.495c.044 1.45.132 1.392-2.315 1.64-1.758.162-3.414.352-5.275.587-.6.073-1.86.205-2.784.293-.923.088-1.817.19-1.992.22-.425.088-.792-.923-.513-1.436.16-.308.469-.396 2.842-.82 1.466-.265 2.901-.543 3.18-.616 2.154-.542 3.839-.894 4.938-.997 2.007-.19 1.875-.278 1.92 1.129zm-.132 2.784c.132.234.235 1.055.279 2.095.058 1.553.029 1.714-.205 1.802-.147.059-1.363.161-2.696.235a206.26 206.26 0 0 0-4.69.366c-1.245.132-2.695.22-3.223.19l-.952-.044-.396-.805c-.498-.982-.791-2.623-.513-2.872.088-.088 1.334-.264 2.74-.41 1.407-.147 3.825-.41 5.348-.587 3.883-.468 4.06-.468 4.308.03zm-21.524.747c0 .073-.132.19-.293.234-.469.147-.337.484.293.806.674.337.718.557.234 1.011-.293.279-.688.367-2.813.601-1.363.161-3.165.38-4.015.498-1.45.19-1.582.176-2.27-.088-1.012-.395-1.246-.644-1.246-1.318 0-.484.073-.601.483-.85.63-.396.792-.367 1.055.146.308.586.704.557 1.07-.058.366-.616.454-.63 3.707-.88 3.12-.249 3.795-.263 3.795-.102zm8.103 1.407c.249 1.025.234 2.256-.03 2.696-.102.146-.908.278-2.754.468-1.436.147-2.828.279-3.077.279h-.484v-1.187c0-.645.074-1.319.161-1.495.132-.234.132-.322 0-.366-.249-.088-.19-.395.103-.66.176-.16.762-.292 1.802-.41a74.35 74.35 0 0 0 2.403-.278c1.583-.205 1.583-.205 1.876.953zm-19.766-.132c.044.132.088.366.088.512 0 .264-.088.294-.748.25-.806-.044-1.143-.308-.967-.762.132-.337 1.495-.337 1.627 0zm12.44 2.696c.087.703.073.967-.074 1.055-.102.073-1.143.102-2.315.073-1.802-.059-2.286-.117-3.209-.44-.586-.205-1.113-.425-1.172-.468-.249-.264.66-.484 3.004-.718 1.421-.147 2.754-.323 2.974-.381.601-.19.66-.118.791.879zm21.202.718c0 .586-.279 1.318-.572 1.465-.264.146-.352.161-8.586 1.04-5.597.601-9.832 1.026-10.14 1.026-.263 0-.644-1.011-.6-1.539l.044-.44 1.611-.175c2.096-.234 7.063-.747 9.744-.996 1.172-.118 2.857-.279 3.737-.367.893-.088 2.227-.22 2.989-.293.762-.088 1.406-.176 1.45-.22.147-.146.323.118.323.499zm-29.422.293c2.96 1.187 4.263 1.48 6.461 1.48h1.861v.44c0 .248-.088.673-.205.952-.161.38-.337.527-.777.644-1.201.308-6.945.777-8.66.718-1.699-.058-1.743-.073-3.135-.747-.791-.381-1.48-.689-1.553-.689-.293 0-1.875-.776-2.183-1.07-.22-.19-.337-.468-.337-.79 0-.455.058-.528.674-.792.366-.176 1.26-.366 2.007-.44.747-.073 1.817-.19 2.374-.263.571-.059 1.172-.132 1.348-.147.19 0 1.143.308 2.125.704zm-9.935.542c.235.615.117.791-.542.791-.674 0-.982-.19-.982-.6s1.378-.587 1.524-.191z" style="fill:#343a40;stroke:#dee2e6;stroke-width:1.5;stroke-miterlimit:4;stroke-dasharray:none"/><path d="M382.491 145.392c-.513.117-1.436.366-2.051.571-1.085.352-4.587 1.319-6.682 1.847-.557.146-2.183.571-3.59.937-2.784.733-2.872.762-6.96 1.861-1.523.41-3.282.865-3.882 1.011-1.51.352-5.129 1.275-6.374 1.612-1.744.483-2.74.747-3.956 1.04-.645.147-1.495.367-1.905.484-.396.117-1.656.454-2.784.747-1.128.308-2.608.703-3.297.894-.689.176-1.905.513-2.71.718-.806.22-1.656.454-1.905.513-1.085.293-3.576.952-5.861 1.538-1.363.352-2.887.747-3.37.88a565.775 565.775 0 0 1-12.162 3.076 371.21 371.21 0 0 0-3.707.909c-.718.19-.996.205-1.29.058-.263-.117-.527-.117-.908-.014a87.78 87.78 0 0 1-3.282.747c-.733.146-.88.146-1.099-.044-.425-.381-1.348-.557-2.916-.557-2.564 0-4.967.572-5.978 1.421-.425.352-.498.367-1.553.264-1.89-.19-2.96-.161-3.487.132-.454.234-.674.234-2.345.103-1.025-.088-2.652-.22-3.619-.308-.967-.073-3.472-.337-5.568-.586-2.095-.25-5.656-.645-7.912-.88a523.197 523.197 0 0 1-5.421-.585c-.718-.088-2.565-.279-4.103-.44-6.564-.66-16.718-1.773-18.682-2.037-3.12-.425-4.63-.586-7.4-.82-6.798-.572-10.9-.967-12.893-1.246-.557-.073-1.7-.176-2.506-.234-1.45-.088-1.494-.088-1.597.234-.059.205-.03.396.088.528.132.117 1.817.366 5.04.718 8.865.952 18.228 1.978 27.767 3.018 19.81 2.14 23.15 2.506 30.99 3.356 4.439.483 8.102.879 8.146.879.044 0 .161.16.25.366.116.264.278.366.585.366.235 0 .454.044.498.088.059.044.777.088 1.627.103 1.802.03 1.949.117 2.623 1.509.63 1.319.556 1.582-.689 2.432-.982.674-1.524 1.172-1.802 1.67-.074.147-.762.396-1.773.66-2.99.762-4.836 1.89-8.264 5.099l-1.29 1.202-.908-.044c-.615-.03-.952.014-1.055.146-.103.132-.63.22-1.48.25-.733.028-1.494.131-1.729.204-.22.088-.967.293-1.67.454-.704.176-1.7.41-2.213.528-1.128.264-1.714.557-2.227 1.099-.498.527-.645.527-.85.014-.088-.22-.337-.6-.542-.835l-.366-.44.307.616c.44.923.381 1.128-.468 1.744-.938.66-3.971 3.326-7.957 6.989-.16.161-1.304 1.172-2.52 2.271-1.23 1.084-2.242 2.037-2.242 2.11 0 .234-.278.117-.366-.176-.161-.483-.6-.337-1.304.454-.645.718-.82 1.187-.264.674.337-.307.47-.307.47 0 0 .132-.675.938-1.51 1.788-1.86 1.92-2.374 2.828-2.374 4.279 0 .864.059 1.054.498 1.7.762 1.113 2.652 2.212 5.334 3.105 1.538.513 6.93 1.392 9.92 1.627 1.01.073 3.956.146 6.55.146 2.886 0 4.747.059 4.805.147.132.205-.102.249-3.487.527-.63.059-1.172.162-1.216.22-.117.205.513.718.894.718.249 0 .674.279 1.304.865.512.469 1.084.908 1.274.952 1.026.278 1.45.44 1.45.542 0 .161-.292.22-2.93.484-5.318.557-7.326.82-7.326.981 0 .162.791.572 1.128.572.147 0 .63.366 1.07.806.586.586.909.806 1.202.806.41 0 1.787.483 3.487 1.216 1.07.469 3.194 1.26 4.132 1.553 1.348.425 3.458.41 7.59-.059 1.817-.205 4.19-.469 5.275-.586 1.084-.117 2.578-.278 3.296-.366.733-.073 1.876-.205 2.565-.293.688-.073 2.33-.25 3.663-.381 1.333-.117 2.945-.278 3.59-.352 3.15-.337 4.205-.44 5.42-.513 4.001-.22 17.481-1.113 17.745-1.172.513-.117.615-.82.146-.996-.087-.044-2.93.117-6.315.352-6.256.424-7.956.483-8.527.337-.337-.088-.616-.63-.674-1.304-.03-.396.014-.44.556-.543.923-.175 6.184-.542 13.158-.908 6.374-.352 6.843-.41 6.843-.894 0-.513-.352-.557-3.487-.38-3.634.204-5.114.234-6.184.087-.747-.088-.835-.146-1.128-.645-.498-.864-1.45-5.245-1.275-5.875.059-.205.088-.513.074-.689-.015-.19.073-.337.234-.396.147-.044.396-.293.528-.527.234-.396.249-.454.029-.527-.117-.06-.513-.044-.88 0-.644.102-.644.102-.878-.44-.132-.308-.19-.645-.162-.747.088-.205 2.33-1.348 7.327-3.707 3.458-1.627 3.53-1.656 5.934-2.154a211.34 211.34 0 0 1 4.132-.777c.938-.161 1.875-.352 2.066-.425.205-.073 1.538-.38 2.989-.674 2.417-.483 5.128-1.07 21.89-4.762 9.173-2.022 19.18-4.19 21.671-4.703l2.271-.47.323.397c.19.205.38.38.425.38.132 0 1.099.733 1.465 1.1.63.63 3.282 2.754 4.528 3.648.586.41.996.864 1.509 1.714.63 1.04.776 1.187 1.524 1.51.468.204 1.523.542 2.359.747.82.22 2.197.586 3.033.82 1.626.454 2.49.572 1.7.22-.235-.103-.865-.293-1.393-.44-1.773-.468-3.443-.996-3.575-1.128-.249-.22.381-.732 1.744-1.406.732-.367 1.333-.69 1.363-.704.044-.044-.499-1.524-.997-2.71-.674-1.568-2.198-5.495-2.198-5.642 0-.146 1.641-.556 3.019-.762.556-.087 1.172-.586 1.304-1.055l.102-.351-2.359.102c-2.036.088-2.359.074-2.359-.117 0-.117.25-1.23.572-2.461.307-1.231.864-3.532 1.245-5.1.381-1.567.733-3.062.806-3.296.117-.381.718-2.799 1.788-7.165.146-.645.278-1.216.278-1.29 0-.058-.527-.117-1.172-.117h-1.172l-.206-.513c-.395-.923-.967-.82-.967.176 0 .44-.043.484-.424.484a1.32 1.32 0 0 0-.718.249c-.25.234-1.92 3.883-1.935 4.234a4.47 4.47 0 0 1-.293.718 5.39 5.39 0 0 0-.293.689c0 .058-.19.513-.425 1.026-.703 1.523-.996 2.227-1.113 2.608-.059.205-.161.44-.235.527-.073.088-.22.41-.337.733a18.14 18.14 0 0 1-.498 1.23c-.161.367-.527 1.246-.835 1.979-.293.718-.718 1.743-.938 2.27l-.395.953-1.32.103c-.717.058-2.46.16-3.867.249-1.422.073-2.755.22-2.99.308-.366.131-.468.102-.879-.264-.556-.498-2.989-3.048-4.498-4.733-1.304-1.436-1.729-1.714-2.242-1.48-.205.088-.468.337-.615.528-.22.351-.22.425.015.996.293.747.63 1.143 3.047 3.634 1.26 1.29 1.832 1.993 1.744 2.08-.088.088-1.597.206-3.355.279-1.759.073-4.308.19-5.685.278-1.363.074-4.66.25-7.327.367-4.762.205-7.765.38-12.234.674-3.532.22-7.84.424-11.312.527l-3.165.088-.322-.645c-.323-.644-.85-1.304-1.026-1.304-.059 0-1.07-.527-2.271-1.187-1.202-.644-2.579-1.362-3.077-1.597-1.04-.498-2.99-1.568-3.297-1.817-.513-.425-1.245-.542-4.03-.644l-2.915-.103-.19-.645c-.206-.703-.557-1.186-.88-1.186-.117 0-.469.131-.791.307-.571.279-.615.279-.88.044-.146-.132-.35-.469-.453-.762l-.19-.498-4.47.103c-2.461.058-4.733.146-5.055.22-1.436.292-4.03.483-4.366.336a5.169 5.169 0 0 0-.557-.234c-.278-.088-.425-1.055-.425-2.755 0-.718.059-1.172.19-1.274.088-.074 5.554-1.568 12.118-3.326 24.499-6.52 36.821-9.876 45.276-12.338a582.056 582.056 0 0 1 7.253-2.051 130.668 130.668 0 0 0 4.469-1.275c1.758-.571 3.824-1.157 6.96-1.963 2.417-.645 5.025-1.407 5.143-1.539.249-.249-.542-1.421-.938-1.406-.132 0-.674.102-1.187.205zm-65.452 57.965c.615.483.483.674-.528.776-.513.059-1.143.132-1.392.19-.38.06-.483.03-.483-.175 0-.147.322-.396.923-.66.498-.234.952-.424.996-.439.059 0 .264.132.484.308zm3.091 1.978c0 .16.074.395.176.513.161.205.557 1.729.997 3.868.16.776.205 1.45.146 2.007-.117.997.088.909-3.004 1.143-1.084.073-2.725.22-3.633.308-.909.088-1.7.117-1.759.058-.058-.058-.132-1.333-.175-2.828-.044-1.509-.118-2.813-.176-2.9-.059-.089-.044-.572.044-1.07.132-.733.22-.909.483-.953.161-.044 1.495-.146 2.945-.234 1.45-.088 2.799-.19 3.004-.205.733-.088.952-.03.952.293zm-8.454 1.494c.044 1.45.132 1.392-2.315 1.641a155.98 155.98 0 0 0-5.275.586c-.6.074-1.86.206-2.784.294-.923.087-1.817.19-1.993.22-.425.087-.79-.924-.512-1.437.16-.307.468-.395 2.842-.82 1.465-.264 2.901-.542 3.18-.616 2.154-.542 3.839-.893 4.938-.996 2.007-.19 1.875-.278 1.919 1.128zm-.132 2.784c.132.235.235 1.055.279 2.096.058 1.553.029 1.714-.206 1.802-.146.058-1.362.161-2.696.234-1.333.088-3.443.25-4.688.367-1.246.131-2.696.22-3.224.19l-.952-.044-.396-.806c-.498-.981-.791-2.623-.513-2.872.088-.088 1.334-.263 2.74-.41 1.407-.146 3.825-.41 5.348-.586 3.883-.469 4.06-.469 4.308.03zm-21.524.748c0 .073-.132.19-.293.234-.47.146-.337.484.293.806.674.337.718.557.234 1.01-.293.28-.688.367-2.813.602-1.363.16-3.165.38-4.015.498-1.45.19-1.582.176-2.27-.088-1.012-.396-1.246-.645-1.246-1.319 0-.483.073-.6.483-.85.63-.395.791-.366 1.055.147.308.586.703.557 1.07-.059.366-.615.454-.63 3.707-.879 3.12-.249 3.795-.264 3.795-.102zm8.103 1.406c.249 1.026.234 2.257-.03 2.696-.102.147-.908.279-2.754.47-1.436.146-2.828.277-3.077.277h-.484v-1.186c0-.645.073-1.32.161-1.495.132-.234.132-.322 0-.366-.249-.088-.19-.396.103-.66.176-.16.762-.293 1.802-.41a74.35 74.35 0 0 0 2.403-.278c1.583-.205 1.583-.205 1.876.952zm-19.766-.132c.043.132.087.367.087.513 0 .264-.087.293-.747.25-.806-.045-1.143-.308-.967-.763.132-.337 1.495-.337 1.627 0zm12.44 2.696c.087.704.073.967-.074 1.055-.102.074-1.143.103-2.315.074-1.802-.059-2.286-.118-3.209-.44-.586-.205-1.113-.425-1.172-.469-.25-.264.66-.483 3.004-.718 1.421-.146 2.754-.322 2.974-.38.6-.191.66-.118.791.878zm21.201.718c0 .586-.278 1.319-.571 1.466-.264.146-.352.16-8.586 1.04-5.598.6-9.832 1.026-10.14 1.026-.264 0-.645-1.011-.6-1.539l.043-.44 1.612-.175c2.095-.235 7.063-.748 9.744-.997 1.172-.117 2.857-.278 3.736-.366.894-.088 2.228-.22 2.99-.293.761-.088 1.406-.176 1.45-.22.147-.146.322.117.322.498zm-29.422.293c2.96 1.187 4.264 1.48 6.462 1.48h1.86v.44c0 .249-.087.674-.204.952-.161.381-.337.528-.777.645-1.201.308-6.945.777-8.66.718-1.699-.059-1.743-.073-3.135-.747-.791-.381-1.48-.689-1.553-.689-.293 0-1.876-.777-2.183-1.07-.22-.19-.337-.469-.337-.79 0-.455.058-.528.674-.792.366-.176 1.26-.366 2.007-.44.747-.073 1.817-.19 2.374-.263.571-.059 1.172-.132 1.348-.147.19 0 1.143.308 2.124.703zm-9.934.542c.235.616.117.792-.542.792-.674 0-.982-.19-.982-.601 0-.41 1.378-.586 1.524-.19z" style="fill:#343a40;stroke-width:.0146524"/><circle style="fill:#f9a825;fill-opacity:1;stroke:none;stroke-width:.951539" cx="131.623" cy="175.096" r="40"/><path d="M288.706 77.244c-3.427 2.874-6.867 5.72-7.627 6.315-.774.594-2.363 1.879-3.537 2.832-2.487 2.031-5.21 4.187-6.508 5.14-.622.456-.995.857-1.16 1.23l-.25.553h-2.956l-.166-1.548a44.184 44.184 0 0 0-.304-2.21l-.152-.664h-.788c-.815 0-2.238.415-3.26.94-.305.152-1.092.718-1.77 1.257-1.229.995-1.713 1.23-2.072 1.023-.11-.056-.898-.733-1.755-1.493-.856-.76-1.727-1.506-1.948-1.658-.22-.152-.4-.345-.4-.428 0-.097-.166-.263-.36-.387-.193-.138-1.133-.94-2.1-1.782-2.902-2.557-3.164-2.764-3.869-2.874-.76-.125-2.93-.166-2.93-.042 0 .042.277.456.609.926.331.47 1.382 2.225 2.321 3.896.954 1.672 2.004 3.482 2.363 4.035.345.539.787 1.285.98 1.658.443.898.581.995 1.59 1.092.857.096 1.133.359.553.539-.373.124-1.424 1.146-1.686 1.671-.11.222-.249.622-.304.899-.083.456-.124.497-1.009.718-.511.138-1.243.276-1.616.318l-.691.069-2.97-2.156c-1.631-1.174-3.096-2.293-3.248-2.473-.152-.166-.4-.36-.539-.414-.152-.056-.995-.553-1.893-1.12l-1.63-1.036h-3.759l.25.429c.137.234.566.815.939 1.27.663.802 1.603 2.018 3.869 5.003a83.78 83.78 0 0 0 1.671 2.086c.387.442.816.981.94 1.188.263.4.926.663 1.741.663l.484.014-.387.318c-.221.18-.47.47-.567.65a.796.796 0 0 1-.566.4c-.401.07-.415.097-.567 1.216-.097.636-.193 1.175-.22 1.188-.015.028-.623.263-1.327.553-1.479.58-3.206 1.7-6.605 4.242-2.321 1.74-2.68 2.128-2.68 2.846 0 .36 0 .36.87.277 1.036-.097 2.611-.636 8.567-2.916 4.739-1.824 7.406-2.763 7.516-2.653.042.028-.083.138-.262.221a21.08 21.08 0 0 0-1.354.954 53.866 53.866 0 0 1-2.156 1.534c-8.276 5.595-13.859 9.423-14.632 10.058l-.415.346 1.12-.083c1.505-.11 2.901-.442 4.393-1.022.677-.277 4.809-2.488 9.189-4.92 4.38-2.431 8.566-4.766 9.299-5.18l1.34-.747 1.838.235c2.735.345 4.366.608 5.292.87 1.395.401 6.3.263 9.672-.262 1.368-.207 2.694-1.12 2.694-1.81 0-.097-.373-.387-.829-.636-.456-.249-.829-.511-.829-.566 0-.07.497-.318 1.105-.567 1.161-.47 1.313-.622 1.493-1.478l.11-.525 2.128-.152c1.175-.07 3.579-.11 5.32-.083l3.192.069.677-.36c.456-.22 1.133-.4 1.934-.497 1.589-.193 7.02-.193 7.71 0 .29.083.94.235 1.437.332l.912.193.373-.373c.207-.207.415-.525.47-.69.069-.208.428-.457 1.091-.76a26.57 26.57 0 0 0 1.797-.954l.801-.484-.87-.69a32.161 32.161 0 0 0-1.866-1.34c-.967-.609-1.008-.65-1.008-1.161 0-.304-.042-.912-.083-1.355l-.083-.815-.705-.235c-.663-.22-.718-.22-1.575.056-.636.207-.94.387-1.064.635l-.18.36-.165-.304c-.18-.346-.816-.415-1.244-.139-.387.235-3.855-1.05-4.035-1.492-.138-.387-.387-.525-1.506-.815-.967-.249-2.21-.83-2.21-1.036 0-.07-.277-.318-.622-.553-.346-.235-.622-.484-.622-.553 0-.055.414-.152.94-.207.51-.042 1.119-.124 1.34-.166l.414-.083-.414-.11c-.221-.056-1.133-.166-2.004-.263-1.727-.18-2.487-.414-2.487-.76 0-.276 1.783-2.542 2.612-3.302.746-.705 5.181-5.444 6.936-7.42a300.68 300.68 0 0 1 2.915-3.22c2.183-2.348 2.294-2.597 1.59-3.564-.222-.304-1.355-.94-1.673-.94-.055 0-2.887 2.35-6.328 5.21zM136.33 128.672c0 .055.317 1.465.69 3.123.567 2.404.663 3.04.525 3.136-.331.221-1.354-.013-2.57-.594-1.685-.801-2.1-.926-3.413-1.091-1.74-.221-1.962-.042-.994.856 1.202 1.133 2.03 1.976 2.03 2.073 0 .055.277.304.623.566l.607.47-.525.207c-.317.125-.608.373-.718.595a1.143 1.143 0 0 1-.677.552c-.428.138-.511.249-.746.967l-.249.802-2.542 1.216c-1.617.787-2.543 1.312-2.543 1.437 0 .428 1.175.18 4.767-1.009 2.363-.787 4.588-1.257 5.25-1.105.47.11-.8 1.174-2.528 2.155-1.312.746-1.99 1.3-1.796 1.479.083.069 5.9.165 5.983.096.138-.138-.249-.442-.567-.442-.442 0-.539-.235-.165-.442.234-.138 1.671-.193 5.775-.262 4.891-.07 5.54-.097 6.273-.346 1.52-.497 1.382-.967-.4-1.45l-1.161-.305.22-.331c.125-.18.512-.484.858-.677.345-.18.787-.456.98-.608.236-.194 1.12-.429 2.86-.76 3.455-.663 4.906-.857 8.457-1.106 1.686-.11 3.178-.262 3.316-.331.124-.07.788-.235 1.479-.36 2.818-.497 3.647-.718 3.647-.967 0-.442-2.017-1.174-4.836-1.74-1.105-.222-2.722-.622-3.606-.899l-1.603-.511-.304.304c-.387.387-.539.373-.65-.055-.151-.594-.552-.608-2.956-.083-.65.138-1.202.235-1.216.207-.11-.083.884-1.769 1.257-2.155.553-.553 1.078-.788 2.004-.926.58-.083 0-.125-2.183-.138l-2.971-.014-1.45.898c-1.52.953-1.99 1.368-1.88 1.686.041.11-.07.207-.304.262-.207.055-.622.263-.926.47-.912.622-1.976 1.105-2.597 1.188l-.594.083-2.474-2.93c-1.7-2.016-2.611-2.997-2.929-3.122-.484-.207-2.529-.262-2.529-.069z" style="fill:#343a40;stroke:none;stroke-width:.0138173"/><path d="M288.44 77.288c-3.426 2.874-6.867 5.72-7.627 6.314-.774.594-2.363 1.88-3.537 2.833-2.487 2.03-5.21 4.186-6.508 5.14-.622.456-.995.856-1.16 1.23l-.25.552h-2.956l-.166-1.547a44.184 44.184 0 0 0-.304-2.211l-.152-.663h-.788c-.815 0-2.238.414-3.26.94-.305.151-1.092.718-1.77 1.257-1.229.994-1.712 1.23-2.072 1.022-.11-.055-.898-.732-1.755-1.492-.856-.76-1.727-1.506-1.948-1.658-.22-.152-.4-.346-.4-.429 0-.096-.166-.262-.36-.387-.193-.138-1.133-.94-2.1-1.782-2.902-2.556-3.164-2.763-3.869-2.874-.76-.124-2.929-.166-2.929-.041 0 .041.276.456.608.925.332.47 1.382 2.225 2.321 3.897.954 1.672 2.004 3.482 2.363 4.034.345.54.788 1.285.981 1.659.442.898.58.994 1.589 1.091.857.097 1.133.36.553.539-.373.124-1.423 1.147-1.686 1.672-.11.22-.249.622-.304.898-.083.456-.124.497-1.009.718-.51.139-1.243.277-1.616.318l-.691.07-2.97-2.156c-1.631-1.175-3.096-2.294-3.248-2.473-.152-.166-.4-.36-.539-.415-.152-.055-.995-.553-1.893-1.12l-1.63-1.035H233.6l.248.428c.138.235.567.815.94 1.271.663.801 1.603 2.017 3.869 5.002a83.78 83.78 0 0 0 1.672 2.086c.386.442.815.981.94 1.189.262.4.925.663 1.74.663l.484.014-.387.317c-.221.18-.47.47-.567.65a.796.796 0 0 1-.566.4c-.4.07-.415.097-.567 1.216-.096.636-.193 1.175-.22 1.189-.015.027-.623.262-1.327.552-1.479.58-3.206 1.7-6.605 4.242-2.321 1.741-2.68 2.128-2.68 2.847 0 .359 0 .359.87.276 1.036-.097 2.611-.636 8.567-2.915 4.739-1.824 7.406-2.764 7.516-2.653.042.027-.083.138-.262.22a21.51 21.51 0 0 0-1.354.954 53.866 53.866 0 0 1-2.156 1.534c-8.276 5.596-13.859 9.423-14.632 10.059l-.415.345 1.12-.083c1.505-.11 2.901-.442 4.393-1.022.677-.276 4.809-2.487 9.189-4.919 4.38-2.432 8.566-4.767 9.299-5.181l1.34-.747 1.838.235c2.736.346 4.366.608 5.292.87 1.395.401 6.3.263 9.672-.262 1.368-.207 2.694-1.119 2.694-1.81 0-.097-.373-.387-.829-.635-.456-.25-.829-.512-.829-.567 0-.069.498-.318 1.106-.566 1.16-.47 1.312-.622 1.492-1.479l.11-.525 2.128-.152c1.175-.069 3.579-.11 5.32-.083l3.192.07.677-.36c.456-.221 1.133-.4 1.934-.497 1.59-.194 7.02-.194 7.71 0 .29.082.94.234 1.437.331l.912.194.373-.373c.207-.208.415-.525.47-.691.069-.208.428-.456 1.091-.76a26.57 26.57 0 0 0 1.797-.954l.801-.483-.87-.691a32.161 32.161 0 0 0-1.866-1.34c-.967-.608-1.008-.65-1.008-1.161 0-.304-.042-.912-.083-1.354l-.083-.815-.705-.235c-.663-.221-.718-.221-1.575.055-.636.207-.94.387-1.064.636l-.18.359-.165-.304c-.18-.346-.816-.415-1.244-.138-.387.235-3.855-1.05-4.035-1.493-.138-.386-.386-.525-1.506-.815-.967-.248-2.21-.829-2.21-1.036 0-.07-.277-.318-.622-.553-.346-.235-.622-.483-.622-.552 0-.056.415-.152.94-.208.51-.041 1.119-.124 1.34-.165l.414-.083-.414-.11c-.221-.056-1.133-.167-2.004-.263-1.727-.18-2.487-.415-2.487-.76 0-.277 1.783-2.543 2.612-3.303.746-.704 5.181-5.444 6.936-7.42a300.68 300.68 0 0 1 2.915-3.219c2.184-2.349 2.294-2.598 1.59-3.565-.222-.304-1.355-.94-1.672-.94-.056 0-2.888 2.35-6.329 5.21zm-152.377 51.427c0 .056.318 1.465.691 3.123.567 2.404.664 3.04.525 3.137-.331.22-1.354-.014-2.57-.594-1.685-.802-2.1-.926-3.412-1.092-1.741-.221-1.963-.041-.995.857 1.202 1.133 2.03 1.976 2.03 2.072 0 .056.277.304.623.567l.608.47-.525.207c-.318.124-.608.373-.719.594a1.143 1.143 0 0 1-.677.553c-.428.138-.511.248-.746.967l-.249.801-2.542 1.216c-1.617.788-2.543 1.313-2.543 1.437 0 .429 1.175.18 4.767-1.008 2.363-.788 4.588-1.258 5.25-1.106.47.11-.8 1.175-2.528 2.156-1.312.746-1.99 1.298-1.796 1.478.083.07 5.9.166 5.983.097.138-.138-.249-.442-.567-.442-.442 0-.538-.235-.165-.443.235-.138 1.672-.193 5.775-.262 4.892-.07 5.541-.097 6.273-.345 1.52-.498 1.382-.968-.4-1.451l-1.161-.304.221-.332c.124-.18.511-.483.857-.677.345-.18.787-.456.98-.608.236-.193 1.12-.428 2.86-.76 3.455-.663 4.906-.857 8.457-1.105 1.686-.11 3.178-.263 3.316-.332.125-.069.788-.235 1.479-.36 2.818-.497 3.647-.718 3.647-.966 0-.442-2.017-1.175-4.836-1.741-1.105-.221-2.722-.622-3.606-.898l-1.603-.512-.304.304c-.387.387-.539.373-.65-.055-.151-.594-.552-.608-2.956-.083-.65.138-1.202.235-1.216.207-.11-.082.884-1.768 1.257-2.155.553-.553 1.078-.788 2.004-.926.58-.083 0-.124-2.183-.138l-2.97-.014-1.452.898c-1.52.954-1.99 1.368-1.879 1.686.042.11-.069.207-.304.263-.207.055-.622.262-.926.47-.912.621-1.975 1.105-2.597 1.188l-.594.083-2.474-2.93c-1.7-2.017-2.611-2.998-2.929-3.122-.484-.208-2.529-.263-2.529-.07z" style="fill:#343a40;stroke:#dee2e6;stroke-width:1;stroke-miterlimit:4;stroke-dasharray:none"/><path d="M197.294 198.917c-.457.073-.734.191-.941.405-.142.145-.145.119 0-.069a.877.877 0 0 1 .194-.187l.115-.08-.095-.026a5.14 5.14 0 0 0-.655-.023c-.622 0-.925.043-1.442.214-.19.063-.402.106-.566.115-.468.03-1.465.221-2.416.458-1.333.336-2.189.645-3.278 1.192-2.08 1.04-3.796 2.603-4.954 4.515-.935 1.547-1.508 3.378-1.731 5.514-.073.7-.096 1.896-.05 2.439.28 3.209 2.084 6.886 5.421 11.06 1.906 2.376 4.381 4.953 6.79 7.06.389.338.593.546.85.872.415.52.71.954.918 1.35.086.16.181.325.21.361.047.053 1.35 2.229 1.791 2.982l.09.155-.083.28c-.066.224-.25 1.083-.25 1.158 0 .01-.076.017-.165.017h-.164l.007 1.11.01 1.112.757.036c.418.02 1.066.05 1.445.062l.688.023-.02-.556a103.59 103.59 0 0 1-.043-1.152l-.023-.602h-.385l-.003-.586c0-.32-.013-.665-.026-.764l-.027-.18.939-1.482c.523-.83 1.05-1.698 1.191-1.975.138-.273.346-.642.458-.823.48-.76.605-.911 1.441-1.734 2.7-2.657 3.647-3.667 4.921-5.234 3.41-4.19 5.45-8.08 6.096-11.612.164-.892.2-1.327.197-2.387 0-1.056-.042-1.566-.194-2.478-.619-3.647-2.66-6.481-6.023-8.354a24.87 24.87 0 0 0-2.238-1.05c-1.004-.388-2.163-.671-3.095-.757a7.358 7.358 0 0 1-.625-.099 9.547 9.547 0 0 0-1.613-.18c-.18 0-.516-.017-.747-.037a3.3 3.3 0 0 0-.79.003c-.47.05-.434.053-.668-.013-.234-.07-.928-.095-1.218-.053zm-3.535.547a4.348 4.348 0 0 0-.862.596c-.1.085-.214.187-.26.223l-.083.066.066-.079a7.29 7.29 0 0 1 .757-.632c.181-.121.573-.326.626-.326.02 0-.093.07-.244.152zm9.954.069c.589.204 1.507.652 1.744.85.063.052.063.052-.02.006a9.854 9.854 0 0 0-1.79-.836c-.27-.095-.441-.164-.379-.155.063.014.264.073.445.135zm-6.722 35.98.691 1.425-.056.121c-.052.112-.062.116-.095.056-.02-.036-.428-.724-.905-1.53a336.19 336.19 0 0 1-.886-1.491c-.01-.014.116-.02.274-.017l.286.01zm.385-.218c.22.675.418 1.29.445 1.366.043.132.04.138-.03.188l-.076.05-.671-1.383c-.369-.764-.675-1.4-.681-1.416-.007-.016.125-.03.302-.03h.313zm.297-1.168c0 .033.098.632.22 1.336.119.701.21 1.28.204 1.287a.39.39 0 0 1-.098.03l-.083.02-.434-1.34c-.24-.738-.435-1.35-.435-1.366 0-.013.142-.023.313-.023.276 0 .313.007.313.056zm1.316-.01c0 .026-.066.47-.148.987-.082.52-.148.951-.148.958 0 .01-.06.016-.132.016h-.131v-.987c0-.635-.014-.987-.033-.987-.02 0-.033.46-.033 1.316v1.317h-.099c-.072 0-.102-.017-.115-.076a202.47 202.47 0 0 1-.444-2.57c0-.014.29-.02.641-.02.527 0 .642.007.642.046zm2.166-.02c-.023.066-1.886 2.998-1.902 2.998-.01 0-.047-.046-.086-.105l-.066-.109.668-1.362c.369-.747.662-1.366.652-1.376-.01-.01-.32.599-.691 1.35-.6 1.217-.682 1.369-.74 1.352a.09.09 0 0 1-.067-.089c0-.04.191-.645.425-1.346.234-.701.415-1.274.402-1.274-.014 0-.201.53-.415 1.175a29.876 29.876 0 0 1-.412 1.205c-.013.013-.02-.076-.02-.197.004-.218 0-.224-.082-.234l-.082-.01.142-.912c.079-.5.144-.951.148-1.004l.007-.089h1.066c.586 0 1.06.014 1.053.027zm-2.344 2.982c.191.062.218.171.237.964l.014.669h-.198l-.023-.613c-.023-.595-.026-.612-.102-.661-.095-.063-.286-.04-.378.043-.09.079-.08.217.02.309.045.043.082.092.082.109 0 .02-.066.105-.148.19-.162.175-.172.208-.1.376.04.102.04.141-.01.345l-.055.227-.21-.174c-.27-.224-.29-.26-.188-.356a.535.535 0 0 0 .118-.17c.043-.12-.026-.241-.168-.29a.888.888 0 0 1-.095-.037l.079-.302c.089-.33.194-.59.25-.626.135-.085.639-.085.876-.003z" style="fill:#343a40;stroke:#dee2e6;stroke-width:2;stroke-miterlimit:4;stroke-dasharray:none"/><path d="M197.301 198.908c-.458.073-.734.191-.941.405-.142.145-.145.118 0-.07a.877.877 0 0 1 .194-.187l.115-.079-.095-.026a5.14 5.14 0 0 0-.655-.023c-.623 0-.925.043-1.442.214a2.442 2.442 0 0 1-.566.115c-.468.03-1.465.22-2.416.458-1.333.335-2.189.645-3.279 1.191-2.08 1.04-3.795 2.604-4.953 4.516-.935 1.547-1.508 3.377-1.732 5.513-.072.701-.095 1.896-.049 2.44.28 3.209 2.084 6.885 5.421 11.059 1.906 2.376 4.381 4.953 6.79 7.06.389.34.593.546.85.872.414.52.71.955.918 1.35.086.161.181.326.21.362.047.053 1.35 2.228 1.791 2.982l.09.155-.083.28c-.066.223-.25 1.082-.25 1.158 0 .01-.076.017-.165.017h-.164l.007 1.109.01 1.112.757.037c.418.02 1.066.049 1.445.062l.688.023-.02-.556a103.59 103.59 0 0 1-.043-1.152l-.023-.603h-.385l-.003-.585c0-.32-.013-.665-.026-.764l-.027-.181.938-1.481c.524-.83 1.05-1.699 1.192-1.975.138-.273.346-.642.457-.823.481-.76.606-.912 1.442-1.735 2.7-2.656 3.647-3.666 4.92-5.233 3.41-4.19 5.452-8.08 6.097-11.613.164-.892.2-1.326.197-2.386 0-1.057-.043-1.567-.194-2.478-.619-3.647-2.66-6.481-6.023-8.354a24.87 24.87 0 0 0-2.239-1.05c-1.004-.389-2.162-.672-3.094-.757a7.358 7.358 0 0 1-.625-.099 9.547 9.547 0 0 0-1.613-.181c-.18 0-.517-.017-.747-.036a3.3 3.3 0 0 0-.79.003c-.47.05-.434.052-.668-.013-.234-.07-.928-.096-1.218-.053zm-3.535.547a4.348 4.348 0 0 0-.862.595c-.1.086-.214.188-.26.224l-.083.066.066-.08c.092-.104.56-.496.757-.631.181-.122.573-.326.625-.326.02 0-.092.07-.243.151zm9.953.069c.59.204 1.508.651 1.745.849.062.052.062.052-.02.007a9.854 9.854 0 0 0-1.79-.836c-.27-.096-.441-.165-.379-.155.063.013.263.072.444.135zM197 235.503l.69 1.425-.056.122c-.052.112-.062.115-.095.056-.02-.036-.428-.724-.905-1.53a336.19 336.19 0 0 1-.886-1.492c-.01-.013.116-.02.274-.016l.286.01zm.384-.217c.22.674.418 1.29.445 1.366.042.131.04.138-.03.187l-.076.05-.671-1.383c-.369-.763-.675-1.399-.681-1.415-.007-.017.125-.03.302-.03h.313zm.296-1.169c0 .033.1.632.221 1.337.119.7.21 1.28.204 1.287a.39.39 0 0 1-.099.03l-.082.019-.434-1.34c-.24-.737-.435-1.35-.435-1.366 0-.013.142-.023.313-.023.276 0 .312.007.312.056zm1.317-.01c0 .027-.066.47-.148.988-.082.52-.148.95-.148.958 0 .01-.06.016-.132.016h-.131v-.987c0-.636-.014-.988-.033-.988-.02 0-.033.46-.033 1.317v1.316h-.099c-.072 0-.102-.016-.115-.075-.02-.08-.445-2.541-.445-2.571 0-.013.29-.02.642-.02.527 0 .642.007.642.046zm2.166-.02c-.023.066-1.886 3-1.903 3-.01 0-.046-.047-.085-.106l-.066-.109.668-1.363c.369-.747.662-1.365.652-1.375-.01-.01-.32.599-.691 1.35-.6 1.217-.682 1.368-.74 1.352a.09.09 0 0 1-.067-.089c0-.04.191-.645.425-1.346.234-.701.415-1.274.401-1.274-.013 0-.2.53-.414 1.175a29.876 29.876 0 0 1-.412 1.205c-.013.013-.02-.076-.02-.198.003-.217 0-.224-.082-.233l-.082-.01.141-.912c.08-.5.145-.951.149-1.004l.007-.089h1.066c.586 0 1.06.013 1.053.026zm-2.344 2.983c.191.062.218.17.237.964l.014.668h-.198l-.023-.612c-.023-.596-.026-.612-.102-.662-.095-.062-.286-.04-.378.043-.09.08-.08.217.02.31.045.042.082.092.082.108 0 .02-.066.106-.149.191-.16.175-.17.208-.098.375.04.102.04.142-.01.346l-.056.227-.21-.174c-.27-.224-.29-.26-.189-.356a.535.535 0 0 0 .119-.171c.043-.118-.026-.24-.168-.29a.752.752 0 0 1-.095-.036l.079-.303c.089-.329.194-.589.25-.625.135-.086.638-.086.875-.003z" style="fill:#343a40;stroke:none;stroke-width:.0032915"/></svg>