<svg xml:space="preserve" width="1024" height="1024" xmlns="http://www.w3.org/2000/svg"><path d="M520.302 181.889c38.435-6.36 65.417-10.965 65.417-10.965-13.892 3.33-37.09 7.08-65.417 10.965m-22.836-37.775c-.524.539-1.125 1.039-1.615 1.648-.505.593-1.026 1.189-1.442 1.854l-.65.975-.534 1.021c-.379.666-.647 1.354-.876 2.023a10.017 10.017 0 0 0-.576 1.916c-.087.405-.175.784-.247 1.145h-.003c-.036.18-.075.361-.098.529-.047.505-.085.946-.119 1.307-.023.307-.044.542-.06.733l-34.89 3.954-.099-.694c-.054-.366-.116-.807-.19-1.313-.08-.407-.086-.859-.104-1.338h.008c-.008-.127-.013-.238-.023-.372-.005-.627-.108-1.323-.031-2.037.057-.717.054-1.496.16-2.28.14-.777.22-1.607.415-2.425.235-.8.369-1.666.691-2.466a24.998 24.998 0 0 1 2.113-4.655c.054-.09.11-.165.165-.253 13.492-1.694 27.097-2.561 40.377-2.081.439.018.875.072 1.31.118-.639.382-1.3.805-1.975 1.308-.578.408-1.125.903-1.707 1.383" style="fill:#555;fill-opacity:1;fill-rule:nonzero;stroke:none;stroke-width:.257921" transform="translate(-.002 264.153) scale(1.03102)"/><path d="M316.96 225.88c.938-1.52 2.344-2.708 3.956-3.59l.97-.109c5.47-.707 10.987-1.387 16.527-2.084 6.949 6.242 14.18 12.161 21.516 17.96 3.82 3.038 7.766 5.916 11.715 8.797 2.007 1.395 3.977 2.842 6.015 4.196 2.037 1.357 4.065 2.726 6.156 4.01 2.058 1.332 4.181 2.57 6.309 3.803 2.118 1.235 4.343 2.365 6.507 3.49l13.051 6.535c8.488 4.344 16.995 8.692 25.367 13.206l7.237 14.802 3.768 7.642.47.954.356.875.4.99.172.794c.18.516.121 1.07.178 1.612-.088.5-.116 1.014-.35 1.442-.733 1.79-3.13 2.99-5.605 3.498-.305.067-.627.12-.921.16l-1.07.139-2.113.284-4.23.567-16.909 2.288a4142.756 4142.756 0 0 0-33.793 4.802l-16.876 2.559c-.598.09-1.194.19-1.792.281l-12.945 1.566c-.439-1.001-.877-2-1.298-3.01-2.447-5.84-4.67-11.803-6.933-17.75-2.24-5.956-4.384-11.953-6.548-17.947l-12.87-36.021-3.266-9.001c-1.062-2.99-2.275-6.007-3.373-8.95-.225-.73-.552-1.45-.64-2.206l-.214-1.124c-.044-.377-.026-.753-.046-1.132-.037-1.51.299-3.041 1.122-4.328zm162.8 63.198a514.058 514.058 0 0 0-21.676-5.555c-11.679-2.734-19.876-4.259-21.178-4.499a783.471 783.471 0 0 0-25.746-13.105l-13.182-6.34c-2.18-1.075-4.333-2.083-6.453-3.247-2.118-1.155-4.236-2.313-6.304-3.574-2.094-1.21-4.137-2.512-6.19-3.802-2.061-1.277-4.075-2.63-6.115-3.944a556.745 556.745 0 0 1-12.002-8.276c-3.982-2.794-7.905-5.675-11.805-8.587a908.233 908.233 0 0 1-10.58-8.067c4.455-.56 8.92-1.127 13.4-1.762 2.339-.32 4.694-.645 7.04-.967L345 219.576c28.984 23.685 66.463 50.527 104.444 53.663l54.386 4.488c.802.067 1.614.129 2.419.114l27.435 3.94-20.848-7.456c.15-.16.307-.317.457-.477 16.148-17.294 34.876-38.678 55.26-51.308.097.221.262.472.533.76.016.029.042.06.057.088a105.54 105.54 0 0 0-2.592 4.135 124.539 124.539 0 0 0-6.226 11.87 147.014 147.014 0 0 0-3.498 8.263c-1.137 2.95-2.316 6.167-3.28 9.479-.253.828-.511 1.66-.77 2.501-.236.852-.435 1.731-.657 2.603-.433 1.754-.897 3.528-1.197 5.339-.332 1.805-.724 3.621-.92 5.473-.232 1.847-.532 3.696-.625 5.566-.126 1.867-.317 3.735-.304 5.602-.026 1.867-.1 3.73.02 5.576.073 1.847.12 3.683.341 5.486.173 1.808.33 3.598.65 5.337.271 1.748.526 3.469.934 5.127.371 1.664.696 3.304 1.186 4.857.836 3.146 1.89 6.05 2.923 8.707l1.624 3.766c.436.861.839 1.656 1.244 2.45a82.652 82.652 0 0 0-3.361-2.79 109.3 109.3 0 0 0-7.209-5.267 125.606 125.606 0 0 0-5.218-3.348 98.026 98.026 0 0 0-8.715-4.952c-.224-.116-.459-.232-.683-.348-.132-.065-.253-.13-.385-.194a200.11 200.11 0 0 0-4.423-2.234 201.293 201.293 0 0 0-11.552-5.088 264.535 264.535 0 0 0-12.213-4.57 188.072 188.072 0 0 0-6.193-2.103c-2.066-.68-4.124-1.362-6.182-1.978-4.101-1.287-8.163-2.46-12.102-3.575zm103.658-14.211c1.008-3.797 2.174-7.601 3.407-11.558 1.24-3.89 2.587-7.843 4.052-11.735a222.192 222.192 0 0 1 4.555-11.555c1.612-3.768 3.234-7.462 4.926-10.982 1.718-3.508 3.371-6.905 5.074-10.06a170.35 170.35 0 0 1 2.501-4.582 139.236 139.236 0 0 1 2.407-4.251c.774-1.364 1.56-2.641 2.298-3.866.727-1.23 1.418-2.399 2.107-3.474a179.22 179.22 0 0 1 3.5-5.44l33.29 4.222 12.94 1.643c5.62 1.419 15.983 4.13 18.722 5.496 3.155 1.574 7.931 5.582 9.492 6.923-.116.01-.224.013-.343.026-4.305.43-9.156 1.42-14.147 3.368-4.986 1.927-10.198 4.594-15.176 8.187a81.207 81.207 0 0 0-14.258 12.95c-4.426 5.019-8.419 10.714-11.82 16.86-3.395 6.154-6.175 12.757-8.357 19.548-2.064 6.768-3.56 13.868-4.266 20.825-.712 6.99-.668 13.945.11 20.595a81.13 81.13 0 0 0 4.341 18.763c2.046 5.79 4.808 10.952 7.813 15.375 1.12 1.661 2.308 3.162 3.518 4.586-7.918-7.694-24.299-30.636-12.821-82.19l-23.136-6.249a96.417 96.417 0 0 0-4.217 13.208 1373.485 1373.485 0 0 0-5.666 24.32s1.56-9.058 3.438-18.313c.32-1.413.696-3.025 1.142-4.836 1.517-6.21 3.836-14.42 6.737-22.428a195.28 195.28 0 0 1 4.53-11.658c1.565-3.676 3.084-7.08 4.49-9.954 2.767-5.764 4.838-9.501 4.838-9.501l-1.514 2.514c-.941 1.615-2.303 3.913-3.78 6.758-1.476 2.847-3.153 6.195-4.757 9.87a193.785 193.785 0 0 0-4.663 11.666 205.595 205.595 0 0 0-2.551 7.787l-13.29-3.554c-2.345 7.124-5.528 17.59-8.084 28.902-4.635 20.523-4.802 26.04-4.802 26.04s-.031-3.866.268-9.546c.487-3.551 1.28-8.305 2.334-13.876a288.184 288.184 0 0 1 4.818-20.824zm-15.553 56.474c2.515-.725 12.1-3.105 20.56.003 9.831 3.611 13.117 13.438 13.117 13.438l40.973 14.611a55.982 55.982 0 0 0 3.779 3.58 52.325 52.325 0 0 0 4.45 3.371l-51.68-19.21c-2.273-3.495-11.584-15.571-31.199-15.793zm90.673 16.953a193.803 193.803 0 0 1-1.698-2.44c-2.499-3.858-4.578-8.274-6.154-13.205-4.83-15.104-4.472-33.081 1.009-50.62 5.483-17.538 15.429-32.521 28.002-42.18 12.479-9.59 26.045-12.78 38.206-8.978.044.015.085.033.13.046l-1.128 5.331c-22.565-5.197-48.12 14.89-57.875 46.093-8.207 26.251-2.742 52.41 12.006 65.161l-5.627 8.014c-2.518-2.043-4.816-4.46-6.871-7.222zm-.795 21.351 3.023-4.075c.59.374 1.171.727 1.728 1.037a38.363 38.363 0 0 0 6.038 2.767l2.231.735s-.763-.289-2.195-.825c-1.416-.575-3.459-1.511-5.893-2.982a35.34 35.34 0 0 1-1.659-1.067l5.102-6.874a36.852 36.852 0 0 0 4.975 3.013 36.1 36.1 0 0 0 5.342 2.148c3.538 1.107 7.188 1.633 10.89 1.63l-2.209 6.36c-2.022.165-3.897.189-5.537.075-2.84-.178-5.048-.57-6.541-.905l-2.275-.573 2.25.666c1.477.392 3.682.908 6.54 1.163 1.591.16 3.41.201 5.375.113l-3.76 10.843-4.37-9.795 4 10.86-.443 1.275c-2.824 1.53-4.83 3.879-6.172 6.267-.17.307-.302.612-.454.919a181.65 181.65 0 0 1-2.53-7.648l-.005-.015-.003-.005c-1.168-2.711-2.577-5.306-4.32-7.676-.88-1.174-1.819-2.316-2.928-3.283a13.39 13.39 0 0 0-1.372-1.068 13.384 13.384 0 0 0-1.952-1.272c.56.207 1.08.39 1.53.537l2.413.74-2.347-.926c-1.145-.467-2.664-1.184-4.472-2.159zm14.552 20.438c.33 1.07.65 2.146 1 3.208a23.446 23.446 0 0 0-1.743 5.899c-.353 2.399-.43 4.524-.268 6.255.126 1.733.338 3.087.552 3.99l.046.224-2.667 7.686c-1.15-2.956-1.988-5.912-2.494-8.733-.025-.14-.038-.274-.062-.413-.128-3.061-.203-8.772.839-11.903 1.264-3.807 4.05-5.746 4.797-6.213zm.882 19.76c.119.311 3.407 8.851 5.886 11.737 2.528 2.943 5.218 4.284 7.828 5.375 2.607 1.091 8.155.078 11.348-2.533 4.94-4.036 6.286-10.845 5.798-16.912-.082-1.05-.178-2.102-.392-3.13-.221-1.056-.567-2.082-.91-3.103-.15-.447-.289-.903-.43-1.362-.434-1.427-.878-2.876-1.693-4.09-.15-.228-2.28-2.317-2.233-2.436-.005.016-3.59 9.164-4.434 11.318-.07-.096-.134-.209-.206-.302-1.13-1.457-2.492-2.295-3.498-2.69a5.795 5.795 0 0 0-1.078-.302c-1.248-2.922-2.502-5.615-3.533-7.941-1.045-2.355-2.017-4.274-2.65-5.636-.404-.817-.69-1.393-.863-1.74l.2-.537.034-.013-.015-.034.11-.296c2.859-.926 6.108-.802 9.074.397 3.322 1.336 6.26 3.802 8.543 6.804a25.196 25.196 0 0 1 2.92 4.895c.843 1.731 1.37 3.518 1.903 5.47.885 3.666 1.197 7.638.539 11.352-.624 3.72-2.071 7.273-4.395 10-1.125 1.392-2.577 2.463-4.06 3.278-.384.18-.737.394-1.142.552l-1.249.428c-.773.196-1.622.413-2.437.454-3.317.325-6.471-.712-8.991-2.203-.95-.55-1.785-1.181-2.572-1.839-3.36-3.02-5.545-6.662-6.811-9.308-.599-1.362-1.006-2.494-1.228-3.3-.041-.14-.075-.252-.108-.37zm7.988 24.628c.338.22.67.446 1.024.647 8.666 4.952 18.085 6.709 26.068-.025 7.983-6.735 10.077-15.569 11.416-22.886 1.338-7.317-1.538-23.88-9.871-32.872-1.854-2.001-3.632-3.562-5.285-4.81 3.536 2.559 7.457 6.574 10.621 12.117 1.986 3.492 3.632 7.475 4.751 11.96 1.068 4.42 1.597 9.27 1.318 14.224-.258 4.957-1.516 10.03-3.835 14.653-.513 1.191-1.305 2.228-1.952 3.353-.818 1-1.502 2.128-2.453 3.015-1.71 1.955-3.882 3.477-6.12 4.689l-1.708.82c-.609.24-1.272.423-1.906.637l-.903.289-.952.173c-.637.1-1.266.26-1.906.314-2.571.233-5.153-.012-7.645-.624-3.953-1.096-7.577-3.126-10.662-5.674zm-3.397-46.593a14.008 14.008 0 0 1 2.216-1.571l-1.272 3.667zm-5.873 21.742a12.653 12.653 0 0 1-.036-.188c-.198-.908-.387-2.265-.485-3.993-.131-1.728-.018-3.843.37-6.216.309-1.735.827-3.634 1.701-5.509a164.542 164.542 0 0 0 2 5.677zm20.221-1.191-.972-2.358c-.441-1.04-.867-2.042-1.297-3.05.763.412 1.725 1.173 2.53 2.385a10.89 10.89 0 0 1 1.117 2.213c.296.766.585 1.767.706 2.693.093.665.085 1.364.024 2.065l-1.409-.572c.02-.199.07-.39.075-.59a4.347 4.347 0 0 0-.07-.852c-.064-.343-.077-.358-.211-.748zm-9.973 2.009c.003.01.003.015.005.026.008.054.023.124.033.18a34.042 34.042 0 0 1-2.076-3.188c-1.261-2.215-2.285-4.1-2.94-5.452-.24-.48-.431-.856-.594-1.179l.047-.124c.699 1.507 3.304 6.967 5.524 9.737zm-2.035-19.006 1.973-5.244.572 1.78c.498 1.418 1.14 3.471 2.03 5.886.895 2.414 1.883 5.253 3.04 8.253a2045.29 2045.29 0 0 1 1.793 4.625c.315.784.63 1.573.947 2.367l.475 1.192c.003.013.134.41.12.49 0 .121.027.232.014.43-.003 1.411-.676 3-1.762 3.472-1.07.542-2.618-.051-3.858-.822-.681-.356-1.197-.865-1.697-1.342-.521-.508-.975-1.086-1.416-1.648-.047-.06-.08-.118-.127-.18-.008-.065-.026-.145-.03-.207.252.312.5.601.74.833 2.695 2.605 3.03 1.932 4.88 1.594 1.849-.338 1.678-2.945 1.678-2.945zm10.639-28.258 2.901-7.71c8.107-.309 16.44-3.53 24.258-9.504 11.243-8.586 20.107-21.872 24.964-37.409 6.255-20.007 4.565-39.952-3.12-53.957l1.294-2.453a58.669 58.669 0 0 1 3.15 7.87c4.833 15.103 4.472 33.08-1.01 50.617-5.485 17.54-15.428 32.52-28.002 42.183-7.92 6.086-16.277 9.584-24.435 10.363zm54.171-52.002c5.594-17.892 5.953-36.259 1.011-51.716a60.121 60.121 0 0 0-3.843-9.285l1.336-2.528a66.237 66.237 0 0 1 3.503 9.652c1.526 5.349 2.421 11.175 2.852 17.224.403 6.056.158 12.351-.619 18.678a113.363 113.363 0 0 1-4.173 18.846c-.201.638-.428 1.267-.64 1.899l-.196-.449c.26-.771.527-1.54.769-2.321zm8.524-43.272c-.993-5.047-3.28-15.194-6.561-21.036l37.02-67.782-.19-.291a315.86 315.86 0 0 1 7.733 9.071c.542.66 1.076 1.331 1.612 1.996l-1.55 2.384c-1.093 1.75-2.718 4.217-4.552 7.242-1.834 3.025-4.026 6.523-6.275 10.327l-.854 1.437-.217.364-.082.134-.119.175-.48.707c-.631.949-1.268 1.91-1.913 2.878-1.254 1.958-2.53 3.946-3.805 5.932-2.489 4.019-4.92 8.073-7.018 11.991-1.057 1.955-2.027 3.871-2.852 5.75-.439.915-.797 1.882-1.16 2.79-.297.892-.612 1.803-.78 2.693-.792 3.518-.67 6.564-.374 8.614.317 2.066.841 3.147.841 3.147s-.371-1.138-.49-3.183c-.03-.43-.034-.918-.028-1.424a37.21 37.21 0 0 0 .598 4.457s4.287-9.858 10.975-16.94c6.687-7.08 24.873-15.058 24.873-15.058a2.554 2.554 0 0 0-.325-.067c.372-.008.73-.018 1.104-.023 4.07-.039 8.483.023 13.123.433 4.64.42 9.51 1.128 14.48 2.172 2.486.521 4.996 1.127 7.51 1.834 1.223.377 2.585.678 3.686 1.22a7.77 7.77 0 0 1 1.698 1.17c-.222 1.41-1.52 7.076-8.538 11.8-2.205 1.486-9.197 4.1-18.175 7.11a84.027 84.027 0 0 0-.279-3.086c-.27-2.863-.557-5.104-.774-6.628l-.312-2.342s.096.815.271 2.347c.194 1.527.441 3.77.663 6.636.095.967.162 2.033.23 3.14-19.811 6.63-49.184 15.168-58.714 17.91zm30.412-43.075c-4.955.451-9.683.975-11.336 1.163.034-.057.067-.113.103-.168 1.21-.131 3.364-.353 6.306-.608 1.45-.124 3.114-.258 4.927-.387zm-64.272 4.71 1.411-5.897a42.363 42.363 0 0 1 4.145 2.213c2.443 1.455 5.213 3.56 7.985 6.371 2.778 2.809 5.476 6.396 7.88 10.608a53.936 53.936 0 0 1 1.746 3.307l-1.35 2.724c-5.227-9.471-12.735-16.154-21.817-19.327zm-1.668 6.976 1.243-5.192c1.3.465 2.576.978 3.807 1.592 7.211 3.598 13.174 9.747 17.446 17.951l-.01.02c-.429.867-.857 1.734-1.288 2.6-4.702-8.031-11.441-13.969-19.852-16.602-.446-.14-.898-.25-1.346-.369zm-39.106 18.08c9.161-9.909 20.355-15.7 31.218-15.534l-2.997 28.74c-.541.054-1.114.145-1.717.302-1.295.281-2.68.874-4.101 1.669-1.385.848-2.83 1.872-4.179 3.151-1.382 1.246-2.69 2.716-3.892 4.344a41.002 41.002 0 0 0-3.317 5.272c-.954 1.89-1.846 3.856-2.566 5.883a49.163 49.163 0 0 0-1.749 6.167 41.265 41.265 0 0 0-.856 6.162c-.116 1.279-.1 2.52-.049 3.74-2.208-16.072 7.753-28.65 7.753-28.65zm9.148 108.735c-3.737.072-7.42-.426-10.98-1.537-3.507-1.099-6.773-2.76-9.767-4.898l5.8-7.818a32.562 32.562 0 0 0 4.924 3.044 31.69 31.69 0 0 0 4.71 1.898c2.626.82 5.32 1.282 8.05 1.419zm8.775-11.81c-.558.08-1.115.15-1.672.198l9.043-24.017c.077.018.147.033.232.051l.018.005v-.003c.127.026.276.05.42.073zm-.4-33.868c.08.304.16.609.258.903.474 1.687 1.222 3.177 1.978 4.46.438.61.854 1.19 1.282 1.696.402.395.766.764 1.127 1.089l-9.032 26.037a28.825 28.825 0 0 1-8.218-1.292c-3.113-.973-5.968-2.466-8.555-4.382zm20.737-77.598c.368.1.74.188 1.106.304a28.702 28.702 0 0 1 4.215 1.695c5.713 2.85 10.383 7.567 13.832 13.574l-8.97 15.847s-5.94-2.67-9.972-2.177c-4.98.606-7.48 4.769-8.555 7.315l-.304.296 1.978-8.733.03-.147.873-3.848zm-16.414 48.017c-.7 1.416-1.3 2.897-1.87 4.393l-9.74-3.62c.66-1.895 1.47-3.731 2.34-5.503.952-1.803 1.93-3.56 3.054-5.14 1.119-1.579 2.27-3.07 3.515-4.331 1.217-1.297 2.53-2.347 3.797-3.232 1.307-.81 2.553-1.503 3.75-1.89.51-.186.998-.305 1.473-.403l-.614 10.81c-.88 1.052-1.744 2.15-2.538 3.366-1.166 1.715-2.21 3.593-3.167 5.55zm27.143 14.209c-3.299 4.663-7.737 8.057-13.396 8.38-5.143.296-12.254-1.21-12.61-7.524-.377-6.641 4.227-16.793 4.227-16.793-5.537 11.101-6.342 21.516-1.988 33.241.603 1.62 1.325 3.278 2.661 4.374.354.292.746.521 1.153.715a11.066 11.066 0 0 1-1.336-.14 7.81 7.81 0 0 1-1.093-.18l.023-.067-.567-.225c-.395-.098-.895-.407-1.548-.815-.307-.234-.619-.546-.985-.85-.33-.357-.66-.78-1.027-1.22-.634-.978-1.323-2.147-1.81-3.594-.558-1.408-.893-3.066-1.19-4.828-.232-1.777-.379-3.686-.324-5.672.013-1.983.214-4.041.528-6.117.124-1.053.385-2.059.57-3.103.225-1.032.534-2.13.782-3.14.619-2.052 1.297-4.095 2.135-6.037.826-1.947 1.747-3.825 2.794-5.55.957-1.646 2.037-3.137 3.136-4.506l.106-.036.033-.148.01-.012-.043.16s.425-.56 1.135-1.355c.193-.208.384-.43.58-.629.082-.088.173-.18.26-.27a17.19 17.19 0 0 1 1.824-1.615c1.243-1.035 2.553-1.741 3.74-2.301.616-.217 1.197-.43 1.743-.58.56-.09 1.076-.207 1.543-.256h.056c.196.016.395.021.591.06a16.29 16.29 0 0 1 4.416 1.614 22.493 22.493 0 0 1 2.324 1.684 24.544 24.544 0 0 1 1.658 1.607l-.144.305.157-.292c.614.655 1.22 1.38 1.782 2.195.268.387.542.782.823 1.184l.725 1.31c.534.867.877 1.87 1.325 2.845a35.956 35.956 0 0 1 1.215 4.17c-1.282 4.948-3.046 9.84-5.994 14.011zm7.918-20.025s4.885 14.622-3.5 29.086c.895-1.826 1.576-3.753 2.224-5.754.61-2.42 1.212-5.066 1.294-7.622.142-1.274.024-2.553.037-3.804-.145-1.246-.173-2.49-.439-3.68-.358-2.41-1.143-4.649-1.976-6.702-.505-.993-.905-2.001-1.493-2.87l-.805-1.31c-.307-.4-.606-.795-.9-1.18a19.259 19.259 0 0 0-2.02-2.254l6.51-12.003a604.74 604.74 0 0 0 3.057-5.7c2.234 4.64 3.812 9.912 4.655 15.601zm-74.333 13.172c-1.826 19.373 6.31 37.26 6.31 37.26l19.74-16.397a19.39 19.39 0 0 0 1.39 2.154l-20.365 21.015c-9.827-12.983-12.702-34.437-5.953-56.028 2.714-8.682 6.693-16.453 11.486-22.98-4.56 8.168-11.408 22.25-12.608 34.976zm130.723-108.084c-1.777-2.368-3.637-4.671-5.507-6.964a297.563 297.563 0 0 0-5.726-6.797l-.632-.724-.461.869c-4.537 8.49-8.878 17.08-13.325 25.62-4.454 8.531-8.78 17.13-13.125 25.717l-6.52 12.883-3.467 7a51.716 51.716 0 0 0-1.455-2.626c-2.512-4.256-5.375-7.82-8.29-10.575-2.9-2.767-5.769-4.805-8.278-6.195a37.672 37.672 0 0 0-4.285-2.087l19.321-80.809c.612.16 1.316.348 2.059.596l4.848 1.625.617.255.168.653.853-.23c1.406.58 2.884 1.197 4.475 1.922 2.146 1.145 4.578 2.207 6.923 3.74 1.181.747 2.458 1.423 3.65 2.282l3.672 2.608c1.24.895 2.401 1.934 3.634 2.917 1.246.97 2.412 2.058 3.578 3.172 2.409 2.144 4.59 4.591 6.82 7 2.093 2.523 4.211 5.037 6.055 7.702.477.652.952 1.305 1.424 1.952l1.3 2.01c.848 1.343 1.738 2.638 2.522 3.969 1.512 2.69 3.062 5.251 4.269 7.817.627 1.272 1.269 2.495 1.834 3.704.536 1.223 1.055 2.404 1.55 3.539.023.046.038.088.06.134-.326-.578-.625-1.166-.97-1.733-.37-.645-.793-1.251-1.187-1.878a54.697 54.697 0 0 0-1.225-1.852c-1.654-2.458-3.4-4.849-5.18-7.216zm11.43-56.367-19.42 38.446c-.36-.467-.713-.933-1.074-1.4-2.18-2.528-4.325-5.102-6.71-7.38-1.154-1.18-2.31-2.336-3.552-3.376-1.228-1.05-2.389-2.158-3.63-3.123-1.253-.957-2.483-1.896-3.688-2.814-1.202-.929-2.491-1.674-3.685-2.486-2.373-1.667-4.85-2.856-7.039-4.122-.335-.165-.642-.304-.972-.462 7.074-1.885 20.285-5.406 37.264-9.927 3.97-1.063 8.16-2.187 12.507-3.356zm-151.087 138.93c-1.643-.73-3.745-1.669-4.916-2.19a109.743 109.743 0 0 1 2.6-5.473c2.966-5.64 6.35-10.957 10.128-15.705 3.802-4.725 7.852-9.01 12.156-12.535 4.274-3.56 8.723-6.43 13.108-8.516 4.377-2.09 8.635-3.503 12.517-4.228 3.881-.732 7.358-.884 10.193-.691 1.403.088 2.651.23 3.735.39l-.405 3.737c-4.45-.212-16.188-.039-26.34 6.574-14.68 9.561-25.877 22.692-32.776 38.637zm1.77-69.745c-.093-.015-.189-.028-.282-.044l3.763-8.062zm81.154-51.174-15.645 73.936-.351-.106c-.031-.01-.067-.026-.095-.036l-2.231-.735.938.353-2.375-.712 1.437.359s-.782-.23-2.25-.666a63.11 63.11 0 0 0-1.204-.301l-1.589-.477-.015.136a38.018 38.018 0 0 0-3.732-.52c-2.856-.284-6.374-.243-10.335.378-3.962.606-8.347 1.901-12.834 3.97-9.007 4.072-18.336 11.353-26.06 20.99-3.877 4.807-7.352 10.187-10.4 15.903a114.603 114.603 0 0 0-7.537 18.111 114.52 114.52 0 0 0-4.124 19.18c-.748 6.434-.957 12.836-.51 18.995a81.59 81.59 0 0 0 2.228 14.062 101.851 101.851 0 0 1-.952-3.438c-7.614-29.65 4.429-57.251 4.429-57.251l-6.518-3.25a100.493 100.493 0 0 1 4.377-9.138c3.273-5.942 6.959-11.552 11.165-16.463 4.163-4.942 8.713-9.272 13.433-12.85a69.954 69.954 0 0 1 14.356-8.441c6.86-2.97 13.363-4.202 18.735-4.499l4.078.336 4.568-.005c.289.036.588.072.859.108l2.458.41c.265.052.552.103.784.155l2.458.578-1.282-.41 1.269.211c1.452 1.163 2.52 2.182 3.185 2.938.673.779.96 1.248.96 1.248s-.274-.477-.929-1.274c-.616-.74-1.602-1.73-2.927-2.866l.51.086s-.673-.418-1.774-1.081a42.332 42.332 0 0 0-4.774-3.124c-1.15-.693-2.45-1.292-3.784-1.993-1.382-.594-2.804-1.308-4.351-1.888l-1.047-.405c-.24-.103-.485-.212-.717-.31-.746-.307-1.744-.645-2.915-1-.054-.019-.106-.042-.162-.057-1.69-.573-3.441-1.143-5.275-1.617-.913-.256-1.839-.514-2.775-.774-.947-.22-1.903-.444-2.87-.668l-2.938-.681c-.999-.188-2.004-.38-3.02-.57-4.055-.833-8.283-1.362-12.549-2.048-3.471-.531-6.997-1.073-10.523-1.612l17.562-36.498c2.437-.503 4.839-1.001 7.168-1.483l17.296-3.58c.668-.137 1.328-.274 1.983-.41.849-.178 1.344-.325 2.025-.488l3.724-.923c2.427-.604 4.741-1.179 6.939-1.723zm-87.252 50.24-10.172-1.557-2.285-5.375-7.189-19.664c3.033-.63 6.064-1.256 9.004-1.865l25.826-5.344-6.693 15.127zm-27.512-24.969 9.05 22.14-9.765-1.496 1.64-2.453s-.345.398-.995 1.138c-.294.345-.67.763-1.099 1.246l-12.524-1.922.825-3.038 4.697-13.959 1.333-.242zm-17.524 22.339c1.048-.165 2.059-.336 3.026-.405.68-.057 1.323-.096 1.945-.116 2.958.376 6.087.77 9.352 1.186a174.63 174.63 0 0 0-3.771 4.782c-1.566 2.035-3.301 4.362-5.055 6.995a148.653 148.653 0 0 0-5.507 8.612 173.053 173.053 0 0 0-5.576 9.963c-1.803 3.529-3.637 7.194-5.287 11.014a225.397 225.397 0 0 0-4.746 11.691c-1.46 3.972-2.773 7.98-4 11.973-.042.129-.073.26-.112.39l-26.382-7.127c-1.21 4.274-2.378 10.662-2.742 19.958-.622 15.94 1.486 29.682 2.628 35.774a59.912 59.912 0 0 1-.64-1.888c-.533-1.452-.912-2.997-1.338-4.568-.464-1.56-.782-3.193-1.12-4.854-.384-1.65-.613-3.36-.86-5.089-.295-1.723-.419-3.49-.573-5.27-.199-1.776-.21-3.577-.269-5.387-.098-1.81.005-3.627.047-5.445.003-1.824.214-3.634.353-5.445.108-1.816.41-3.6.653-5.383.211-1.79.583-3.523.926-5.246.175-.861.325-1.717.52-2.571l.653-2.533c.815-3.376 1.803-6.497 2.806-9.517a147.844 147.844 0 0 1 3.09-8.354 123.484 123.484 0 0 1 5.651-12.094c1.251-2.324 2.115-3.784 2.394-4.243.345.56 1.024 1.176 1.942 1.648.977.534 2.208.944 3.551 1.202.676.116 1.367.235 2.095.263.668.046 1.467.039 2.18.005 1.464-.134 2.945-.377 4.27-1.073.65-.34 1.336-.802 1.682-1.671.384-1.019-.201-1.764-.65-2.162-.962-.776-1.872-.938-2.484-1.083a9.284 9.284 0 0 0-.652-.103l.745-12.731.663-.58c.75-.674 1.865-1.584 3.242-2.616 2.744-2.073 6.67-4.513 10.941-6.115 1.073-.377 2.138-.779 3.222-1.047 1.073-.317 2.148-.534 3.187-.74zm-2.367-4.635a44236.79 44236.79 0 0 1-17.805-2.729l.475-8.109 4.826-.843c5.419-.978 10.714-1.932 15.942-2.874l-2.118 9.453zm-19.54-10.451-.728 26.842-.877 12.842s-2.339 2.174-4.51 1.509c-1.858-.57-4.133-1.398-4.76-1.628-11.4-10.37-22.48-21.186-33.71-31.776 2.837-.495 5.664-.99 8.473-1.478 1.22.16 2.489.33 3.792.503l27.117 30.755.483-27.745.451-9.079zm-6.007 1.05.005 5.62c-6.443-.867-12.571-1.69-18.197-2.443 6.16-1.075 12.215-2.135 18.192-3.177zm-145.184-42.204c-.382.062-.766.121-1.15.186-11.135 1.841-22.239 3.956-33.332 5.54l-4.121.529-2.105.203-1.052.104c-.281.02-.64.012-.957.023-2.618.185-5.187-.279-7.547-1.158-4.725-1.783-8.478-5.863-10.482-10.565l-1.45-3.892c17.83-2.971 35.679-5.873 53.543-8.604l13.958-2.066 6.977-.967c2.321-.297 4.684-.627 6.99-.857 4.642-.502 9.316-.76 13.96-.57 2.325.088 4.64.307 6.91.723 2.226.41 4.6 1.01 6.387 2.06l.124.075c1.142.547 2.39 1.383 2.842 2.365.503.921-.5 1.966-1.584 2.616-1.21.72-2.466 1.189-3.807 1.674-1.333.469-2.674.92-4.031 1.34-5.411 1.708-10.884 3.266-16.357 4.808-7.885 2.21-15.798 4.336-23.716 6.433zm-119.38 34.585-8.946 1.067a173.412 173.412 0 0 1-1.847-5.56c2.62-.281 5.205-.56 7.74-.841zm-95.428 13.138-43.996 5.329c13.793-1.878 27.617-3.528 41.453-5.05zm-113.732 26.491c-.096.361-.246.722-.303 1.11a668.2 668.2 0 0 0-.043 1.206l.302 1.223c.183.384.404.76.613 1.155 2.116 2.918 5.927 4.754 10.068 6.495 1.04.454 2.142.823 3.253 1.256 1.132.39 2.318.699 3.52 1.068 2.443.56 5.016 1.083 7.727 1.429 5.411.768 11.307 1.233 17.61 1.53 12.606.598 26.849.61 42.37.262 15.524-.35 32.33-1.078 50.093-2.07 8.88-.483 18.001-1.076 27.321-1.69 4.656-.323 9.363-.65 14.116-.983 3.918-.338 7.882-.683 11.86-1.029l39.554 91.75.016.039.018.028c.444.79.769 1.762.916 2.706a7.407 7.407 0 0 1-.096 2.878c-.42 1.906-1.71 3.55-3.294 4.762-1.575 1.248-3.443 2.115-5.349 2.819-1.914.699-3.9 1.207-5.906 1.62 2.022-.326 4.031-.746 5.994-1.362 1.952-.63 3.887-1.422 5.586-2.644 1.698-1.184 3.186-2.884 3.756-4.99a8.31 8.31 0 0 0 .247-3.21c-.129-1.08-.402-2.101-.918-3.12l.034.067-29.612-77.9c1.227-.3 2.935-.64 5.334-.985 5.145-.738 10.182 4.941 12.71 8.361l2.187 7.026c3.812 12.177 7.743 24.322 11.877 36.406a879 879 0 0 0 6.423 18.06c2.197 6.004 4.5 11.972 7.02 17.884 1.254 2.958 2.57 5.896 4.06 8.805.743 1.46 1.558 2.891 2.59 4.338l.89 1.086.843.87 1.746 1.722a62.211 62.211 0 0 0 3.686 3.248 55.041 55.041 0 0 0 1.942 1.508c.64.49 1.405.986 1.813 1.342.204.172.364.381.407.459.132.263.055.113.111.263.026.087.044.185.052.284.039.41-.108.776-.253.894-.52.488-1.888.53-2.525-.07l-.178-.167-.248-.093a2489.62 2489.62 0 0 0-24.21-8.882c-8.022-2.807-15.997-5.726-24.054-8.437l-.312-.237-5.167.459c-3.28.327-7.98.725-13.602 1.333-5.623.617-12.192 1.249-19.213 2.082-7.02.848-14.503 1.656-22.008 2.61a427.764 427.764 0 0 0-21.882 3.69c-1.972.377-3.886.782-5.76 1.192l-1.095.137s-.245.095-.633.25c-.833.186-1.684.372-2.495.557-3.146.717-6.182 1.421-8.87 2.399-2.695.947-5.1 2.112-6.94 3.603-.91.753-1.665 1.61-2.127 2.546a4.568 4.568 0 0 0-.45 2.78c.322 1.697 1.198 2.755 1.762 3.423.583.665.927.99.927.99s-.32-.348-.851-1.055c-.52-.688-1.269-1.818-1.49-3.404-.236-1.617.823-3.462 2.642-4.749 1.817-1.31 4.199-2.31 6.852-3.167 1.568-.513 3.251-.92 5.014-1.302-4.841 2.282-10.499 5.447-10.216 7.688.49 3.885 12.147 9.7 32.785 12.107 20.637 2.41 107.778-9.329 107.778-9.329l205.831-34.43s-.995-1.088-3.038-2.83c1.385.95 2.68 1.876 3.859 2.768a83.242 83.242 0 0 1 3.83 3.03l.175.344c.224.456.457.887.691 1.308L291.175 371.38a447.39 447.39 0 0 1-22.006.98c-3.675.07-7.35.093-11.026.067a327.043 327.043 0 0 1-11.02-.304l-5.501-.343-5.486-.521c-1.818-.26-3.645-.464-5.454-.771-1.792-.39-3.633-.588-5.385-1.138l-2.655-.727-2.635-.823c-1.76-.536-3.518-1.07-5.25-1.684-3.44-1.228-6.884-2.786-9.5-5.409 2.59 2.652 6.028 4.25 9.462 5.512 1.728.632 3.486 1.184 5.239 1.741l2.622.849 2.66.755c1.758.57 3.598.787 5.393 1.197 1.813.325 3.642.55 5.464.828l5.493.578 5.509.397c3.676.199 7.356.343 11.036.415 3.681.065 7.362.08 11.045.047a447.338 447.338 0 0 0 22.075-.764h.016l.023-.003 269.827-41.223c.113.188.234.384.338.564.92 1.404 1.715 2.464 2.225 3.206l.8 1.13.48-.384 4.204 31.801-.931 28.999 2.623-28.988.005-.044-.008-.095-2.234-30.44c7.774.24 13.582 2.618 17.73 5.346l-5.15 26.667c2.271.451 4.49 1.14 6.148 1.751.423.158.812.307 1.158.446l8.475-18.877 54.602 14.784a47.994 47.994 0 0 0 3.957 2.327l.175.085L626.93 410.3c-.294-.263-.59-.52-.874-.797l-2.858-2.886c-.975-.96-1.818-2.056-2.742-3.082l-1.359-1.57-1.261-1.657c-.833-1.111-1.736-2.171-2.507-3.32l-2.319-3.417c-.768-1.13-1.413-2.326-2.115-3.469-.696-1.147-1.372-2.285-1.95-3.456l-1.784-3.4-1.56-3.329c-1.056-2.148-1.845-4.271-2.634-6.203-.818-1.927-1.37-3.76-1.966-5.35-.595-1.59-1.02-3.012-1.367-4.185l-1.109-3.673s.351 1.351.962 3.714c.3 1.184.668 2.62 1.202 4.24.532 1.617 1.009 3.49 1.8 5.432.751 1.96 1.497 4.111 2.508 6.293l1.496 3.387c.575 1.127 1.16 2.277 1.759 3.446.572 1.18 1.245 2.336 1.94 3.497.698 1.156 1.34 2.368 2.106 3.516l2.314 3.463c.771 1.166 1.674 2.244 2.507 3.374l1.284 1.664 1.385 1.576c.942 1.034 1.803 2.13 2.794 3.095.98.972 1.95 1.94 2.91 2.893.316.302.644.586.969.872l-10.88 15.488L626.83 411.3c.56.485 1.122.962 1.666 1.447a31.754 31.754 0 0 0 3.025 2.417c1.027.738 1.997 1.511 3.003 2.172 2.058 1.256 3.922 2.571 5.82 3.487.93.487 1.82.957 2.665 1.403.862.418 1.713.738 2.494 1.08 1.568.669 2.928 1.264 4.106 1.61 2.316.774 3.642 1.215 3.642 1.215s-1.305-.493-3.59-1.36c-1.156-.386-2.489-1.039-4.024-1.764-.76-.371-1.594-.722-2.432-1.173l-2.613-1.46c-1.862-.947-3.685-2.298-5.692-3.585-.983-.676-1.927-1.465-2.925-2.218-.498-.38-1-.766-1.509-1.153-.105-.096-.216-.191-.322-.284 1.989-2.803 13.91-19.576 19.69-27.12 6.319-8.243 9.997-8.984 12.646-7.663 2.182 1.088 4.763 5.365 5.604 6.84-1.338 2.93-2.922 7.815-2.865 14.266a44.388 44.388 0 0 0 .498 9.329c.523 3.332 1.477 6.822 2.878 10.358l-12.71 36.632 13.275-35.26c.126.296.23.59.363.887 1.95 4.269 4.661 8.53 8.31 12.192 3.627 3.66 8.267 6.68 13.56 8.19 2.664.677 5.457.969 8.25.734.697-.057 1.383-.22 2.074-.325l1.034-.183 1.024-.315c.645-.211 1.285-.381 1.932-.626l1.95-.906c2.481-1.349 4.774-3.017 6.6-5.122 1.011-.965 1.736-2.159 2.592-3.237.681-1.191 1.504-2.306 2.04-3.562 2.404-4.887 3.663-10.185 3.895-15.325.279-5.151-.4-10.114-1.614-14.671-1.228-4.485-3.046-8.638-5.149-12.125-4.222-7.057-9.764-11.462-13.963-13.61a25.157 25.157 0 0 0-3.91-1.677c-.826-.33-1.53-.55-2.09-.696a52.662 52.662 0 0 0 6.668-2.546c9.006-4.073 18.333-11.356 26.057-20.99 3.877-4.807 7.351-10.188 10.4-15.903 3-5.744 5.535-11.844 7.536-18.114a114.41 114.41 0 0 0 4.124-19.179c.743-6.376.95-12.718.519-18.826.015-.003.03-.003.046-.005l.15.452 25.74-8.648 26.383-8.862a333.238 333.238 0 0 0 8.718-3.018c.033.872.062 1.77.08 2.7.137 3.998.077 8.512-.046 13.433-.217 4.916-.503 10.244-1.164 15.844-.629 5.602-1.462 11.495-2.656 17.53-1.182 6.034-2.577 12.244-4.349 18.447-1.767 6.219-3.753 12.468-6.071 18.604-2.195 6.183-4.816 12.2-7.472 18.083-2.801 5.816-5.651 11.5-8.777 16.799-3.03 5.354-6.312 10.319-9.494 14.972a379.879 379.879 0 0 1-4.84 6.636c-1.655 2.071-3.2 4.122-4.78 6.005a232.09 232.09 0 0 1-8.907 10.053l-3.928 3.996c-1.233 1.217-2.412 2.282-3.451 3.273-2.066 2.001-3.83 3.417-4.98 4.44a649.373 649.373 0 0 0-1.785 1.546s.629-.529 1.81-1.517c1.169-1.003 2.956-2.388 5.056-4.356 1.057-.972 2.256-2.022 3.51-3.219l4.003-3.936c1.405-1.426 2.842-3.004 4.39-4.635 1.54-1.64 3.03-3.479 4.655-5.333 1.6-1.88 3.16-3.923 4.83-5.992a370.11 370.11 0 0 0 4.894-6.628c3.216-4.648 6.535-9.608 9.607-14.962 3.168-5.296 6.061-10.983 8.906-16.804 2.7-5.888 5.365-11.913 7.604-18.106 2.298-6.167 4.253-12.468 5.986-18.7 1.749-6.246 3.108-12.478 4.258-18.539 1.161-6.058 1.96-11.972 2.562-17.595.629-5.62.884-10.962 1.073-15.89.116-4.935.095-9.459-.117-13.462a175.3 175.3 0 0 0-.128-2.79c1.931-.702 3.87-1.403 5.813-2.162 4.983-1.965 10.02-4.116 14.696-6.992 2.32-1.455 4.563-3.136 6.278-5.347.81-1.101 1.517-2.437 1.831-3.737.362-1.416.21-2.933-.51-4.194-.72-1.253-1.883-2.135-3.103-2.747-1.297-.603-2.543-.843-3.82-1.227a116.631 116.631 0 0 0-7.57-1.762 126.361 126.361 0 0 0-14.562-2.03c-4.663-.363-9.087-.379-13.16-.296-8.152.185-14.92.781-19.65 1.232-2.935.287-5.081.53-6.29.671a455.27 455.27 0 0 1 2.122-3.402l3.737-5.942 1.855-2.902.456-.714.114-.178.134-.227.206-.37.812-1.46c2.16-3.858 4.08-7.51 5.775-10.615 1.695-3.108 3.008-5.752 3.972-7.575.609-1.207 1.042-2.066 1.274-2.523a146.82 146.82 0 0 1 3.823 4.924c.892 1.176 1.728 2.39 2.566 3.603.552.795 1.05 1.62 1.56 2.438.823 1.893 1.478 3.688 2.095 5.292a66.987 66.987 0 0 1 1.749 4.919 8104.61 8104.61 0 0 0 1.418 4.325l-1.269-4.372a68.223 68.223 0 0 0-1.578-4.978c-.66-1.91-1.352-4.088-2.319-6.38-.46-1.156-.939-2.36-1.437-3.606-.523-1.236-1.127-2.487-1.712-3.787-1.127-2.625-2.598-5.256-4.034-8.026-.743-1.37-1.597-2.708-2.407-4.096l-1.245-2.079a442.43 442.43 0 0 1-1.375-2.027c-.64-.993-1.344-1.955-2.043-2.92 1.12-1.99 14.227-25.312 17.616-32.103 3.539-7.098 11.274-9.683 15.143-7.753 1.372.683 1 3.585-.047 7.04l-23.46 45.235 33.233-52.337a43.358 43.358 0 0 0 3.588-1.486 35.078 35.078 0 0 0 4.26-2.329c1.399-.926 2.8-1.963 4.094-3.497.64-.771 1.258-1.68 1.71-2.822.224-.573.392-1.2.492-1.862a7.91 7.91 0 0 0 .068-1.078 8771.822 8771.822 0 0 0 41.876-11.522c17.139-4.781 34.262-9.623 50.276-14.301 8.004-2.358 15.733-4.661 23.038-6.93 7.294-2.278 14.201-4.491 20.471-6.838 1.548-.645 3.056-1.2 4.542-1.878a42.264 42.264 0 0 0 4.142-2.254c1.274-.862 2.523-1.72 3.5-2.842.985-1.076 1.795-2.427 1.772-3.895-.01-1.465-.79-2.708-1.648-3.652-.872-.965-1.9-1.666-2.881-2.324-2.007-1.25-3.99-2.133-5.795-2.86a70.103 70.103 0 0 0-5.28-1.84 94.354 94.354 0 0 0-4.638-1.967l-27.788-1.004-2.53-.123-14.263-.7c-2.373-.133-4.756-.19-7.152-.262-2.389.061-4.782.033-7.163.214-9.533.536-19.006 1.715-28.43 3.141a605.537 605.537 0 0 0-28.166 4.968l-3.505.727c-1.243.255-2.329.585-3.502.874l-6.91 1.793-13.825 3.582-27.649 7.17-55.293 14.338-110.52 28.947-110.361 29.037-1.408.162a85.874 85.874 0 0 0-4.635-3.961 70.74 70.74 0 0 0-3.402-2.525c-1.15-.808-2.34-1.612-3.645-2.193-5.212-2.321-10.85-3.317-16.434-4.147-5.61-.756-11.264-1.15-16.92-1.287a189.232 189.232 0 0 0-16.976.356c-10.113.704-20.116 2.208-30.08 3.825a1733.334 1733.334 0 0 0 21.486-5.38c5.509-1.435 11.01-2.881 16.48-4.488 1.37-.395 2.735-.823 4.094-1.272 1.341-.449 2.77-.962 4.021-1.676.666-.41 1.32-.849 1.824-1.545.56-.627.763-1.783.374-2.605-.78-1.628-2.12-2.407-3.467-3.129l.124.075c-2.26-1.393-4.55-1.932-6.915-2.448-2.352-.48-4.73-.75-7.108-.887-4.756-.294-9.515-.124-14.238.294-2.38.188-4.689.464-7.043.717l-7.026.83-14.018 1.788c-18.181 2.409-36.328 4.988-54.473 7.64l-9.04-24.284-23.585-63.433-.165-.436-.304-.402c-.322-.423-.56-.7-.838-1.032-.274-.307-.54-.624-.823-.918a29.128 29.128 0 0 0-1.744-1.736c-1.22-1.114-2.522-2.169-4.03-3.07-.357-.242-.764-.438-1.159-.65a10.324 10.324 0 0 0-1.225-.585c-.833-.379-1.751-.655-2.688-.895-.472-.113-.98-.165-1.472-.24-.454-.085-1.066-.09-1.667-.072-.567.016-1.3.052-1.555.124l-1.078.188-.304.07-1.656.637c-.542.222-.996.516-1.49.782-.506.26-.922.575-1.355.877-.436.304-.867.61-1.24.946-1.597 1.295-2.9 2.729-4.117 4.191a45.69 45.69 0 0 0-3.296 4.537 55.518 55.518 0 0 0-1.445 2.36 48.315 48.315 0 0 0-1.354 2.484l-.11.22-.032.092c-.735 2.177-1.284 4.163-1.836 6.242a182.454 182.454 0 0 0-1.52 6.174 275.446 275.446 0 0 0-2.511 12.399 353.843 353.843 0 0 0-1.989 12.45c-.59 4.15-1.124 8.343-1.578 12.49-.485 4.122-.895 8.396-.988 12.598-.114 4.214-.008 8.426.278 12.614.527 7.627 1.67 15.174 3.209 22.623l-23.577 3.296-16.144 2.285c-5.346.78-10.56 1.767-15.6 2.737-10.065 2.004-19.375 4.214-27.314 6.254-7.938 2.04-14.498 3.944-19.055 5.39-2.278.726-4.056 1.327-5.248 1.806-.603.217-1.049.418-1.34.573l-.451.22.458-.2c.3-.144.755-.327 1.364-.518 1.201-.425 3.006-.952 5.307-1.581 4.604-1.25 11.228-2.878 19.226-4.583 7.999-1.705 17.368-3.518 27.454-5.094 5.045-.753 10.262-1.517 15.579-2.069 5.341-.528 10.768-1.067 16.195-1.607l31.915-3.115 14.686-1.434.872-.085.052-.003.178-.005.39-.003c.546.008 1.088.015 1.624.025 1.091.029 2.174.086 3.237.16 2.128.134 4.178.387 6.138.645a81.574 81.574 0 0 1 10.537 2.174c3.087.818 5.676 1.788 7.796 2.598 2.082.895 3.707 1.604 4.762 2.184l.552.281a4.74 4.74 0 0 1-.111.454c-.018.044-.034.093-.05.134-1.877.72-4.89 1.442-8.199 2.154-3.365.722-7.219 1.455-11.441 2.203-16.899 2.986-39.653 6.283-62.42 9.35-2.847.379-5.694.755-8.529 1.132l-2.125.276-.529.067-.626.116-1.042.196c-1.397.253-2.79.505-4.177.758a511.236 511.236 0 0 1-16.36 2.63c-5.321.754-10.475 1.427-15.376 1.873-4.899.436-9.547.795-13.824.728-2.13-.06-4.19-.109-6.084-.454-1.9-.256-3.736-.784-5.41-1.2-3.37-.887-6.255-1.887-8.511-2.968-2.219-1.063-3.995-2.236-4.369-3.544-.183-.655.208-1.132.449-1.346l.412-.33-.426.314c-.248.204-.678.678-.515 1.38.345 1.388 2.112 2.639 4.309 3.807 2.238 1.181 5.105 2.306 8.468 3.335 1.706.493 3.445 1.075 5.426 1.429 1.963.436 4.046.567 6.215.712 4.343.242 9.033.064 13.986-.178 4.953-.256 10.156-.728 15.532-1.272a505.827 505.827 0 0 0 16.538-1.994c1.405-.196 2.817-.394 4.232-.595l1.065-.155.431-.067.534-.047 2.138-.193c2.853-.263 5.718-.531 8.581-.795 8.966-.848 17.918-1.73 26.535-2.633.758 2.44 1.388 4.323 1.837 5.618l-85.522 10.221c-17.411 2.198-34.799 4.588-52.124 7.397-8.66 1.411-17.306 2.925-25.899 4.712-4.294.903-8.578 1.855-12.82 2.99-4.202 1.186-8.526 2.313-12.277 4.622 3.788-2.247 8.113-3.297 12.331-4.418 4.252-1.063 8.547-1.945 12.849-2.778 8.611-1.646 17.272-3.018 25.946-4.287 2.343-.343 4.688-.658 7.034-.985l-37.835 6.74s-15.865 3.27-20.335 10.19c-4.468 6.92-2.84 7.732 5.708 10.98 8.547 3.247 94.397 2.35 160.306-3.41 44.017-3.848 167.685-23.742 244.981-36.535-117.682 16.14-324.325 34.577-324.325 34.577l-22.802-17.474 90.926-16.288 53.155-5.837 52.304-5.805 52.291-5.93 29.143-3.304.046-1.04.067-1.433c.003-.04.003-.073.005-.114 0-.59.144-1.266.237-1.994.13-.727.173-1.516.41-2.331.22-.818.39-1.682.676-2.548.323-.857.59-1.754.983-2.624.428-.853.76-1.753 1.28-2.568.696-1.257 1.513-2.404 2.36-3.48a368.534 368.534 0 0 0-17.429 2.744c-20.804 3.795-40.403 9.275-61.79 7.622-9.914-.763-15.648-10.492-19.192-19.13-3.67-8.947-13.866-33.35-13.866-33.35l-.118.163-20.28-57.106 12.271 67.124.733-.11-22.256 30.305-.534.075-14.611 2.045-8.05 1.124c-1.089-7.52-1.77-15.093-1.84-22.658-.033-4.158.112-8.308.473-12.432.346-4.142.977-8.166 1.715-12.305.704-4.127 1.47-8.184 2.306-12.267.82-4.075 1.733-8.127 2.698-12.16.98-4.032 2.037-8.038 3.193-12.002a183.963 183.963 0 0 1 1.829-5.896c.613-1.852 1.281-3.768 1.962-5.463.356-.606.795-1.3 1.218-1.937.454-.683.926-1.362 1.41-2.022.97-1.323 1.997-2.595 3.085-3.75 1.084-1.153 2.216-2.244 3.394-3.072.287-.237.583-.41.877-.585.292-.178.583-.385.87-.493.286-.121.575-.302.85-.384.246-.067.486-.147.723-.23l.851-.17c.457-.116.464-.023.624-.036.13 0 .25-.039.514.015.232.039.456.034.693.085.48.124.97.235 1.476.457.25.077.503.209.758.338.253.129.51.232.763.4 1.022.567 2.025 1.33 2.982 2.163.48.413.946.86 1.395 1.318.23.225.439.465.658.697l.315.366 24.959 62.262 12.64 31.487c1.298 2.82 3.041 5.355 5.254 7.521 2.193 2.167 4.872 3.908 7.808 4.94 2.924 1.016 6.06 1.457 9.07 1.176.388-.024.736-.024 1.156-.065l1.05-.131 2.1-.258 4.252-.653c11.197-1.888 22.202-4.279 33.275-6.396 11.06-2.108 22.145-4.158 33.316-5.22a187.907 187.907 0 0 1 16.826-.777c5.62-.005 11.243.242 16.83.851 5.555.684 11.188 1.537 16.362 3.688 1.29.534 2.469 1.29 3.645 2.072a70.905 70.905 0 0 1 3.448 2.43 83.739 83.739 0 0 1 4.687 3.8l-4.924.574c-2.873-2.474-9.476-7.527-16.832-8.845a23.147 23.147 0 0 0-2.298 2.36c-.436.49-.815 1.055-1.225 1.592-.343.59-.761 1.132-1.045 1.751-.307.604-.619 1.192-.82 1.813-.114.302-.224.601-.335.898l-.22.903c-.172.577-.242 1.155-.291 1.697-.028.183-.013.343-.028.52-.029.339-.075.687-.052.999.02.472-.003.892.039 1.269.062.376.113.704.154.975.016.108.026.16.04.25l29.861-3.387.13-.013.123-.033 5.633-1.493 86.303 6.017-72.476-9.685 90.969-24.126 82.112-21.872 38.08 7.359-23.766-11.173 13.972-3.72.049-.015 46.418 15.578-143.175 44.49 198.51-45.359s134.232-38.783 137.89-42.041c2.249-2.001-3.648-5.378-8.527-7.683 1.25.43 2.605.925 4.103 1.55 1.785.758 3.74 1.674 5.692 2.945.95.663 1.943 1.372 2.758 2.308.804.921 1.48 2.082 1.462 3.364-.003 1.284-.745 2.502-1.7 3.502-.936 1.04-2.171 1.857-3.422 2.67a42.18 42.18 0 0 1-4.112 2.133c-1.426.619-2.997 1.168-4.542 1.774-6.267 2.208-13.174 4.28-20.512 6.417-7.338 2.126-15.104 4.28-23.143 6.482-16.09 4.367-33.295 8.878-50.514 13.327-34.45 8.867-68.966 17.484-94.866 23.891-25.908 6.37-43.181 10.621-43.181 10.621l.183.712c-1.27-.472-2.414-.9-3.4-1.269-1.467-.539-2.496-.787-3.255-1.04l-1.14-.347-.237.83-1.377-.312-.844 3.99c-2.336.598-11.854 3.046-26.978 6.935-2.193.563-4.504 1.159-6.925 1.78-1.213.312-2.45.63-3.717.954-.59.147-1.367.364-1.826.46l-1.981.428a809214.02 809214.02 0 0 0-58.675 12.646c-7.585 1.635-15.488 3.337-23.666 5.101l-25.4 4.795c-17.488 3.203-35.931 6.585-55.01 10.08-19.094 3.422-38.83 6.922-58.901 10.37-20.072 3.449-40.473 6.9-60.9 10.17a2818.328 2818.328 0 0 1-30.613 4.824c-10.18 1.609-20.338 3.056-30.412 4.526-10.072 1.506-20.095 2.742-29.98 4.101-4.953.596-9.874 1.186-14.762 1.772-4.887.59-9.739 1.176-14.564 1.596-4.824.46-9.605.914-14.343 1.362-4.749.372-9.453.738-14.109 1.102-9.309.688-18.414 1.356-27.287 1.91-17.742 1.14-34.53 2.005-50.038 2.482-15.505.475-29.734.58-42.326.085-6.295-.242-12.183-.655-17.583-1.38-2.706-.32-5.27-.82-7.705-1.356-1.193-.356-2.376-.656-3.5-1.032-1.111-.423-2.222-.784-3.258-1.228-4.138-1.697-7.946-3.502-10.042-6.352-1.049-1.422-1.166-3.222-.592-4.586.213-.707.628-1.303.951-1.888.419-.526.784-1.055 1.185-1.506.84-.875 1.586-1.64 2.312-2.216a21.48 21.48 0 0 1 1.811-1.462l1.523-1.135s-.522.381-1.532 1.122c-.517.358-1.126.84-1.824 1.45-.732.567-1.487 1.33-2.335 2.2-.407.448-.779.977-1.203 1.506-.332.585-.755 1.183-.977 1.898" style="fill:#555;fill-opacity:1;fill-rule:nonzero;stroke:none;stroke-width:.257921" transform="translate(-.002 264.153) scale(1.03102)"/><path d="m313.849 333.237-.575-.227-.075-.057c.217.093.433.188.65.284m267.27-112.647-.045-.016.003-.008a.345.345 0 0 0 .043.023m146.93 55.49 1.166-2.244-1.106 2.298-.06-.054m-40.112 39.787c.307.673.62 1.3.921 1.872a19.087 19.087 0 0 1-.928-1.867l.008-.005m-15.52 95.985c.034.114.062.22.099.35.113.44.278.973.495 1.587a24.14 24.14 0 0 1-.655-1.772l.062-.165m121.028-130.07c-.203 3.253-.51 7.906-1.297 13.446-.776 5.538-1.898 11.978-3.598 18.766a196.52 196.52 0 0 1-2.883 10.39c-1.102 3.51-2.273 7.051-3.583 10.546a188.044 188.044 0 0 1-4.225 10.304 185.327 185.327 0 0 1-4.658 9.729 159.453 159.453 0 0 1-4.898 8.813 156.136 156.136 0 0 1-4.815 7.642 124.816 124.816 0 0 1-4.395 6.24 155.987 155.987 0 0 1-3.59 4.657c-1.004 1.285-1.852 2.244-2.402 2.922l-.856 1.03s.289-.367.825-1.055c.53-.694 1.35-1.68 2.311-2.992a150.575 150.575 0 0 0 3.446-4.754 183.03 183.03 0 0 0 4.233-6.327c6.05-9.365 13.056-22.563 18.173-36.526 1.318-3.472 2.51-6.998 3.621-10.477 1.104-3.5 2.066-6.954 2.93-10.335 1.723-6.75 3.01-13.133 3.859-18.648.858-5.512 1.37-10.136 1.65-13.38.287-3.245.374-5.108.374-5.108s-.03 1.863-.222 5.118m-117.55 172.265c1.785-.15 3.851-.449 6.061-.76 2.213-.318 4.555-.764 6.88-1.275 2.333-.477 4.644-1.06 6.8-1.653 2.144-.622 4.163-1.168 5.858-1.746 1.7-.56 3.129-1.011 4.109-1.372.993-.338 1.56-.534 1.56-.534l-1.493.699c-.957.43-2.324 1.05-4.006 1.69-3.345 1.333-7.939 2.772-12.638 3.806a96.973 96.973 0 0 1-6.961 1.163 72.59 72.59 0 0 1-6.136.49c-3.603.132-5.994-.044-5.994-.044l1.645-.108c1.047-.057 2.533-.183 4.315-.356m-104.52-57.093a62.925 62.925 0 0 1 4.12 1.12c.966.296 1.92.608 2.808.91l-2.716 11.944c-.371-.307-.738-.622-1.117-.916-1.083-.83-2.233-1.552-3.412-2.215zm12.922-6.796-1.068 6.816c-.028-.003-.082-.01-.116-.012zm-13.706 6.037a34.336 34.336 0 0 0-2.357.158 32.783 32.783 0 0 0 3.077.585l-1.8 10.041a36.168 36.168 0 0 0-3.663-1.576c-6.08-2.161-12.847-1.795-18.047.743-2.197.944-4.003 2.296-5.646 3.74-6.306 5.145-10.162 13.814-10.587 23.778-.062.69-.124 1.38-.124 2.032l-.05 2.497c.045.794.086 1.553.125 2.272.036 1.44.27 2.708.402 3.817.119 1.115.325 2.043.49 2.796l.49 2.311s-.16-.805-.464-2.316c-.16-.753-.354-1.684-.462-2.798-.118-1.11-.343-2.378-.36-3.818-.086-1.06-.096-2.233-.065-3.46a47.17 47.17 0 0 0 1.519 10.388 47.853 47.853 0 0 0 4.415 11.024 49.084 49.084 0 0 1-3.93-10.204c-2.09-7.972-2.061-15.733-.323-22.199.02-.062.036-.124.054-.188.07-.25.16-.485.235-.733.792-2.445 1.883-4.944 3.415-7.356.165-.258.335-.518.503-.776 2.62-3.619 6.087-6.175 10.26-7.144 7.686-1.78 15.919 2.176 22.266 9.669a36.172 36.172 0 0 0-2.115-2.058c-2.099-1.739-4.371-3.227-6.816-4.305-2.471-1.019-5.094-1.591-7.676-1.58-2.597-.042-5.089.724-7.204 1.781-4.467 2.244-7.116 6.15-8.847 9.806-1.663 3.743-2.44 7.423-2.767 10.686-.26 3.276-.232 6.139 0 8.48.232 2.34.529 4.169.82 5.391l.41 1.886-.384-1.891c-.279-1.225-.55-3.056-.75-5.393-.207-2.337-.21-5.202.2-8.437.457-3.216 1.316-6.855 3.199-10.366 1.87-3.43 4.743-6.969 8.754-8.658 2.04-.864 4.263-1.393 6.53-1.207 2.262.14 4.519.781 6.647 1.816 4.225 2.192 7.812 5.8 10.629 9.989 1.349 2.138 2.628 4.356 3.613 6.732.55 1.173.942 2.367 1.365 3.559.43 1.181.732 2.556 1.111 3.822 1.22 4.896 1.63 10.199 1.153 15.207a36.547 36.547 0 0 1-1.553 7.318c-.804 2.321-1.849 4.524-3.205 6.476-1.398 1.901-3.119 3.534-5.03 4.692l-1.442.784-1.679.608c-.433.196-1.057.24-1.573.372l-.81.168-.82.046c-4.41.374-8.55-1.429-11.816-3.596-3.3-2.23-5.751-5.055-7.652-7.688-1.867-2.675-3.196-5.213-4.104-7.377-.907-2.161-1.519-3.907-1.844-5.122-.35-1.21-.539-1.854-.539-1.854l.516 1.86c.31 1.22.898 2.976 1.782 5.152.882 2.182 2.193 4.728 3.946 7.506 1.806 2.739 4.21 5.633 7.423 8.17 2.887 2.18 6.58 4.177 10.862 4.504 3.087.609 6.223.62 9.31-.095 7.07-1.64 12.556-6.683 15.883-13.582-1.215 3.015-2.819 5.816-4.849 8.22-1.841 2.298-4.222 4.07-6.646 5.416-.627.3-1.2.655-1.868.918l-2.068.717c-.57.24-1.326.305-1.976.464-.673.147-1.344.294-2.027.305-2.716.358-5.396-.088-7.916-.65-1.235-.397-2.486-.702-3.62-1.261-.576-.258-1.162-.485-1.716-.761l-1.604-.903c-4.238-2.432-7.475-5.69-9.933-8.816-2.437-3.157-4.222-6.19-5.35-8.834-.654-1.284-1.046-2.507-1.456-3.546-.423-1.034-.684-1.95-.895-2.693l-.666-2.267s.225.792.642 2.275c.204.745.454 1.661.867 2.7.4 1.045.781 2.278 1.421 3.57l.947 2.069 1.204 2.184c.403.771.882 1.537 1.406 2.316.523.78 1 1.633 1.645 2.407 2.373 3.237 5.569 6.569 9.747 9.316l1.602 1.01c.557.316 1.145.581 1.728.875 1.145.64 2.427 1.027 3.701 1.507 2.603.727 5.424 1.343 8.36 1.114.734.023 1.464-.096 2.2-.214.745-.145 1.452-.15 2.246-.418.696-.201 1.398-.405 2.102-.611.707-.235 1.434-.604 2.159-.908 2.814-1.37 5.478-3.178 7.645-5.592 2.169-2.373 4.093-5.081 5.483-8.088 1.367-3.003 2.481-6.193 3.043-9.513.374-1.643.483-3.332.684-5.011.041-1.69.18-3.386.046-5.081-.056-3.405-.67-6.77-1.374-10.098-.534-1.728-.841-3.164-1.496-4.828l-.916-2.43c-.325-.794-.712-1.547-1.065-2.32-.668-1.561-1.586-3-2.404-4.478-.441-.723-.952-1.4-1.424-2.1-.47-.699-.96-1.385-1.511-2.022a31.49 31.49 0 0 0-1.857-2.195l1.349-14.838v-.005c.859.327 1.408.534 1.408.534l.92-3.518-.118-.016 1.445-7.474c.126.36.25.717.376 1.09.846 2.655 1.994 5.443 3.245 8.386.577 1.49 1.349 2.943 2.063 4.464.735 1.512 1.457 3.072 2.355 4.573.864 1.52 1.746 3.064 2.636 4.627.99 1.51 1.988 3.034 2.997 4.57.996 1.55 2.197 2.972 3.299 4.476 1.088 1.514 2.318 2.927 3.549 4.338 1.225 1.416 2.468 2.819 3.827 4.1 1.354 1.288 2.585 2.691 4.024 3.852 1.4 1.202 2.767 2.424 4.194 3.536 1.462 1.062 2.906 2.115 4.328 3.149 2.945 1.911 5.816 3.74 8.73 5.11 2.817 1.555 5.693 2.573 8.28 3.626 2.638.918 5.106 1.627 7.275 2.239a66.74 66.74 0 0 0 5.734 1.178c1.597.268 2.863.397 3.724.49l1.318.127s-1.8-.413-4.882-1.32a102.735 102.735 0 0 1-5.483-1.806 281.257 281.257 0 0 1-6.897-2.843c-2.432-1.238-5.123-2.437-7.774-4.08-2.734-1.48-5.385-3.428-8.174-5.336a8451.09 8451.09 0 0 0-4.057-3.175c-1.325-1.127-2.61-2.337-3.954-3.495-1.372-1.13-2.54-2.502-3.83-3.753-1.297-1.246-2.473-2.618-3.644-3.993-1.205-1.346-2.407-2.692-3.474-4.147-1.078-1.442-2.262-2.798-3.24-4.29a4064.18 4064.18 0 0 1-3.012-4.358c-.921-1.488-1.826-2.961-2.719-4.408-.934-1.424-1.658-2.938-2.476-4.359-.781-1.442-1.62-2.819-2.267-4.245-1.364-2.814-2.716-5.458-3.758-7.993-.55-1.256-1.075-2.46-1.573-3.606l-.072-.183 2.254-11.666c-.39-.273-.944-.642-1.635-1.06a38.937 38.937 0 0 0-5.185-2.659l-.402 2.087c0-.005-.008-.024-.008-.024s.005.024.005.031l-4.542 23.528c-.028 0-.054-.003-.054-.003a62.445 62.445 0 0 0-5.246-.088" style="fill:#555;fill-opacity:1;fill-rule:nonzero;stroke:none;stroke-width:.257921" transform="translate(-.002 264.153) scale(1.03102)"/><path d="M537.583 435.645c.193-2.74.717-5.83 1.911-9.046.655-1.578 1.424-3.224 2.59-4.71 1.119-1.524 2.537-2.906 4.428-3.91 1.772-.956 3.895-1.609 6.115-1.529 2.206.046 4.408.65 6.448 1.615 2.056.957 3.874 2.354 5.582 3.879 1.697 1.552 3.103 3.386 4.454 5.27 1.256 1.936 2.437 3.96 3.31 6.125.492 1.05.866 2.192 1.273 3.311.395 1.12.65 2.164.975 3.255 1.073 4.661 1.51 9.301 1.004 13.936-.537 4.586-1.932 9.11-4.628 12.76-1.359 1.805-3.012 3.355-4.96 4.433l-1.544.725-1.437.423c-.593.203-1.075.178-1.61.273-.52.095-1.039.095-1.557.067-2.066-.013-4.013-.572-5.698-1.4-1.723-.772-3.17-1.873-4.485-2.964-2.553-2.29-4.457-4.777-5.899-7.113a45.986 45.986 0 0 1-3.149-6.355c-.706-1.834-1.191-3.304-1.444-4.326l-.423-1.555.446 1.55c.27 1.016.776 2.476 1.509 4.294.753 1.808 1.79 3.967 3.309 6.232 1.54 2.236 3.497 4.66 6.154 6.652 1.346.954 2.801 1.895 4.452 2.486 1.617.652 3.41 1.011 5.202.882.451-.005.9-.039 1.339-.157.417-.109.944-.145 1.276-.31l1.393-.526 1.14-.665c1.53-1.011 2.855-2.44 3.905-4.078 2.076-3.338 3.049-7.457 3.394-11.63.217-4.178-.154-8.586-1.189-12.648-.312-1.063-.57-2.208-.913-3.204-.35-.99-.65-1.988-1.096-2.97-.781-1.997-1.818-3.857-2.858-5.686-2.246-3.533-5.03-6.72-8.413-8.71-1.695-.962-3.516-1.609-5.362-1.795-1.842-.214-3.689.199-5.344.942-.795.307-1.527.861-2.265 1.346-.658.598-1.357 1.143-1.898 1.837-1.184 1.29-2.035 2.798-2.78 4.268-1.427 3-2.036 6.056-2.358 8.751-.291 2.711-.206 5.105-.031 7.055.199 1.95.428 3.479.663 4.503.211 1.032.325 1.58.325 1.58s-.124-.546-.348-1.575c-.253-1.021-.506-2.548-.735-4.498a46.38 46.38 0 0 1-.173-7.09" style="fill:#555;fill-opacity:1;fill-rule:nonzero;stroke:none;stroke-width:.257921" transform="translate(-.002 264.153) scale(1.03102)"/><path d="M553.607 437.135c1.35.55 2.45 1.51 3.289 2.634.407.567.779 1.17 1.06 1.808.157.304.279.668.405 1.016.121.348.183.593.273.898.346 1.465.423 2.803.214 4.217-.224 1.382-.753 2.744-1.686 3.853a5 5 0 0 1-1.734 1.318l-.567.211-.402.073c-.431.07-.71.08-1.055.036-1.32-.147-2.244-.875-2.923-1.535-1.323-1.419-1.893-2.85-2.272-3.833-.36-.995-.485-1.588-.485-1.588s.13.595.544 1.565c.426.936 1.223 2.33 2.703 3.25.72.438 1.63.743 2.41.542.172-.021.415-.13.497-.181l.359-.186c.051-.059.103-.113.155-.16.255-.25.474-.6.65-.97.348-.768.456-1.73.469-2.7a13.555 13.555 0 0 0-.377-2.927c-.08-.276-.157-.62-.234-.838l-.233-.674c-.162-.48-.386-.92-.595-1.367-.467-.848-1.009-1.648-1.672-2.164-.662-.503-1.356-.797-2.19-.539-.716.153-1.428.864-1.846 1.579-.885 1.5-.944 3.105-.885 4.134.083 1.05.245 1.636.245 1.636s-.165-.58-.31-1.63c-.12-1.048-.283-2.58.225-4.452.307-.908.738-1.96 1.906-2.74 1.014-.75 2.747-.858 4.062-.286M839.24 40.195l84.848 15.99-.516 2.528zm-65.61-3.601 118.22 24.304-.265 1.261zM198.379 8.87l118.22 24.306-.266 1.262zM6.678 195.143l118.22 24.307-.267 1.261z" style="fill:#555;fill-opacity:1;fill-rule:nonzero;stroke:none;stroke-width:.257921" transform="translate(-.002 264.153) scale(1.03102)"/><path d="m0 194.08 118.22 24.305-.265 1.263zm122.948 145.102 118.22 24.304-.265 1.261zm50.662-7.129 59.266 11.854-.266 1.264zm73.757-305.474 59.265 11.856-.265 1.262zM563.37 0l34.6 8.339c20.729 5.124 48.368 11.96 76.007 18.794l75.86 19.37c20.659 5.409 34.432 9.012 34.432 9.012l-34.6-8.336c-20.73-5.128-48.368-11.962-76.007-18.797-27.585-7.044-55.172-14.088-75.86-19.373L563.37 0m27.327 63.531s8.684 2.035 21.711 5.084c6.5 1.576 14.085 3.412 22.213 5.38l25.428 6.304c8.643 2.2 17.286 4.402 25.39 6.466l22.116 5.762c12.922 3.471 21.534 5.787 21.534 5.787s-8.684-2.035-21.711-5.083l-22.213-5.38-25.428-6.304-25.387-6.469c-8.094-2.107-15.646-4.075-22.117-5.762l-21.536-5.785M498.51 51.463s8.685 2.032 21.712 5.084c6.502 1.573 14.085 3.412 22.212 5.38 8.117 2.012 16.773 4.155 25.429 6.303 8.643 2.2 17.286 4.403 25.387 6.467 8.094 2.107 15.645 4.075 22.12 5.762l21.533 5.785-21.712-5.081c-6.502-1.576-14.085-3.413-22.212-5.38l-25.428-6.304-25.39-6.469-22.117-5.762-21.534-5.785m152.22-20.195s8.687 2.032 21.715 5.083c6.5 1.574 14.085 3.413 22.212 5.38l25.428 6.302c8.643 2.202 17.286 4.402 25.388 6.468 8.093 2.108 15.645 4.076 22.116 5.76 12.922 3.474 21.537 5.787 21.537 5.787l-21.712-5.08c-6.502-1.576-14.088-3.413-22.212-5.38-8.117-2.015-16.773-4.158-25.431-6.304-8.64-2.203-17.284-4.406-25.388-6.47-8.09-2.109-15.642-4.074-22.116-5.761-12.922-3.472-21.537-5.785-21.537-5.785M155.67 300.097l21.712 5.086 22.212 5.377 25.43 6.304c8.643 2.203 17.285 4.403 25.387 6.469 8.093 2.107 15.645 4.072 22.119 5.76 12.92 3.47 21.534 5.787 21.534 5.787s-8.684-2.035-21.712-5.084c-6.502-1.573-14.085-3.412-22.213-5.38l-25.43-6.304c-8.641-2.202-17.285-4.402-25.386-6.468-8.092-2.107-15.644-4.075-22.117-5.762a62232.168 62232.168 0 0 1-21.536-5.785" style="fill:#555;fill-opacity:1;fill-rule:nonzero;stroke:none;stroke-width:.257921" transform="translate(-.002 264.153) scale(1.03102)"/></svg>