<svg xml:space="preserve" width="512" height="247.847" xmlns="http://www.w3.org/2000/svg"><path d="M2017.29 2794.38c149.02 24.66 253.63 42.51 253.63 42.51-53.86-12.91-143.8-27.45-253.63-42.51m-88.54 146.46c-2.03-2.09-4.36-4.03-6.26-6.39-1.96-2.3-3.98-4.61-5.59-7.19-.85-1.28-1.69-2.53-2.52-3.78l-2.07-3.96c-1.47-2.58-2.51-5.25-3.4-7.84-1.03-2.57-1.8-5.06-2.23-7.43-.34-1.57-.68-3.04-.96-4.44h-.01c-.14-.7-.29-1.4-.38-2.05-.18-1.96-.33-3.67-.46-5.07-.09-1.19-.17-2.1-.23-2.84l-135.28-15.33c-.1.71-.22 1.57-.38 2.69-.21 1.42-.45 3.13-.74 5.09-.31 1.58-.33 3.33-.4 5.19h.03c-.03.49-.05.92-.09 1.44-.02 2.43-.42 5.13-.12 7.9.22 2.78.21 5.8.62 8.84.54 3.01.85 6.23 1.61 9.4.91 3.1 1.43 6.46 2.68 9.56 2.1 6.35 4.97 12.51 8.19 18.05.21.35.43.64.64.98 52.31 6.57 105.06 9.93 156.55 8.07 1.7-.07 3.39-.28 5.08-.46-2.48-1.48-5.04-3.12-7.66-5.07-2.24-1.58-4.36-3.5-6.62-5.36" style="fill:#555;fill-opacity:1;fill-rule:nonzero;stroke:none" transform="matrix(.13296 0 0 -.13296 0 465.308)"/><path d="M1228.9 2623.82c3.64 5.89 9.09 10.5 15.34 13.92l3.76.42c21.21 2.74 42.6 5.38 64.08 8.08 26.94-24.2 54.98-47.15 83.42-69.63 14.81-11.78 30.11-22.94 45.42-34.11 7.78-5.41 15.42-11.02 23.32-16.27 7.9-5.26 15.76-10.57 23.87-15.55 7.98-5.16 16.21-9.96 24.46-14.74 8.21-4.79 16.84-9.17 25.23-13.53l50.6-25.34c32.91-16.84 65.89-33.7 98.35-51.2l28.06-57.39 14.61-29.63 1.82-3.7 1.38-3.39 1.55-3.84.67-3.08c.7-2 .47-4.15.69-6.25-.34-1.94-.45-3.93-1.36-5.59-2.84-6.94-12.13-11.59-21.73-13.56-1.18-.26-2.43-.47-3.57-.62l-4.15-.54-8.19-1.1-16.4-2.2-65.56-8.87c-43.7-6.04-87.37-12.22-131.02-18.62l-65.43-9.92c-2.32-.35-4.63-.74-6.95-1.09l-50.19-6.07c-1.7 3.88-3.4 7.75-5.03 11.67-9.49 22.64-18.11 45.76-26.88 68.82-8.69 23.09-17 46.34-25.39 69.58l-49.9 139.66-12.66 34.9c-4.12 11.59-8.82 23.29-13.08 34.7-.87 2.83-2.14 5.62-2.48 8.55l-.83 4.36c-.17 1.46-.1 2.92-.18 4.39-.14 5.85 1.16 11.79 4.35 16.78zm631.2-245.03c-30.56 8.58-59.31 15.75-84.04 21.54-45.28 10.6-77.06 16.51-82.11 17.44-33.04 17.58-66.24 34.5-99.82 50.81l-51.11 24.58c-8.45 4.17-16.8 8.08-25.02 12.59-8.21 4.48-16.42 8.97-24.44 13.86-8.12 4.69-16.04 9.74-24 14.74-7.99 4.95-15.8 10.2-23.71 15.29-15.66 10.46-31.13 21.21-46.53 32.09-15.44 10.83-30.65 22-45.77 33.29-13.73 10.34-27.43 20.73-41.02 31.28 17.27 2.17 34.58 4.37 51.95 6.83 9.07 1.24 18.2 2.5 27.3 3.75l-54.17-8.62c112.38-91.83 257.69-195.9 404.95-208.06l210.86-17.4c3.11-.26 6.26-.5 9.38-.44l106.37-15.28-80.83 28.91c.58.62 1.19 1.23 1.77 1.85 62.61 67.05 135.22 149.96 214.25 198.93.38-.86 1.02-1.83 2.07-2.95.06-.11.16-.23.22-.34-1.14-1.71-4.76-7.21-10.05-16.03-6.43-10.76-15.16-26.45-24.14-46.02-4.51-9.79-9.09-20.53-13.56-32.04-4.41-11.44-8.98-23.91-12.72-36.75-.98-3.21-1.98-6.44-2.98-9.7-.92-3.3-1.69-6.71-2.55-10.09-1.68-6.8-3.48-13.68-4.64-20.7-1.29-7-2.81-14.04-3.57-21.22-.9-7.16-2.06-14.33-2.42-21.58-.49-7.24-1.23-14.48-1.18-21.72-.1-7.24-.39-14.46.08-21.62.28-7.16.46-14.28 1.32-21.27.67-7.01 1.28-13.95 2.52-20.69 1.05-6.78 2.04-13.45 3.62-19.88 1.44-6.45 2.7-12.81 4.6-18.83 3.24-12.2 7.33-23.46 11.33-33.76 2.2-5.09 4.3-9.96 6.3-14.6 1.69-3.34 3.25-6.42 4.82-9.5-3.89 3.39-8.18 7.02-13.03 10.82-8.05 6.44-17.43 13.34-27.95 20.42-6.31 4.3-13.11 8.63-20.23 12.98-9.63 6.17-20.87 12.68-33.79 19.2-.87.45-1.78.9-2.65 1.35-.51.25-.98.5-1.49.75-5.62 2.91-11.28 5.81-17.15 8.66-14.35 6.84-29.4 13.55-44.79 19.73-15.52 6.23-31.33 12.19-47.35 17.72-7.97 2.86-15.98 5.58-24.01 8.15-8.01 2.64-15.99 5.28-23.97 7.67-15.9 4.99-31.65 9.54-46.92 13.86zm401.9 55.1c3.91 14.72 8.43 29.47 13.21 44.81 4.81 15.08 10.03 30.41 15.71 45.5 5.5 15.18 11.42 30.19 17.66 44.8 6.25 14.61 12.54 28.93 19.1 42.58 6.66 13.6 13.07 26.77 19.67 39 3.21 6.16 6.5 12.06 9.7 17.77 3.11 5.76 6.26 11.24 9.33 16.48 3 5.29 6.05 10.24 8.91 14.99 2.82 4.77 5.5 9.3 8.17 13.47 5.06 8.23 9.69 15.25 13.57 21.09 39.78-5.05 84.41-10.71 129.07-16.37 16.81-2.13 33.62-4.27 50.17-6.37 21.79-5.5 61.97-16.01 72.59-21.31 12.23-6.1 30.75-21.64 36.8-26.84-.45-.04-.87-.05-1.33-.1-16.69-1.67-35.5-5.51-54.85-13.06-19.33-7.47-39.54-17.81-58.84-31.74-19.38-13.81-38.29-30.57-55.28-50.21-17.16-19.46-32.64-41.54-45.83-65.37-13.16-23.86-23.94-49.46-32.4-75.79-8-26.24-13.8-53.77-16.54-80.74-2.76-27.1-2.59-54.07.43-79.85 2.78-25.81 8.76-50.37 16.83-72.75 7.93-22.45 18.64-42.46 30.29-59.61 4.34-6.44 8.95-12.26 13.64-17.78-30.7 29.83-94.21 118.78-49.71 318.66l-89.7 24.23c-5.44-13.54-11.41-30.82-16.35-51.21-12.65-52.16-21.97-94.29-21.97-94.29s6.05 35.12 13.33 71c1.24 5.48 2.7 11.73 4.43 18.75 5.88 24.08 14.87 55.91 26.12 86.96 5.47 15.58 11.5 30.96 17.56 45.2 6.07 14.25 11.96 27.45 17.41 38.59 10.73 22.35 18.76 36.84 18.76 36.84s-2.13-3.54-5.87-9.75c-3.65-6.26-8.93-15.17-14.66-26.2-5.72-11.04-12.22-24.02-18.44-38.27-6.23-14.24-12.44-29.63-18.08-45.23-3.54-10.1-6.84-20.23-9.89-30.19l-51.53 13.78c-9.09-27.62-21.43-68.2-31.34-112.06-17.97-79.57-18.62-100.96-18.62-100.96s-.12 14.99 1.04 37.01c1.89 13.77 4.96 32.2 9.05 53.8 4.61 23.86 10.73 51.51 18.68 80.74zm-60.3-218.96c9.75 2.81 46.91 12.04 79.71-.01 38.12-14 50.86-52.1 50.86-52.1l158.86-56.65c4.88-5.03 9.8-9.74 14.65-13.88 5.89-4.99 11.67-9.28 17.25-13.07l-200.37 74.48c-8.81 13.55-44.91 60.37-120.96 61.23zm351.55-65.73c-2.2 3.11-4.41 6.29-6.58 9.46-9.69 14.96-17.75 32.08-23.86 51.2-18.73 58.56-17.34 128.26 3.91 196.26 21.26 68 59.82 126.09 108.57 163.54 48.38 37.18 100.98 49.55 148.13 34.81.17-.06.33-.13.5-.18l-4.37-20.67c-87.49 20.15-186.57-57.73-224.39-178.71-31.82-101.78-10.63-203.2 46.55-252.64l-21.82-31.07c-9.76 7.92-18.67 17.29-26.64 28zm-3.08-82.78 11.72 15.8c2.29-1.45 4.54-2.82 6.7-4.02 9.68-5.5 17.83-8.71 23.41-10.73 5.64-1.86 8.65-2.85 8.65-2.85s-2.96 1.12-8.51 3.2c-5.49 2.23-13.41 5.86-22.85 11.56-2.08 1.24-4.24 2.66-6.43 4.14l19.78 26.65c6.15-4.4 12.58-8.33 19.29-11.68 6.65-3.31 13.56-6.1 20.71-8.33 13.72-4.29 27.87-6.33 42.22-6.32l-8.56-24.66c-7.84-.64-15.11-.73-21.47-.29-11.01.69-19.57 2.21-25.36 3.51-5.75 1.45-8.82 2.22-8.82 2.22s3.03-.9 8.72-2.58c5.73-1.52 14.28-3.52 25.36-4.51 6.17-.62 13.22-.78 20.84-.44l-14.58-42.04-16.94 37.98 15.51-42.11-1.72-4.94c-10.95-5.93-18.73-15.04-23.93-24.3-.66-1.19-1.17-2.37-1.76-3.56-3.49 9.81-6.76 19.7-9.81 29.65l-.02.06-.01.02c-4.53 10.51-9.99 20.57-16.75 29.76-3.41 4.55-7.05 8.98-11.35 12.73a51.918 51.918 0 0 1-5.32 4.14c-2.68 2.11-5.19 3.64-7.57 4.93 2.17-.8 4.19-1.51 5.93-2.08l9.36-2.87s-3.16 1.25-9.1 3.59c-4.44 1.81-10.33 4.59-17.34 8.37zm56.42-79.24c1.28-4.15 2.52-8.32 3.88-12.44a90.904 90.904 0 0 1-6.76-22.87c-1.37-9.3-1.67-17.54-1.04-24.25.49-6.72 1.31-11.97 2.14-15.47.07-.33.12-.57.18-.87l-10.34-29.8c-4.46 11.46-7.71 22.92-9.67 33.86-.1.54-.15 1.06-.24 1.6-.5 11.87-.79 34.01 3.25 46.15 4.9 14.76 15.7 22.28 18.6 24.09zm3.42-76.61c.46-1.21 13.21-34.32 22.82-45.51 9.8-11.41 20.23-16.61 30.35-20.84 10.11-4.23 31.62-.3 44 9.82 19.15 15.65 24.37 42.05 22.48 65.57-.32 4.07-.69 8.15-1.52 12.14-.86 4.09-2.2 8.07-3.53 12.03-.58 1.73-1.12 3.5-1.67 5.28-1.68 5.53-3.4 11.15-6.56 15.86-.58.88-8.84 8.98-8.66 9.44-.02-.06-13.92-35.53-17.19-43.88-.27.37-.52.81-.8 1.17-4.38 5.65-9.66 8.9-13.56 10.43-1.71.66-3.09.97-4.18 1.17-4.84 11.33-9.7 21.77-13.7 30.79-4.05 9.13-7.82 16.57-10.27 21.85-1.57 3.17-2.68 5.4-3.35 6.75l.78 2.08.13.05-.06.13.43 1.15c11.08 3.59 23.68 3.11 35.18-1.54 12.88-5.18 24.27-14.74 33.12-26.38 4.42-5.83 8.28-12.2 11.32-18.98 3.27-6.71 5.31-13.64 7.38-21.21 3.43-14.21 4.64-29.61 2.09-44.01-2.42-14.42-8.03-28.2-17.04-38.77-4.36-5.4-9.99-9.55-15.74-12.71-1.49-.7-2.86-1.53-4.43-2.14l-4.84-1.66c-3-.76-6.29-1.6-9.45-1.76-12.86-1.26-25.09 2.76-34.86 8.54-3.68 2.13-6.92 4.58-9.97 7.13-13.03 11.71-21.5 25.83-26.41 36.09-2.32 5.28-3.9 9.67-4.76 12.79-.16.55-.29.98-.42 1.44zm30.97-95.49c1.31-.85 2.6-1.73 3.97-2.51 33.6-19.2 70.12-26.01 101.07.1 30.95 26.11 39.07 60.36 44.26 88.73 5.19 28.37-5.96 92.59-38.27 127.45-7.19 7.76-14.08 13.81-20.49 18.65 13.71-9.92 28.91-25.49 41.18-46.98 7.7-13.54 14.08-28.98 18.42-46.37 4.14-17.14 6.19-35.94 5.11-55.15-1-19.22-5.88-38.89-14.87-56.81-1.99-4.62-5.06-8.64-7.57-13-3.17-3.88-5.82-8.25-9.51-11.69-6.63-7.58-15.05-13.48-23.73-18.18l-6.62-3.18c-2.36-.93-4.93-1.64-7.39-2.47l-3.5-1.12-3.69-.67c-2.47-.39-4.91-1.01-7.39-1.22-9.97-.9-19.98.05-29.64 2.42-15.33 4.25-29.38 12.12-41.34 22zm-13.17 180.65a54.31 54.31 0 0 0 8.59 6.09l-4.93-14.22zm-22.77-84.3c-.05.25-.09.46-.14.73-.77 3.52-1.5 8.78-1.88 15.48-.51 6.7-.07 14.9 1.43 24.1 1.2 6.73 3.21 14.09 6.6 21.36 2.46-7.38 5.02-14.72 7.75-22.01zm78.4 4.62c-1.26 3.06-2.52 6.11-3.77 9.14-1.71 4.03-3.36 7.92-5.03 11.83 2.96-1.6 6.69-4.55 9.81-9.25 1.66-2.47 3.12-5.38 4.33-8.58 1.15-2.97 2.27-6.85 2.74-10.44.36-2.58.33-5.29.09-8.01l-5.46 2.22c.08.77.27 1.51.29 2.29.05.9-.08 2.12-.27 3.3-.25 1.33-.3 1.39-.82 2.9zm-38.67-7.79c.01-.04.01-.06.02-.1.03-.21.09-.48.13-.7-3.07 4.15-5.74 8.37-8.05 12.36-4.89 8.59-8.86 15.9-11.4 21.14-.93 1.86-1.67 3.32-2.3 4.57l.18.48c2.71-5.84 12.81-27.01 21.42-37.75zm-7.89 73.69 7.65 20.33c.48-1.48 1.21-3.76 2.22-6.9 1.93-5.5 4.42-13.46 7.87-22.82 3.47-9.36 7.3-20.37 11.79-32 2.26-5.82 4.59-11.83 6.95-17.93 1.22-3.04 2.44-6.1 3.67-9.18l1.84-4.62c.01-.05.52-1.59.47-1.9 0-.47.1-.9.05-1.67-.01-5.47-2.62-11.63-6.83-13.46-4.15-2.1-10.15.2-14.96 3.19-2.64 1.38-4.64 3.35-6.58 5.2-2.02 1.97-3.78 4.21-5.49 6.39-.18.23-.31.46-.49.7-.03.25-.1.56-.12.8.98-1.21 1.94-2.33 2.87-3.23 10.45-10.1 11.75-7.49 18.92-6.18 7.17 1.31 6.51 11.42 6.51 11.42zm41.25 109.56 11.25 29.89c31.43 1.2 63.74 13.69 94.05 36.85 43.59 33.29 77.96 84.8 96.79 145.04 24.25 77.57 17.7 154.9-12.1 209.2 1.67 3.17 3.35 6.34 5.02 9.51 4.65-9.53 8.75-19.69 12.21-30.51 18.74-58.56 17.34-128.26-3.91-196.25-21.27-68.01-59.82-126.09-108.57-163.55-30.71-23.6-63.11-37.16-94.74-40.18zm210.03 201.62c21.69 69.37 23.08 140.58 3.92 200.51-4.13 12.89-9.15 24.88-14.9 36l5.18 9.8c5.26-11.62 9.89-24.09 13.58-37.42 5.92-20.74 9.39-43.33 11.06-66.78 1.56-23.48.61-47.89-2.4-72.42-3.25-24.56-8.68-49-16.18-73.07-.78-2.47-1.66-4.91-2.48-7.36l-.76 1.74c1.01 2.99 2.04 5.97 2.98 9zm33.05 167.77c-3.85 19.57-12.72 58.91-25.44 81.56l143.53 262.8-.73 1.13c10.19-11.55 20.23-23.24 29.98-35.17 2.1-2.56 4.17-5.16 6.25-7.74-1.07-1.64-3.12-4.8-6.01-9.24-4.24-6.79-10.54-16.35-17.65-28.08-7.11-11.73-15.61-25.29-24.33-40.04-1.1-1.85-2.2-3.7-3.31-5.57l-.84-1.41-.32-.52-.46-.68-1.86-2.74c-2.45-3.68-4.92-7.41-7.42-11.16-4.86-7.59-9.81-15.3-14.75-23-9.65-15.58-19.08-31.3-27.21-46.49-4.1-7.58-7.86-15.01-11.06-22.29-1.7-3.55-3.09-7.3-4.5-10.82-1.15-3.46-2.37-6.99-3.02-10.44-3.07-13.64-2.6-25.45-1.45-33.4 1.23-8.01 3.26-12.2 3.26-12.2s-1.44 4.41-1.9 12.34c-.12 1.67-.13 3.56-.11 5.52.73-9.78 2.32-17.28 2.32-17.28s16.62 38.22 42.55 65.68c25.93 27.45 96.44 58.38 96.44 58.38-.35.1-.78.19-1.26.26 1.44.03 2.83.07 4.28.09 15.78.15 32.89-.09 50.88-1.68 17.99-1.63 36.87-4.37 56.14-8.42 9.64-2.02 19.37-4.37 29.12-7.11 4.74-1.46 10.02-2.63 14.29-4.73 2.37-1.22 4.62-2.74 6.58-4.54-.86-5.46-5.89-27.43-33.1-45.75-8.55-5.76-35.66-15.89-70.47-27.56-.32 4.22-.66 8.27-1.08 11.96-1.05 11.1-2.16 19.79-3 25.7-.79 5.92-1.21 9.08-1.21 9.08s.37-3.16 1.05-9.1c.75-5.92 1.71-14.62 2.57-25.73.37-3.75.63-7.88.89-12.17-76.81-25.71-190.69-58.81-227.64-69.44zm117.91 167.01c-19.21-1.75-37.54-3.78-43.95-4.51.13.22.26.44.4.65 4.69.51 13.04 1.37 24.45 2.36 5.62.48 12.07 1 19.1 1.5zm-249.19-18.26 5.47 22.86c4.59-2.13 9.96-4.88 16.07-8.58 9.47-5.64 20.21-13.8 30.96-24.7 10.77-10.89 21.23-24.8 30.55-41.13 2.36-4.11 4.62-8.39 6.77-12.82l-5.23-10.56c-20.27 36.72-49.38 62.63-84.59 74.93zm-6.47-27.05 4.82 20.13c5.04-1.8 9.99-3.79 14.76-6.17 27.96-13.95 51.08-37.79 67.64-69.6l-.04-.08c-1.66-3.36-3.32-6.72-4.99-10.08-18.23 31.14-44.36 54.16-76.97 64.37-1.73.54-3.48.97-5.22 1.43zm-151.62-70.1c35.52 38.42 78.92 60.87 121.04 60.23l-11.62-111.43c-2.1-.21-4.32-.56-6.66-1.17-5.02-1.09-10.39-3.39-15.9-6.47-5.37-3.29-10.97-7.26-16.2-12.22-5.36-4.83-10.43-10.53-15.09-16.84-4.69-6.29-9-13.17-12.86-20.44-3.7-7.33-7.16-14.95-9.95-22.81-2.81-7.96-5.04-15.76-6.78-23.91-1.77-8.06-2.81-16.08-3.32-23.89-.45-4.96-.39-9.77-.19-14.5-8.56 62.31 30.06 111.08 30.06 111.08zm35.47-421.58c-14.49-.28-28.77 1.65-42.57 5.96-13.6 4.26-26.26 10.7-37.87 18.99l22.49 30.31c6.02-4.48 12.38-8.46 19.09-11.8 5.83-2.92 11.92-5.37 18.26-7.36 10.18-3.18 20.63-4.97 31.21-5.5zm34.02 45.79c-2.16-.31-4.32-.58-6.48-.77l35.06 93.12c.3-.07.57-.13.9-.2l.07-.02v.01c.49-.1 1.07-.19 1.63-.28zm-1.55 131.31c.31-1.18.62-2.36 1-3.5 1.84-6.54 4.74-12.32 7.67-17.29 1.7-2.37 3.31-4.62 4.97-6.58 1.56-1.53 2.97-2.96 4.37-4.22l-35.02-100.95c-10.84.15-21.51 1.78-31.86 5.01-12.07 3.77-23.14 9.56-33.17 16.99zm80.4 300.86c1.43-.39 2.87-.73 4.29-1.18 5.66-1.77 11.11-3.97 16.34-6.57 22.15-11.05 40.26-29.34 53.63-52.63l-34.78-61.44s-23.03 10.35-38.66 8.44c-19.31-2.35-29-18.49-33.17-28.36l-1.18-1.15 7.67 33.86.12.57 3.38 14.92zm-63.64-186.17c-2.71-5.49-5.04-11.23-7.25-17.03l-37.76 14.03c2.56 7.35 5.7 14.47 9.07 21.34 3.69 6.99 7.48 13.8 11.84 19.93 4.34 6.12 8.8 11.9 13.63 16.79 4.72 5.03 9.81 9.1 14.72 12.53 5.07 3.14 9.9 5.83 14.54 7.33 1.98.72 3.87 1.18 5.71 1.56l-2.38-41.91c-3.41-4.08-6.76-8.34-9.84-13.05-4.52-6.65-8.57-13.93-12.28-21.52zm105.24-55.09c-12.79-18.08-30-31.24-51.94-32.49-19.94-1.15-47.51 4.69-48.89 29.17-1.46 25.75 16.39 65.11 16.39 65.11-21.47-43.04-24.59-83.42-7.71-128.88 2.34-6.28 5.14-12.71 10.32-16.96 1.37-1.13 2.89-2.02 4.47-2.77-1.88.11-3.7.26-5.18.54-1.46.12-2.88.39-4.24.7l.09.26s-.77.31-2.2.87c-1.53.38-3.47 1.58-6 3.16-1.19.91-2.4 2.12-3.82 3.3-1.28 1.38-2.56 3.02-3.98 4.73-2.46 3.79-5.13 8.32-7.02 13.93-2.16 5.46-3.46 11.89-4.61 18.72-.9 6.89-1.47 14.29-1.26 21.99.05 7.69.83 15.67 2.05 23.72.48 4.08 1.49 7.98 2.21 12.03.87 4 2.07 8.26 3.03 12.17 2.4 7.96 5.03 15.88 8.28 23.41 3.2 7.55 6.77 14.83 10.83 21.52 3.71 6.38 7.9 12.16 12.16 17.47l.41.14.13.57s.03.04.04.05c-.1-.37-.17-.62-.17-.62s1.65 2.17 4.4 5.25c.75.81 1.49 1.67 2.25 2.44.32.34.67.7 1.01 1.05 2.31 2.31 4.64 4.44 7.07 6.26 4.82 4.01 9.9 6.75 14.5 8.92 2.39.84 4.64 1.67 6.76 2.25 2.17.35 4.17.8 5.98.99h.22c.76-.06 1.53-.08 2.29-.23 6.72-1.38 12.38-3.73 17.12-6.26 2.85-1.8 5.82-3.9 9.01-6.53 2.11-1.87 4.29-3.94 6.43-6.23l-.56-1.18.61 1.13c2.38-2.54 4.73-5.35 6.91-8.51 1.04-1.5 2.1-3.03 3.19-4.59.92-1.67 1.86-3.36 2.81-5.08 2.07-3.36 3.4-7.25 5.14-11.03 1.8-5.13 3.47-10.54 4.71-16.17-4.97-19.18-11.81-38.15-23.24-54.32zm30.7 77.64s18.94-56.69-13.57-112.77c3.47 7.08 6.11 14.55 8.62 22.31 2.37 9.38 4.7 19.64 5.02 29.55.55 4.94.09 9.9.14 14.75-.56 4.83-.67 9.65-1.7 14.27-1.39 9.34-4.43 18.02-7.66 25.98-1.96 3.85-3.51 7.76-5.79 11.13-1.06 1.72-2.1 3.42-3.12 5.08-1.19 1.55-2.35 3.08-3.49 4.57-2.49 3.29-5.15 6.16-7.83 8.74l25.24 46.54c4 7.34 7.93 14.72 11.85 22.1 8.66-17.99 14.78-38.43 18.05-60.49zm-288.2-51.07c-7.08-75.11 24.46-144.46 24.46-144.46l76.54 63.57c1.83-3.25 3.66-6.06 5.39-8.35l-78.96-81.48c-38.1 50.34-49.25 133.52-23.08 217.23 10.52 33.66 25.95 63.79 44.53 89.1-17.68-31.67-44.23-86.27-48.88-135.61zm506.83 419.06c-6.89 9.18-14.1 18.11-21.35 27-7.28 8.88-14.64 17.67-22.2 26.35l-2.45 2.81-1.79-3.37c-17.59-32.92-34.42-66.22-51.66-99.33-17.27-33.08-34.04-66.42-50.89-99.71l-25.28-49.95-13.44-27.14c-1.83 3.48-3.68 6.93-5.64 10.18-9.74 16.5-20.84 30.32-32.14 41-11.25 10.73-22.37 18.63-32.1 24.02a146.06 146.06 0 0 1-16.61 8.09l74.91 313.31c2.37-.62 5.1-1.35 7.98-2.31 5.21-1.75 11.54-3.87 18.8-6.3l2.39-.99.65-2.53s1.16.31 3.31.89c5.45-2.25 11.18-4.64 17.35-7.45 8.32-4.44 17.75-8.56 26.84-14.5 4.58-2.9 9.53-5.52 14.15-8.85 4.65-3.3 9.41-6.68 14.24-10.11 4.81-3.47 9.31-7.5 14.09-11.31 4.83-3.76 9.35-7.98 13.87-12.3 9.34-8.31 17.8-17.8 26.44-27.14 8.12-9.78 16.33-19.53 23.48-29.86 1.85-2.53 3.69-5.06 5.52-7.57 1.69-2.61 3.37-5.21 5.04-7.79 3.29-5.21 6.74-10.23 9.78-15.39 5.86-10.43 11.87-20.36 16.55-30.31 2.43-4.93 4.92-9.67 7.11-14.36 2.08-4.74 4.09-9.32 6.01-13.72.09-.18.15-.34.23-.52-1.26 2.24-2.42 4.52-3.76 6.72-1.43 2.5-3.07 4.85-4.6 7.28a212.07 212.07 0 0 1-4.75 7.18c-6.41 9.53-13.18 18.8-20.08 27.98zm44.32 218.54-75.3-149.06c-1.39 1.81-2.76 3.62-4.16 5.43-8.45 9.8-16.77 19.78-26.02 28.61-4.47 4.58-8.95 9.06-13.77 13.09-4.76 4.07-9.26 8.37-14.07 12.11-4.86 3.71-9.63 7.35-14.3 10.91-4.66 3.6-9.66 6.49-14.29 9.64-9.2 6.46-18.8 11.07-27.29 15.98-1.3.64-2.49 1.18-3.77 1.79 27.43 7.31 78.65 20.96 144.48 38.49 15.39 4.12 31.64 8.48 48.49 13.01zm-585.79-538.65c-6.37 2.83-14.52 6.47-19.06 8.49 3.2 7.18 6.52 14.29 10.08 21.22 11.5 21.87 24.62 42.48 39.27 60.89 14.74 18.32 30.44 34.93 47.13 48.6 16.57 13.8 33.82 24.93 50.82 33.02 16.97 8.1 33.48 13.58 48.53 16.39 15.05 2.84 28.53 3.43 39.52 2.68 5.44-.34 10.28-.89 14.48-1.51l-1.57-14.49c-17.25.82-62.76.15-102.12-25.49-56.92-37.07-100.33-87.98-127.08-149.8zm6.86 270.41c-.36.06-.73.11-1.09.17l14.59 31.26zm314.65 198.41-60.66-286.66-1.36.41c-.12.04-.26.1-.37.14-5.64 1.86-8.65 2.85-8.65 2.85l3.64-1.37-9.21 2.76 5.57-1.39s-3.03.89-8.72 2.58c-1.39.36-2.95.76-4.67 1.17l-6.16 1.85-.06-.53c-4.19.8-9.02 1.53-14.47 2.02-11.07 1.1-24.71.94-40.07-1.47-15.36-2.35-32.36-7.37-49.76-15.39-34.92-15.79-71.09-44.02-101.04-81.38-15.03-18.64-28.5-39.5-40.32-61.66-11.62-22.27-21.46-45.91-29.22-70.22-7.45-24.3-12.87-49.5-15.99-74.36-2.9-24.95-3.71-49.77-1.98-73.65 1.32-18.96 4.33-37.24 8.64-54.52-1.27 4.32-2.51 8.73-3.69 13.33-29.52 114.96 17.17 221.97 17.17 221.97l-25.27 12.6c5.1 12.15 10.75 24 16.97 35.43 12.69 23.04 26.98 44.79 43.29 63.83 16.14 19.16 33.78 35.95 52.08 49.82a271.221 271.221 0 0 0 55.66 32.73c26.6 11.51 51.81 16.29 72.64 17.44l15.81-1.3 17.71.02c1.12-.14 2.28-.28 3.33-.42l9.53-1.59c1.03-.2 2.14-.4 3.04-.6l9.53-2.24-4.97 1.59 4.92-.82c5.63-4.51 9.77-8.46 12.35-11.39 2.61-3.02 3.72-4.84 3.72-4.84s-1.06 1.85-3.6 4.94c-2.39 2.87-6.21 6.71-11.35 11.11l1.98-.33s-2.61 1.62-6.88 4.19c-5.17 3.87-11.27 8.07-18.51 12.11-4.46 2.69-9.5 5.01-14.67 7.73-5.36 2.3-10.87 5.07-16.87 7.32-1.33.51-2.71 1.05-4.06 1.57-.93.4-1.88.82-2.78 1.2-2.89 1.19-6.76 2.5-11.3 3.88-.21.07-.41.16-.63.22-6.55 2.22-13.34 4.43-20.45 6.27-3.54.99-7.13 1.99-10.76 3-3.67.85-7.38 1.72-11.13 2.59-3.76.87-7.56 1.75-11.39 2.64-3.87.73-7.77 1.47-11.71 2.21-15.72 3.23-32.11 5.28-48.65 7.94-13.46 2.06-27.13 4.16-40.8 6.25l68.09 141.51c9.45 1.95 18.76 3.88 27.79 5.75 23.94 4.95 46.34 9.59 67.06 13.88 2.59.53 5.15 1.06 7.69 1.59 3.29.69 5.21 1.26 7.85 1.89 4.92 1.22 9.73 2.41 14.44 3.58 9.41 2.34 18.38 4.57 26.9 6.68 45.8 11.38 78.32 19.45 94.78 23.54zm-338.29-194.79c-13.24 2.03-26.42 4.05-39.44 6.04l-8.86 20.84-27.87 76.24c11.76 2.44 23.51 4.87 34.91 7.23 35.24 7.29 68.67 14.21 100.13 20.72l-25.95-58.65zm-106.67 96.81 35.09-85.84c-12.96 1.99-25.62 3.93-37.86 5.8l6.36 9.51s-1.34-1.54-3.86-4.41c-1.14-1.34-2.6-2.96-4.26-4.83-17.19 2.64-33.51 5.14-48.56 7.45l3.2 11.78 18.21 54.12 5.17.94c8.99 1.86 17.69 3.66 26.51 5.48zm-67.94-86.61c4.06.64 7.98 1.3 11.73 1.57 2.64.22 5.13.37 7.54.45 11.47-1.46 23.6-2.99 36.26-4.6-4.24-5.22-9.19-11.37-14.62-18.54-6.07-7.89-12.8-16.91-19.6-27.12-6.93-10.12-14.21-21.26-21.35-33.39a670.953 670.953 0 0 1-21.62-38.63c-6.99-13.68-14.1-27.89-20.5-42.7a873.898 873.898 0 0 1-18.4-45.33c-5.66-15.4-10.75-30.94-15.51-46.42-.16-.5-.28-1.01-.43-1.51l-102.29 27.63c-4.69-16.57-9.22-41.34-10.63-77.38-2.41-61.8 5.76-115.08 10.19-138.7-.85 2.4-1.69 4.83-2.48 7.32-2.07 5.63-3.54 11.62-5.19 17.71-1.8 6.05-3.03 12.38-4.34 18.82-1.49 6.4-2.38 13.03-3.34 19.73-1.14 6.68-1.62 13.53-2.22 20.43-.77 6.89-.81 13.87-1.04 20.89-.38 7.02.02 14.06.18 21.11.01 7.07.83 14.09 1.37 21.11.42 7.04 1.59 13.96 2.53 20.87.82 6.94 2.26 13.66 3.59 20.34.68 3.34 1.26 6.66 2.02 9.97.85 3.3 1.69 6.57 2.53 9.82 3.16 13.09 6.99 25.19 10.88 36.9 3.91 11.61 7.96 22.48 11.98 32.39 8.02 19.85 15.99 35.87 21.91 46.89 4.85 9.01 8.2 14.67 9.28 16.45 1.34-2.17 3.97-4.56 7.53-6.39 3.79-2.07 8.56-3.66 13.77-4.66 2.62-.45 5.3-.91 8.12-1.02 2.59-.18 5.69-.15 8.45-.02 5.68.52 11.42 1.46 16.56 4.16 2.52 1.32 5.18 3.11 6.52 6.48 1.49 3.95-.78 6.84-2.52 8.38-3.73 3.01-7.26 3.64-9.63 4.2-1.07.21-1.9.32-2.53.4l2.89 49.36c.71.62 1.53 1.34 2.57 2.25 2.91 2.61 7.23 6.14 12.57 10.14 10.64 8.04 25.86 17.5 42.42 23.71 4.16 1.46 8.29 3.02 12.49 4.06 4.16 1.23 8.33 2.07 12.36 2.87zm-9.18 17.97c-36.19 5.54-61.67 9.45-69.03 10.58l1.84 31.44c6.22 1.09 12.56 2.19 18.71 3.27 21.01 3.79 41.54 7.49 61.81 11.14l-8.21-36.65zm-75.76 40.52-2.82-104.07-3.4-49.79s-9.07-8.43-17.49-5.85c-7.2 2.21-16.02 5.42-18.45 6.31-44.2 40.21-87.16 82.14-130.7 123.2 11 1.92 21.96 3.84 32.85 5.73 4.73-.62 9.65-1.28 14.7-1.95l105.14-119.24 1.87 107.57 1.75 35.2c5.5.96 11.1 1.94 16.55 2.89zm-23.29-4.07.02-21.79c-24.98 3.36-48.74 6.55-70.55 9.47 23.88 4.17 47.36 8.28 70.53 12.32zm-562.9 163.63c-1.48-.24-2.97-.47-4.46-.72-43.17-7.14-86.22-15.34-129.23-21.48l-15.98-2.05-8.16-.79-4.08-.4c-1.09-.08-2.48-.05-3.71-.09-10.15-.72-20.11 1.08-29.26 4.49-18.32 6.91-32.87 22.73-40.64 40.96l-5.62 15.09c69.13 11.52 138.33 22.77 207.59 33.36l54.12 8.01 27.05 3.75c9 1.15 18.16 2.43 27.1 3.32 18 1.95 36.12 2.95 54.13 2.21 9.01-.34 17.99-1.19 26.79-2.8 8.63-1.59 17.83-3.92 24.76-7.99l.48-.29c4.43-2.12 9.27-5.36 11.02-9.17 1.95-3.57-1.94-7.62-6.14-10.14-4.69-2.79-9.56-4.61-14.76-6.49-5.17-1.82-10.37-3.57-15.63-5.2-20.98-6.62-42.2-12.66-63.42-18.64-30.57-8.57-61.25-16.81-91.95-24.94zm-462.85-134.09-34.69-4.14c-1.53 4.32-4.04 11.67-7.16 21.56 10.16 1.09 20.18 2.17 30.01 3.26zm-369.993-50.94-170.578-20.66c53.477 7.28 107.074 13.68 160.719 19.58zM393.32 2667.68c-.371-1.4-.953-2.8-1.175-4.3-.055-1.52-.11-3.08-.165-4.68l1.172-4.74c.707-1.49 1.567-2.95 2.375-4.48 8.203-11.31 22.981-18.43 39.036-25.18 4.035-1.76 8.304-3.19 12.613-4.87 4.387-1.51 8.988-2.71 13.644-4.14 9.473-2.17 19.45-4.2 29.961-5.54 20.981-2.98 43.84-4.78 68.274-5.93 48.879-2.32 104.101-2.37 164.281-1.02 60.187 1.36 125.348 4.18 194.215 8.03 34.429 1.87 69.793 4.17 105.929 6.55 18.05 1.25 36.3 2.52 54.73 3.81 15.19 1.31 30.56 2.65 45.98 3.99l153.36-355.73.06-.15.07-.11c1.72-3.06 2.98-6.83 3.55-10.49.6-3.71.49-7.51-.37-11.16-1.63-7.39-6.63-13.76-12.77-18.46-6.11-4.84-13.35-8.2-20.74-10.93-7.42-2.71-15.12-4.68-22.9-6.28 7.84 1.26 15.63 2.89 23.24 5.28 7.57 2.44 15.07 5.51 21.66 10.25 6.58 4.59 12.35 11.18 14.56 19.35 1.14 4.02 1.44 8.28.96 12.44-.5 4.19-1.56 8.15-3.56 12.1l.13-.26-114.81 302.03c4.76 1.16 11.38 2.48 20.68 3.82 19.95 2.86 39.48-19.16 49.28-32.42l8.48-27.24c14.78-47.21 30.02-94.3 46.05-141.15 8.01-23.43 16.37-46.74 24.9-70.02 8.52-23.28 17.45-46.42 27.22-69.34 4.86-11.47 9.96-22.86 15.74-34.14 2.88-5.66 6.04-11.21 10.04-16.82l3.45-4.21 3.27-3.37 6.77-6.68c4.59-4.37 9.35-8.58 14.29-12.59 2.46-2.01 4.98-3.95 7.53-5.85 2.48-1.9 5.45-3.82 7.03-5.2.79-.67 1.41-1.48 1.58-1.78.51-1.02.21-.44.43-1.02.1-.34.17-.72.2-1.1.15-1.59-.42-3.01-.98-3.47-2.02-1.89-7.32-2.05-9.79.27l-.69.65-.96.36c-31.21 11.67-62.53 23.09-93.87 34.44-31.1 10.88-62.02 22.2-93.26 32.71l-1.21.92s-7.28-.65-20.03-1.78c-12.72-1.27-30.94-2.81-52.74-5.17-21.8-2.39-47.27-4.84-74.49-8.07-27.22-3.29-56.23-6.42-85.327-10.12-29.012-4.1-57.895-9.05-84.84-14.31-7.649-1.46-15.067-3.03-22.336-4.62l-4.242-.53s-.95-.37-2.457-.97c-3.227-.72-6.528-1.44-9.672-2.16-12.199-2.78-23.969-5.51-34.391-9.3-10.449-3.67-19.773-8.19-26.91-13.97-3.523-2.92-6.453-6.24-8.242-9.87-1.836-3.61-2.293-7.5-1.75-10.78 1.254-6.58 4.648-10.68 6.836-13.27 2.261-2.58 3.594-3.84 3.594-3.84s-1.243 1.35-3.301 4.09c-2.012 2.67-4.918 7.05-5.774 13.2-.918 6.27 3.188 13.42 10.242 18.41 7.043 5.08 16.278 8.96 26.567 12.28 6.078 1.99 12.605 3.57 19.437 5.05-18.769-8.85-40.703-21.12-39.609-29.81 1.898-15.06 47.098-37.61 127.113-46.94 80.012-9.34 417.872 36.17 417.872 36.17l798.04 133.49s-3.86 4.22-11.78 10.97c5.37-3.68 10.39-7.27 14.96-10.73 5.59-4.15 10.5-8.11 14.85-11.75.22-.42.47-.91.68-1.33.87-1.77 1.77-3.44 2.68-5.07l-1038.86-169.41c-28.38-1.97-56.86-3.23-85.32-3.8-14.25-.27-28.5-.36-42.75-.26-14.251.14-28.493.56-42.727 1.18l-21.328 1.33-21.27 2.02c-7.047 1.01-14.133 1.8-21.148 2.99-6.946 1.51-14.082 2.28-20.875 4.41l-10.297 2.82-10.215 3.19c-6.82 2.08-13.641 4.15-20.355 6.53-13.34 4.76-26.692 10.8-36.832 20.97 10.039-10.28 23.371-16.48 36.683-21.37 6.703-2.45 13.516-4.59 20.313-6.75l10.168-3.29 10.312-2.93c6.816-2.21 13.949-3.05 20.91-4.64 7.031-1.26 14.121-2.13 21.184-3.21l21.297-2.24 21.359-1.54c14.254-.77 28.52-1.33 42.791-1.61 14.27-.25 28.54-.31 42.82-.18 28.55.29 57.06 1.26 85.59 2.96h.06l.09.01 1046.16 159.83c.44-.73.91-1.49 1.31-2.19 3.57-5.44 6.65-9.55 8.63-12.43 2.02-2.85 3.1-4.38 3.1-4.38l1.86 1.49 16.3-123.3-3.61-112.43 10.17 112.39.02.17-.03.37-8.66 118.02c30.14-.93 52.66-10.15 68.74-20.73l-19.97-103.39c8.81-1.75 17.41-4.42 23.84-6.79 1.64-.61 3.15-1.19 4.49-1.73l32.86 73.19 211.7-57.32c5.38-3.5 10.56-6.53 15.34-9.02.24-.12.44-.21.68-.33l-111.62-158.91c-1.14 1.02-2.29 2.02-3.39 3.09-3.66 3.69-7.36 7.43-11.08 11.19-3.78 3.72-7.05 7.97-10.63 11.95l-5.27 6.09-4.89 6.42c-3.23 4.31-6.73 8.42-9.72 12.87-3.01 4.44-6.01 8.86-8.99 13.25-2.98 4.38-5.48 9.02-8.2 13.45-2.7 4.45-5.32 8.86-7.56 13.4-2.35 4.47-4.66 8.87-6.92 13.18-2.06 4.4-4.08 8.71-6.05 12.91-4.09 8.33-7.15 16.56-10.21 24.05-3.17 7.47-5.31 14.58-7.62 20.74-2.31 6.17-3.96 11.68-5.3 16.23-2.74 9.06-4.3 14.24-4.3 14.24s1.36-5.24 3.73-14.4c1.16-4.59 2.59-10.16 4.66-16.44 2.06-6.27 3.91-13.53 6.98-21.06 2.91-7.6 5.8-15.94 9.72-24.4 1.89-4.27 3.82-8.65 5.8-13.13 2.23-4.37 4.5-8.83 6.82-13.36 2.22-4.58 4.83-9.06 7.52-13.56 2.71-4.48 5.2-9.18 8.17-13.63 2.97-4.45 5.96-8.93 8.97-13.43 2.99-4.52 6.49-8.7 9.72-13.08l4.98-6.45 5.37-6.11c3.65-4.01 6.99-8.26 10.83-12 3.8-3.77 7.56-7.52 11.28-11.22 1.23-1.17 2.5-2.27 3.76-3.38l-42.18-60.05 43.61 58.77c2.17-1.88 4.35-3.73 6.46-5.61 3.78-3.42 7.71-6.54 11.73-9.37 3.98-2.86 7.74-5.86 11.64-8.42 7.98-4.87 15.21-9.97 22.57-13.52 3.6-1.89 7.05-3.71 10.33-5.44 3.34-1.62 6.64-2.86 9.67-4.19 6.08-2.59 11.35-4.9 15.92-6.24 8.98-3 14.12-4.71 14.12-4.71s-5.06 1.91-13.92 5.27c-4.48 1.5-9.65 4.03-15.6 6.84-2.95 1.44-6.18 2.8-9.43 4.55-3.22 1.8-6.6 3.69-10.13 5.66-7.22 3.67-14.29 8.91-22.07 13.9-3.81 2.62-7.47 5.68-11.34 8.6-1.93 1.47-3.88 2.97-5.85 4.47-.41.37-.84.74-1.25 1.1 7.71 10.87 53.93 75.9 76.34 105.15 24.5 31.96 38.76 34.83 49.03 29.71 8.46-4.22 18.47-20.8 21.73-26.52-5.19-11.36-11.33-30.3-11.11-55.31-.56-11.06-.16-23.18 1.93-36.17 2.03-12.92 5.73-26.45 11.16-40.16l-49.28-142.03 51.47 136.71c.49-1.15.89-2.29 1.41-3.44 7.56-16.55 18.07-33.07 32.22-47.27 14.06-14.19 32.05-25.9 52.57-31.75 10.33-2.63 21.16-3.76 31.99-2.85 2.7.22 5.36.85 8.04 1.26l4.01.71 3.97 1.22c2.5.82 4.98 1.48 7.49 2.43l7.56 3.51c9.62 5.23 18.51 11.7 25.59 19.86 3.92 3.74 6.73 8.37 10.05 12.55 2.64 4.62 5.83 8.94 7.91 13.81 9.32 18.95 14.2 39.49 15.1 59.42 1.08 19.97-1.55 39.21-6.26 56.88-4.76 17.39-11.81 33.49-19.96 47.01-16.37 27.36-37.86 44.44-54.14 52.77-5.81 3.1-10.95 5.09-15.16 6.5-3.2 1.28-5.93 2.13-8.1 2.7 8.41 2.56 17.07 5.83 25.85 9.87 34.92 15.79 71.08 44.03 101.03 81.38 15.03 18.64 28.5 39.5 40.32 61.66 11.63 22.27 21.46 45.92 29.22 70.23 7.45 24.29 12.87 49.49 15.99 74.36 2.88 24.72 3.68 49.31 2.01 72.99.06.01.12.01.18.02l.58-1.75s39.92 13.41 99.8 33.53c29.94 10.06 64.86 21.79 102.29 34.36 11.08 3.65 22.4 7.59 33.8 11.7.13-3.38.24-6.86.31-10.47.53-15.5.3-33-.18-52.08-.84-19.06-1.95-39.72-4.51-61.43-2.44-21.72-5.67-44.57-10.3-67.97-4.58-23.39-9.99-47.47-16.86-71.52-6.85-24.11-14.55-48.34-23.54-72.13-8.51-23.97-18.67-47.3-28.97-70.11-10.86-22.55-21.91-44.59-34.03-65.13-11.75-20.76-24.47-40.01-36.81-58.05-6.32-8.91-12.63-17.47-18.76-25.73-6.42-8.03-12.41-15.98-18.54-23.28a899.848 899.848 0 0 0-34.53-38.98c-5.44-5.53-10.53-10.71-15.23-15.49-4.78-4.72-9.35-8.85-13.38-12.69-8.01-7.76-14.85-13.25-19.31-17.22-4.52-3.9-6.92-5.99-6.92-5.99s2.44 2.05 7.02 5.88c4.53 3.89 11.46 9.26 19.6 16.89 4.1 3.77 8.75 7.84 13.61 12.48 4.8 4.72 9.98 9.81 15.52 15.26 5.45 5.53 11.02 11.65 17.02 17.97 5.97 6.36 11.75 13.49 18.05 20.68 6.2 7.29 12.25 15.21 18.73 23.23 6.2 8.24 12.57 16.79 18.97 25.7 12.47 18.02 25.34 37.25 37.25 58.01 12.28 20.53 23.5 42.58 34.53 65.15 10.47 22.83 20.8 46.19 29.48 70.2 8.91 23.91 16.49 48.34 23.21 72.5 6.78 24.22 12.05 48.38 16.51 71.88 4.5 23.49 7.6 46.42 9.93 68.22 2.44 21.79 3.43 42.5 4.16 61.61.45 19.13.37 36.67-.45 52.19-.14 3.73-.31 7.33-.5 10.82 7.49 2.72 15.01 5.44 22.54 8.38 19.32 7.62 38.85 15.96 56.98 27.11 8.99 5.64 17.69 12.16 24.34 20.73 3.14 4.27 5.88 9.45 7.1 14.49 1.4 5.49.81 11.37-1.98 16.26-2.79 4.86-7.3 8.28-12.03 10.65-5.03 2.34-9.86 3.27-14.81 4.76-9.84 2.65-19.65 4.9-29.35 6.83a489.921 489.921 0 0 1-56.46 7.87c-18.08 1.41-35.23 1.47-51.02 1.15-31.61-.72-57.85-3.03-76.19-4.78-11.38-1.11-19.7-2.05-24.39-2.6 2.72 4.39 5.45 8.79 8.23 13.19 4.86 7.72 9.71 15.44 14.49 23.04 2.42 3.79 4.82 7.54 7.19 11.25l1.77 2.77.44.69.52.88.8 1.43c1.06 1.9 2.11 3.79 3.15 5.66 8.37 14.96 15.82 29.12 22.39 41.16 6.57 12.05 11.66 22.3 15.4 29.37 2.36 4.68 4.04 8.01 4.94 9.78 5.05-6.28 10.04-12.6 14.82-19.09 3.46-4.56 6.7-9.27 9.95-13.97 2.14-3.08 4.07-6.28 6.05-9.45 3.19-7.34 5.73-14.3 8.12-20.52 2.89-7.26 5.12-13.71 6.78-19.07 3.5-10.68 5.5-16.77 5.5-16.77s-1.79 6.16-4.92 16.95c-1.48 5.41-3.48 11.93-6.12 19.3-2.56 7.41-5.24 15.85-8.99 24.74-1.78 4.48-3.64 9.15-5.57 13.98-2.03 4.79-4.37 9.64-6.64 14.68-4.37 10.18-10.07 20.38-15.64 31.12-2.88 5.31-6.19 10.5-9.33 15.88-1.6 2.67-3.21 5.35-4.83 8.06-1.77 2.6-3.55 5.22-5.33 7.86-2.48 3.85-5.21 7.58-7.92 11.32 4.34 7.72 55.16 98.14 68.3 124.47 13.72 27.52 43.71 37.54 58.71 30.06 5.32-2.65 3.88-13.9-.18-27.3l-90.96-175.38 128.85 202.92c1.86.68 3.66 1.37 5.5 2.11 2.83 1.14 5.63 2.35 8.41 3.65 5.57 2.6 11.08 5.51 16.52 9.03 5.42 3.59 10.85 7.61 15.87 13.56 2.48 2.99 4.88 6.51 6.63 10.94.87 2.22 1.52 4.65 1.91 7.22.19 1.38.26 2.78.26 4.18 52.61 14.34 107.49 29.42 162.36 44.67 66.45 18.54 132.84 37.31 194.93 55.45 31.03 9.14 61 18.07 89.32 26.87 28.28 8.83 55.06 17.41 79.37 26.51 6 2.5 11.85 4.65 17.61 7.28 5.63 2.68 10.99 5.59 16.06 8.74 4.94 3.34 9.78 6.67 13.57 11.02 3.82 4.17 6.96 9.41 6.87 15.1-.04 5.68-3.06 10.5-6.39 14.16-3.38 3.74-7.37 6.46-11.17 9.01-7.78 4.85-15.47 8.27-22.47 11.09-7.69 3.03-14.51 5.31-20.47 7.13-9.99 4.55-17.98 7.63-17.98 7.63l-107.74 3.89-9.81.48-55.3 2.71c-9.2.52-18.44.74-27.73 1.02-9.26-.24-18.54-.13-27.77-.83-36.96-2.08-73.69-6.65-110.23-12.18-36.55-5.57-72.95-11.97-109.2-19.26l-13.59-2.82c-4.82-.99-9.03-2.27-13.58-3.39l-26.79-6.95-53.6-13.89-107.2-27.8-214.38-55.59-428.5-112.23-427.89-112.58-5.46-.63c-5.82 5.31-11.78 10.47-17.97 15.36-4.31 3.38-8.68 6.67-13.19 9.79-4.46 3.13-9.07 6.25-14.13 8.5-20.21 9-42.07 12.86-63.72 16.08-21.75 2.93-43.67 4.46-65.6 4.99-21.97.5-43.88.09-65.82-1.38-39.21-2.73-77.99-8.56-116.62-14.83 27.8 6.8 55.58 13.7 83.3 20.86 21.36 5.56 42.69 11.17 63.9 17.4 5.31 1.53 10.6 3.19 15.87 4.93 5.2 1.74 10.74 3.73 15.59 6.5 2.58 1.59 5.12 3.29 7.07 5.99 2.17 2.43 2.96 6.91 1.45 10.1-3.02 6.31-8.22 9.33-13.44 12.13l.48-.29c-8.76 5.4-17.64 7.49-26.81 9.49-9.12 1.86-18.34 2.91-27.56 3.44-18.44 1.14-36.89.48-55.2-1.14-9.23-.73-18.18-1.8-27.31-2.78l-27.24-3.22-54.35-6.93c-70.49-9.34-140.85-19.34-211.2-29.62l-35.05 94.15-91.44 245.94-.64 1.69-1.18 1.56c-1.25 1.64-2.17 2.71-3.25 4-1.06 1.19-2.09 2.42-3.19 3.56-2.16 2.33-4.4 4.58-6.76 6.73-4.73 4.32-9.78 8.41-15.63 11.9-1.38.94-2.96 1.7-4.49 2.52-1.52.82-3.05 1.62-4.75 2.27-3.23 1.47-6.79 2.54-10.42 3.47-1.83.44-3.8.64-5.71.93-1.76.33-4.13.35-6.46.28-2.2-.06-5.04-.2-6.03-.48l-4.18-.73-1.18-.27-6.42-2.47c-2.1-.86-3.86-2-5.78-3.03-1.96-1.01-3.57-2.23-5.25-3.4-1.69-1.18-3.36-2.37-4.81-3.67-6.19-5.02-11.24-10.58-15.96-16.25-4.72-5.67-8.9-11.56-12.78-17.59-1.95-3.01-3.81-6.06-5.6-9.15-1.82-3.15-3.47-6.1-5.25-9.63l-.43-.85-.12-.36c-2.85-8.44-4.98-16.14-7.12-24.2-2.13-7.97-4.05-15.95-5.89-23.94-3.64-15.98-6.85-32.01-9.74-48.07-2.84-16.07-5.45-32.15-7.71-48.27-2.29-16.09-4.36-32.35-6.12-48.43-1.88-15.98-3.47-32.55-3.83-48.84-.44-16.34-.03-32.67 1.08-48.91 2.04-29.57 6.47-58.83 12.44-87.71-29.78-4.16-60.59-8.47-91.41-12.78-20.97-2.97-41.946-5.94-62.595-8.86-20.726-3.02-40.945-6.85-60.484-10.61-39.023-7.77-75.117-16.34-105.898-24.25-30.778-7.91-56.211-15.29-73.879-20.9-8.832-2.81-15.727-5.14-20.348-7-2.34-.84-4.066-1.62-5.199-2.22l-1.746-.85s.605.26 1.777.77c1.16.56 2.926 1.27 5.289 2.01 4.656 1.65 11.653 3.69 20.574 6.13 17.852 4.85 43.532 11.16 74.543 17.77 31.012 6.61 67.34 13.64 106.442 19.75 19.562 2.92 39.789 5.88 60.402 8.02 20.711 2.05 41.752 4.14 62.792 6.23 42.12 4.11 84.25 8.22 123.74 12.08 19.75 1.93 38.84 3.79 56.94 5.56l3.38.33.2.01.69.02 1.51.01c2.12-.03 4.22-.06 6.3-.1 4.23-.11 8.43-.33 12.55-.62 8.25-.52 16.2-1.5 23.8-2.5 15.21-2.11 28.93-5.13 40.85-8.43 11.97-3.17 22.01-6.93 30.23-10.07 8.07-3.47 14.37-6.22 18.46-8.47.81-.41 1.48-.75 2.14-1.09-.1-.51-.23-1.09-.43-1.76-.07-.17-.13-.36-.19-.52-7.28-2.79-18.96-5.59-31.79-8.35-13.05-2.8-27.99-5.64-44.36-8.54-65.52-11.58-153.74-24.36-242.01-36.25-11.04-1.47-22.08-2.93-33.07-4.39l-8.24-1.07-2.05-.26-2.426-.45-4.043-.76c-5.414-.98-10.813-1.96-16.192-2.94-21.539-3.81-42.808-7.24-63.433-10.2-20.629-2.92-40.613-5.53-59.613-7.26-18.993-1.69-37.016-3.08-53.598-2.82-8.262.23-16.246.42-23.59 1.76-7.367.99-14.484 3.04-20.973 4.65-13.066 3.44-24.254 7.32-33 11.51-8.601 4.12-15.488 8.67-16.937 13.74-.711 2.54.805 4.39 1.738 5.22 1.051.84 1.598 1.28 1.598 1.28s-.563-.42-1.653-1.22c-.96-.79-2.625-2.63-1.996-5.35 1.34-5.38 8.188-10.23 16.707-14.76 8.676-4.58 19.793-8.94 32.832-12.93 6.614-1.91 13.356-4.17 21.036-5.54 7.613-1.69 15.687-2.2 24.097-2.76 16.84-.94 35.024-.25 54.227.69 19.203.99 39.375 2.82 60.219 4.93 20.835 2.15 42.324 4.75 64.121 7.73 5.449.76 10.922 1.53 16.41 2.31l4.129.6 1.67.26 2.07.18 8.29.75c11.06 1.02 22.17 2.06 33.27 3.08 34.76 3.29 69.47 6.71 102.88 10.21 2.94-9.46 5.38-16.76 7.12-21.78l-331.578-39.63c-67.507-8.52-134.922-17.79-202.093-28.68-33.579-5.47-67.098-11.34-100.414-18.27-16.649-3.5-33.262-7.19-49.704-11.59-16.296-4.6-33.058-8.97-47.601-17.92 14.683 8.71 31.453 12.78 47.808 17.13 16.485 4.12 33.137 7.54 49.817 10.77 33.387 6.38 66.965 11.7 100.598 16.62 9.082 1.33 18.175 2.55 27.269 3.82l-146.691-26.13s-61.512-12.68-78.84-39.51c-17.324-26.83-11.012-29.98 22.129-42.57 33.14-12.59 365.992-9.11 621.53 13.22 170.66 14.92 650.14 92.05 949.83 141.65-456.27-62.58-1257.458-134.06-1257.458-134.06l-88.406 67.75 352.534 63.15 206.09 22.63 202.79 22.51 202.74 22.99 112.99 12.81.18 4.03c.07 1.55.16 3.44.26 5.56.01.15.01.28.02.44 0 2.29.56 4.91.92 7.73.5 2.82.67 5.88 1.59 9.04.85 3.17 1.51 6.52 2.62 9.88 1.25 3.32 2.29 6.8 3.81 10.17 1.66 3.31 2.95 6.8 4.96 9.96 2.7 4.87 5.87 9.32 9.15 13.49-22.67-3.02-45.25-6.57-67.57-10.64-80.66-14.71-156.65-35.96-239.57-29.55-38.44 2.96-60.67 40.68-74.41 74.17-14.23 34.69-53.76 129.3-53.76 129.3l-.46-.63-78.63 221.41 47.58-260.25 2.84.43-86.29-117.5-2.07-.29c-18.01-2.52-37-5.18-56.65-7.93-10.24-1.43-20.67-2.89-31.21-4.36-4.22 29.16-6.86 58.52-7.13 87.85-.13 16.12.43 32.21 1.83 48.2 1.34 16.06 3.79 31.66 6.65 47.71 2.73 16 5.7 31.73 8.94 47.56 3.18 15.8 6.72 31.51 10.46 47.15 3.8 15.63 7.9 31.16 12.38 46.53 2.26 7.67 4.59 15.32 7.09 22.86 2.38 7.18 4.97 14.61 7.61 21.18 1.38 2.35 3.08 5.04 4.72 7.51 1.76 2.65 3.59 5.28 5.47 7.84 3.76 5.13 7.74 10.06 11.96 14.54 4.2 4.47 8.59 8.7 13.16 11.91 1.11.92 2.26 1.59 3.4 2.27 1.13.69 2.26 1.49 3.37 1.91 1.11.47 2.23 1.17 3.3 1.49.95.26 1.88.57 2.8.89l3.3.66c1.77.45 1.8.09 2.42.14.5 0 .97.15 1.99-.06.9-.15 1.77-.13 2.69-.33 1.86-.48 3.76-.91 5.72-1.77.97-.3 1.95-.81 2.94-1.31.98-.5 1.98-.9 2.96-1.55 3.96-2.2 7.85-5.16 11.56-8.39 1.86-1.6 3.67-3.33 5.41-5.11.89-.87 1.7-1.8 2.55-2.7l1.22-1.42 96.77-241.4 49.01-122.08c5.03-10.93 11.79-20.76 20.37-29.16 8.5-8.4 18.89-15.15 30.27-19.15 11.34-3.94 23.5-5.65 35.17-4.56 1.5.09 2.85.09 4.48.25l4.07.51 8.14 1 16.49 2.53c43.41 7.32 86.08 16.59 129.01 24.8 42.88 8.17 85.86 16.12 129.17 20.24 21.65 2 43.49 2.96 65.24 3.01 21.79.02 43.59-.94 65.25-3.3 21.54-2.65 43.38-5.96 63.44-14.3 5-2.07 9.57-5 14.13-8.03 4.55-2.99 9-6.16 13.37-9.42 6.25-4.67 12.27-9.63 18.17-14.74l-19.09-2.22c-11.14 9.59-36.74 29.18-65.26 34.29-2.87-2.59-5.96-5.61-8.91-9.15-1.69-1.9-3.16-4.09-4.75-6.17-1.33-2.29-2.95-4.39-4.05-6.79-1.19-2.34-2.4-4.62-3.18-7.03-.44-1.17-.87-2.33-1.3-3.48-.29-1.18-.57-2.35-.85-3.5-.67-2.24-.94-4.48-1.13-6.58-.11-.71-.05-1.33-.11-2.02-.11-1.31-.29-2.66-.2-3.87.08-1.83-.01-3.46.15-4.92.24-1.46.44-2.73.6-3.78.06-.42.1-.62.15-.97l115.78 13.13.5.05.48.13 21.84 5.79 334.61-23.33-281 37.55 352.7 93.54 318.36 84.8 147.64-28.53-92.14 43.32 54.17 14.42.19.06 179.97-60.4-555.11-172.49 769.65 175.86s520.44 150.37 534.62 163c8.72 7.76-14.14 20.85-33.06 29.79 4.85-1.67 10.1-3.59 15.91-6.01 6.92-2.94 14.5-6.49 22.07-11.42 3.68-2.57 7.53-5.32 10.69-8.95 3.12-3.57 5.74-8.07 5.67-13.04-.01-4.98-2.89-9.7-6.59-13.58-3.63-4.03-8.42-7.2-13.27-10.35-5.02-2.98-10.34-5.73-15.94-8.27-5.53-2.4-11.62-4.53-17.61-6.88-24.3-8.56-51.08-16.59-79.53-24.88-28.45-8.24-58.56-16.59-89.73-25.13-62.38-16.93-129.09-34.42-195.85-51.67-133.57-34.38-267.39-67.79-367.81-92.63-100.45-24.7-167.42-41.18-167.42-41.18l.71-2.76c-4.92 1.83-9.36 3.49-13.18 4.92-5.69 2.09-9.68 3.05-12.62 4.03l-4.42 1.35-.92-3.22-5.34 1.21-3.27-15.47c-9.06-2.32-45.96-11.81-104.6-26.89-8.5-2.18-17.46-4.49-26.85-6.9-4.7-1.21-9.5-2.44-14.41-3.7-2.29-.57-5.3-1.41-7.08-1.78l-7.68-1.66c-20.68-4.45-43.05-9.27-66.94-14.43-47.8-10.3-101.72-21.92-160.55-34.6-29.41-6.34-60.05-12.94-91.76-19.78-31.8-6-64.68-12.21-98.48-18.59-67.8-12.42-139.31-25.53-213.28-39.08-74.03-13.27-150.55-26.84-228.37-40.21-77.82-13.37-156.92-26.75-236.12-39.43-39.58-6.48-79.2-12.68-118.69-18.7-39.47-6.24-78.85-11.85-117.91-17.55-39.05-5.84-77.91-10.63-116.24-15.9-19.2-2.31-38.28-4.6-57.23-6.87-18.95-2.29-37.76-4.56-56.47-6.19-18.7-1.78-37.24-3.54-55.61-5.28-18.41-1.44-36.65-2.86-54.7-4.27-36.093-2.67-71.394-5.26-105.796-7.41-68.789-4.42-133.879-7.77-194.004-9.62-60.117-1.84-115.285-2.25-164.105-.33-24.407.94-47.235 2.54-68.172 5.35-10.493 1.24-20.434 3.18-29.875 5.26-4.625 1.38-9.211 2.54-13.567 4-4.312 1.64-8.617 3.04-12.636 4.76-16.043 6.58-30.805 13.58-38.934 24.63-4.066 5.51-4.52 12.49-2.293 17.78.824 2.74 2.434 5.05 3.687 7.32 1.622 2.04 3.04 4.09 4.594 5.84 3.254 3.39 6.149 6.36 8.965 8.59 2.688 2.38 5.031 4.27 7.02 5.67l5.906 4.4s-2.024-1.48-5.942-4.35c-2.003-1.39-4.363-3.26-7.07-5.62-2.84-2.2-5.765-5.16-9.055-8.53-1.578-1.74-3.019-3.79-4.664-5.84-1.285-2.27-2.925-4.59-3.789-7.36" style="fill:#555;fill-opacity:1;fill-rule:nonzero;stroke:none" transform="matrix(.13296 0 0 -.13296 0 465.308)"/><path d="m1216.84 2207.58-2.23.88-.29.22c.84-.36 1.68-.73 2.52-1.1m1036.25 436.75-.18.06.01.03c.05-.03.11-.06.17-.09m569.67-215.14 4.52 8.7-4.29-8.91c-.08.07-.15.13-.23.21m-155.52-154.26c1.19-2.61 2.4-5.04 3.57-7.26a74.004 74.004 0 0 0-3.6 7.24l.03.02m-60.17-372.15c.13-.44.24-.85.38-1.36.44-1.7 1.08-3.77 1.92-6.15-1.45 3.55-2.27 6.01-2.54 6.87l.24.64m469.25 504.3c-.79-12.61-1.98-30.65-5.03-52.13-3.01-21.47-7.36-46.44-13.95-72.76-3.28-13.14-6.99-26.72-11.18-40.28-4.27-13.61-8.81-27.34-13.89-40.89-5.07-13.56-10.61-26.93-16.38-39.95-5.76-13.03-11.86-25.65-18.06-37.72-6.23-12.04-12.59-23.52-18.99-34.17a605.363 605.363 0 0 0-18.67-29.63c-5.95-9.07-11.77-17.13-17.04-24.19-5.22-7.09-9.99-13.11-13.92-18.06-3.89-4.98-7.18-8.7-9.31-11.33-2.16-2.6-3.32-3.99-3.32-3.99s1.12 1.42 3.2 4.09c2.05 2.69 5.23 6.51 8.96 11.6 3.79 5.06 8.36 11.2 13.36 18.43 5.04 7.21 10.59 15.42 16.41 24.53 23.46 36.31 50.62 87.48 70.46 141.62 5.11 13.46 9.73 27.13 14.04 40.62 4.28 13.57 8.01 26.96 11.36 40.07 6.68 26.17 11.67 50.92 14.96 72.3 3.33 21.37 5.31 39.3 6.4 51.88 1.11 12.58 1.45 19.8 1.45 19.8s-.12-7.22-.86-19.84m-455.76-667.9c6.92.58 14.93 1.74 23.5 2.95 8.58 1.23 17.66 2.96 26.67 4.94 9.05 1.85 18.01 4.11 26.37 6.41 8.31 2.41 16.14 4.53 22.71 6.77 6.59 2.17 12.13 3.92 15.93 5.32 3.85 1.31 6.05 2.07 6.05 2.07s-2.11-.99-5.79-2.71c-3.71-1.67-9.01-4.07-15.53-6.55-12.97-5.17-30.78-10.75-49-14.76-9.13-1.84-18.32-3.42-26.99-4.51-8.67-1.09-16.81-1.62-23.79-1.9-13.97-.51-23.24.17-23.24.17s2.32.16 6.38.42c4.06.22 9.82.71 16.73 1.38m-405.24 221.36a243.97 243.97 0 0 0 15.97-4.34c3.75-1.15 7.45-2.36 10.89-3.53l-10.53-46.31c-1.44 1.19-2.86 2.41-4.33 3.55-4.2 3.22-8.66 6.02-13.23 8.59zm50.1 26.35-4.14-26.43c-.11.01-.32.04-.45.05zm-53.14-23.41c-5.51-.2-9.14-.61-9.14-.61s3.63-.47 8.94-1.59c.93-.2 1.97-.44 2.99-.68l-6.98-38.93c-4.65 2.29-9.39 4.37-14.2 6.11-23.57 8.38-49.81 6.96-69.97-2.88-8.52-3.66-15.52-8.9-21.89-14.5-24.45-19.95-39.4-53.56-41.05-92.19-.24-2.68-.48-5.35-.48-7.88-.07-3.37-.13-6.6-.19-9.68.17-3.08.33-6.02.48-8.81.14-5.58 1.05-10.5 1.56-14.8.46-4.32 1.26-7.92 1.9-10.84 1.24-5.84 1.9-8.96 1.9-8.96s-.62 3.12-1.8 8.98c-.62 2.92-1.37 6.53-1.79 10.85-.46 4.3-1.33 9.22-1.4 14.8-.33 4.11-.37 8.66-.25 13.42.44-13.11 2.31-26.63 5.89-40.28 4.04-15.41 9.92-29.72 17.12-42.74a190.308 190.308 0 0 0-15.24 39.56c-8.1 30.91-7.99 61-1.25 86.07.08.24.14.48.21.73.27.97.62 1.88.91 2.84 3.07 9.48 7.3 19.17 13.24 28.52.64 1 1.3 2.01 1.95 3.01 10.16 14.03 23.6 23.94 39.78 27.7 29.8 6.9 61.72-8.44 86.33-37.49-2.64 2.76-5.35 5.45-8.2 7.98-8.14 6.74-16.95 12.51-26.43 16.69-9.58 3.95-19.75 6.17-29.76 6.13-10.07.16-19.73-2.81-27.93-6.91-17.32-8.7-27.59-23.84-34.3-38.02-6.45-14.51-9.46-28.78-10.73-41.43-1.01-12.7-.9-23.8 0-32.88.9-9.07 2.05-16.16 3.18-20.9 1.04-4.77 1.59-7.31 1.59-7.31s-.52 2.55-1.49 7.33c-1.08 4.75-2.13 11.85-2.91 20.91-.8 9.06-.81 20.17.78 32.71 1.77 12.47 5.1 26.58 12.4 40.19 7.25 13.3 18.39 27.02 33.94 33.57 7.91 3.35 16.53 5.4 25.32 4.68 8.77-.54 17.52-3.03 25.77-7.04 16.38-8.5 30.29-22.49 41.21-38.73 5.23-8.29 10.19-16.89 14.01-26.1 2.13-4.55 3.65-9.18 5.29-13.8 1.67-4.58 2.84-9.91 4.31-14.82 4.73-18.98 6.32-39.54 4.47-58.96-1.01-9.76-3.12-19.26-6.02-28.37-3.12-9-7.17-17.54-12.43-25.11-5.42-7.37-12.09-13.7-19.5-18.19l-5.59-3.04-6.51-2.36c-1.68-.76-4.1-.93-6.1-1.44l-3.14-.65-3.18-.18c-17.1-1.45-33.15 5.54-45.81 13.94-12.8 8.65-22.3 19.6-29.67 29.81-7.24 10.37-12.39 20.21-15.91 28.6-3.52 8.38-5.89 15.15-7.15 19.86-1.36 4.69-2.09 7.19-2.09 7.19s.7-2.51 2-7.21c1.2-4.73 3.48-11.54 6.91-19.98 3.42-8.46 8.5-18.33 15.3-29.1 7-10.62 16.32-21.84 28.78-31.68 11.19-8.45 25.51-16.19 42.11-17.46 11.97-2.36 24.13-2.4 36.1.37 27.41 6.36 48.68 25.91 61.58 52.66-4.71-11.69-10.93-22.55-18.8-31.87-7.14-8.91-16.37-15.78-25.77-21-2.43-1.16-4.65-2.54-7.24-3.56-2.69-.93-5.36-1.86-8.02-2.78-2.21-.93-5.14-1.18-7.66-1.8-2.61-.57-5.21-1.14-7.86-1.18-10.53-1.39-20.92.34-30.69 2.52-4.79 1.54-9.64 2.72-14.04 4.89-2.23 1-4.5 1.88-6.65 2.95-2.09 1.18-4.17 2.35-6.22 3.5-16.43 9.43-28.98 22.06-38.51 34.18-9.45 12.24-16.37 24-20.74 34.25-2.54 4.98-4.06 9.72-5.65 13.75-1.64 4.01-2.65 7.56-3.47 10.44-1.68 5.73-2.58 8.79-2.58 8.79s.87-3.07 2.49-8.82c.79-2.89 1.76-6.44 3.36-10.47 1.55-4.05 3.03-8.83 5.51-13.84 1.16-2.54 2.39-5.22 3.67-8.02 1.49-2.7 3.05-5.53 4.67-8.47 1.56-2.99 3.42-5.96 5.45-8.98 2.03-3.02 3.88-6.33 6.38-9.33 9.2-12.55 21.59-25.47 37.79-36.12 2.05-1.29 4.12-2.6 6.21-3.92 2.16-1.22 4.44-2.25 6.7-3.39 4.44-2.48 9.41-3.98 14.35-5.84 10.09-2.82 21.03-5.21 32.41-4.32 2.85-.09 5.68.37 8.53.83 2.89.56 5.63.58 8.71 1.62 2.7.78 5.42 1.57 8.15 2.37 2.74.91 5.56 2.34 8.37 3.52 10.91 5.31 21.24 12.32 29.64 21.68 8.41 9.2 15.87 19.7 21.26 31.36 5.3 11.64 9.62 24.01 11.8 36.88 1.45 6.37 1.87 12.92 2.65 19.43.16 6.55.7 13.13.18 19.7-.22 13.2-2.6 26.25-5.33 39.15-2.07 6.7-3.26 12.27-5.8 18.72l-3.55 9.42c-1.26 3.08-2.76 6-4.13 9-2.59 6.05-6.15 11.63-9.32 17.36-1.71 2.8-3.69 5.43-5.52 8.14-1.82 2.71-3.72 5.37-5.86 7.84-2.26 2.96-4.69 5.78-7.2 8.51l5.23 57.53v.02c3.33-1.27 5.46-2.07 5.46-2.07l3.57 13.64s-.25.03-.46.06l5.6 28.98c.49-1.4.97-2.78 1.46-4.23 3.28-10.29 7.73-21.1 12.58-32.51 2.24-5.78 5.23-11.41 8-17.31 2.85-5.86 5.65-11.91 9.13-17.73 3.35-5.89 6.77-11.88 10.22-17.94 3.84-5.85 7.71-11.76 11.62-17.72 3.86-6.01 8.52-11.52 12.79-17.35 4.22-5.87 8.99-11.35 13.76-16.82 4.75-5.49 9.57-10.93 14.84-15.9 5.25-4.99 10.02-10.43 15.6-14.93 5.43-4.66 10.73-9.4 16.26-13.71 5.67-4.12 11.27-8.2 16.78-12.21 11.42-7.41 22.55-14.5 33.85-19.81 10.92-6.03 22.07-9.98 32.1-14.06 10.23-3.56 19.8-6.31 28.21-8.68 8.52-2.17 16.03-3.55 22.23-4.57 6.19-1.04 11.1-1.54 14.44-1.9l5.11-.49s-6.98 1.6-18.93 5.12c-5.97 1.76-13.16 4.1-21.26 7-8.04 3.21-17.04 6.85-26.74 11.02-9.43 4.8-19.86 9.45-30.14 15.82-10.6 5.74-20.88 13.29-31.69 20.69-5.16 4.04-10.41 8.15-15.73 12.31-5.14 4.37-10.12 9.06-15.33 13.55-5.32 4.38-9.85 9.7-14.85 14.55-5.03 4.83-9.59 10.15-14.13 15.48-4.67 5.22-9.33 10.44-13.47 16.08-4.18 5.59-8.77 10.85-12.56 16.63-3.93 5.68-7.83 11.32-11.68 16.9-3.57 5.77-7.08 11.48-10.54 17.09-3.62 5.52-6.43 11.39-9.6 16.9-3.03 5.59-6.28 10.93-8.79 16.46-5.29 10.91-10.53 21.16-14.57 30.99-2.13 4.87-4.17 9.54-6.1 13.98-.1.25-.18.46-.28.71l8.74 45.23c-1.51 1.06-3.66 2.49-6.34 4.11-5.23 3.21-12.43 7.11-20.1 10.31l-1.56-8.09c0 .02-.03.09-.03.09s.02-.09.02-.12l-17.61-91.22c-.11 0-.21.01-.21.01-7.47.43-14.84.51-20.34.34" style="fill:#555;fill-opacity:1;fill-rule:nonzero;stroke:none" transform="matrix(.13296 0 0 -.13296 0 465.308)"/><path d="M2084.29 1810.53c.75 10.62 2.78 22.6 7.41 35.07 2.54 6.12 5.52 12.5 10.04 18.26 4.34 5.91 9.84 11.27 17.17 15.16 6.87 3.71 15.1 6.24 23.71 5.93 8.55-.18 17.09-2.52 25-6.26 7.97-3.71 15.02-9.13 21.64-15.04 6.58-6.02 12.03-13.13 17.27-20.43 4.87-7.51 9.45-15.36 12.83-23.75 1.91-4.07 3.36-8.5 4.94-12.84 1.53-4.34 2.52-8.39 3.78-12.62 4.16-18.07 5.85-36.06 3.89-54.03-2.08-17.78-7.49-35.32-17.94-49.47-5.27-7-11.68-13.01-19.23-17.19l-5.99-2.81-5.57-1.64c-2.3-.79-4.17-.69-6.24-1.06-2.02-.37-4.03-.37-6.04-.26-8.01.05-15.56 2.22-22.09 5.43-6.68 2.99-12.29 7.26-17.39 11.49-9.9 8.88-17.28 18.52-22.87 27.58-5.44 9.17-9.38 17.57-12.21 24.64-2.74 7.11-4.62 12.81-5.6 16.77-1.07 3.93-1.64 6.03-1.64 6.03s.6-2.09 1.73-6.01c1.05-3.94 3.01-9.6 5.85-16.65 2.92-7.01 6.94-15.38 12.83-24.16 5.97-8.67 13.56-18.07 23.86-25.79 5.22-3.7 10.86-7.35 17.26-9.64 6.27-2.53 13.22-3.92 20.17-3.42 1.75.02 3.49.15 5.19.61 1.62.42 3.66.56 4.95 1.2l5.4 2.04 4.42 2.58c5.93 3.92 11.07 9.46 15.14 15.81 8.05 12.94 11.82 28.91 13.16 45.09.84 16.2-.6 33.29-4.61 49.04-1.21 4.12-2.21 8.56-3.54 12.42-1.36 3.84-2.52 7.71-4.25 11.52-3.03 7.74-7.05 14.95-11.08 22.04-8.71 13.7-19.5 26.06-32.62 33.77-6.57 3.73-13.63 6.24-20.79 6.96-7.14.83-14.3-.77-20.72-3.65-3.08-1.19-5.92-3.34-8.78-5.22-2.55-2.32-5.26-4.43-7.36-7.12-4.59-5-7.89-10.85-10.78-16.55-5.53-11.63-7.89-23.48-9.14-33.93-1.13-10.51-.8-19.79-.12-27.35.77-7.56 1.66-13.49 2.57-17.46.82-4 1.26-6.13 1.26-6.13s-.48 2.12-1.35 6.11c-.98 3.96-1.96 9.88-2.85 17.44-.78 7.58-1.21 16.85-.67 27.49" style="fill:#555;fill-opacity:1;fill-rule:nonzero;stroke:none" transform="matrix(.13296 0 0 -.13296 0 465.308)"/><path d="M2146.42 1804.75c5.23-2.13 9.5-5.85 12.75-10.21 1.58-2.2 3.02-4.54 4.11-7.01.61-1.18 1.08-2.59 1.57-3.94.47-1.35.71-2.3 1.06-3.48 1.34-5.68 1.64-10.87.83-16.35-.87-5.36-2.92-10.64-6.54-14.94-1.83-2.16-4.09-3.9-6.72-5.11l-2.2-.82-1.56-.28c-1.67-.27-2.75-.31-4.09-.14-5.12.57-8.7 3.39-11.33 5.95-5.13 5.5-7.34 11.05-8.81 14.86-1.4 3.86-1.88 6.16-1.88 6.16s.5-2.31 2.11-6.07c1.65-3.63 4.74-9.03 10.48-12.6 2.79-1.7 6.32-2.88 9.34-2.1.67.08 1.61.5 1.93.7l1.39.72c.2.23.4.44.6.62.99.97 1.84 2.33 2.52 3.76 1.35 2.98 1.77 6.71 1.82 10.47-.06 3.71-.6 7.95-1.46 11.35-.31 1.07-.61 2.4-.91 3.25l-.9 2.61c-.63 1.86-1.5 3.57-2.31 5.3-1.81 3.29-3.91 6.39-6.48 8.39-2.57 1.95-5.26 3.09-8.49 2.09-2.78-.59-5.54-3.35-7.16-6.12-3.43-5.82-3.66-12.04-3.43-16.03.32-4.07.95-6.34.95-6.34s-.64 2.25-1.2 6.32c-.47 4.06-1.1 10 .87 17.26 1.19 3.52 2.86 7.6 7.39 10.62 3.93 2.91 10.65 3.33 15.75 1.11m1107.44 1539 328.97-62-2-9.8zm-254.38 13.96 458.36-94.23-1.03-4.89zM769.145 3465.2l458.355-94.24-1.03-4.89zM25.89 2742.99l458.356-94.24-1.031-4.89z" style="fill:#555;fill-opacity:1;fill-rule:nonzero;stroke:none" transform="matrix(.13296 0 0 -.13296 0 465.308)"/><path d="m0 2747.11 458.359-94.23-1.031-4.9zm476.688-562.58 458.359-94.23-1.031-4.89zm196.425 27.64 229.782-45.96-1.032-4.9zm285.965 1184.37 229.782-45.97-1.03-4.89zm1225.192 103.05s53.66-12.93 134.15-32.33c80.37-19.87 187.53-46.37 294.69-72.87 106.95-27.31 213.91-54.62 294.12-75.1 80.1-20.97 133.5-34.94 133.5-34.94s-53.66 12.93-134.15 32.32c-80.37 19.88-187.53 46.38-294.69 72.88-106.95 27.31-213.91 54.62-294.12 75.11-80.1 20.96-133.5 34.93-133.5 34.93m105.95-246.32s33.67-7.89 84.18-19.71c25.2-6.11 54.61-13.23 86.12-20.86 31.47-7.8 65.03-16.12 98.59-24.44 33.51-8.53 67.02-17.07 98.44-25.07 31.37-8.17 60.65-15.8 85.75-22.34 50.1-13.46 83.49-22.44 83.49-22.44s-33.67 7.89-84.18 19.71c-25.21 6.11-54.61 13.23-86.12 20.86-31.47 7.8-65.03 16.12-98.59 24.44-33.51 8.54-67.02 17.08-98.43 25.08-31.38 8.17-60.66 15.8-85.75 22.34-50.1 13.46-83.5 22.43-83.5 22.43m-357.42 46.79s33.67-7.88 84.18-19.71c25.21-6.1 54.61-13.23 86.12-20.86 31.47-7.8 65.03-16.11 98.59-24.44 33.51-8.53 67.02-17.07 98.43-25.07 31.38-8.17 60.66-15.8 85.76-22.34 50.09-13.46 83.49-22.43 83.49-22.43l-84.18 19.7c-25.21 6.11-54.61 13.23-86.12 20.86-31.47 7.8-65.03 16.12-98.59 24.44-33.51 8.54-67.02 17.08-98.44 25.08-31.37 8.17-60.65 15.8-85.75 22.34-50.09 13.46-83.49 22.43-83.49 22.43m590.18 78.3s33.68-7.88 84.19-19.71c25.2-6.1 54.61-13.23 86.12-20.86 31.46-7.79 65.03-16.11 98.59-24.43 33.51-8.54 67.02-17.07 98.43-25.08 31.38-8.17 60.66-15.8 85.75-22.33 50.1-13.47 83.5-22.44 83.5-22.44l-84.18 19.7c-25.21 6.11-54.62 13.23-86.12 20.86-31.47 7.81-65.03 16.12-98.6 24.44-33.5 8.54-67.01 17.08-98.43 25.08-31.37 8.18-60.65 15.8-85.75 22.34-50.1 13.46-83.5 22.43-83.5 22.43M603.555 2336.07s33.672-7.89 84.183-19.72c25.203-6.1 54.614-13.22 86.117-20.85l98.594-24.44c33.512-8.54 67.02-17.07 98.434-25.08 31.377-8.17 60.657-15.79 85.757-22.33 50.09-13.46 83.49-22.44 83.49-22.44s-33.67 7.89-84.18 19.71c-25.21 6.1-54.61 13.23-86.122 20.86l-98.594 24.44c-33.507 8.54-67.019 17.07-98.429 25.08-31.375 8.17-60.653 15.8-85.75 22.34-50.102 13.45-83.5 22.43-83.5 22.43" style="fill:#555;fill-opacity:1;fill-rule:nonzero;stroke:none" transform="matrix(.13296 0 0 -.13296 0 465.308)"/></svg>