<?xml version="1.0" standalone="no"?>
<!DOCTYPE svg PUBLIC "-//W3C//DTD SVG 20010904//EN"
 "http://www.w3.org/TR/2001/REC-SVG-20010904/DTD/svg10.dtd">
<svg version="1.0" xmlns="http://www.w3.org/2000/svg"
 width="700.000000pt" height="700.000000pt" viewBox="0 0 700.000000 700.000000"
 preserveAspectRatio="xMidYMid meet">
<metadata>
Created by potrace 1.14, written by Peter Selinger 2001-2017
</metadata>
<g transform="translate(0.000000,700.000000) scale(0.100000,-0.100000)"
fill="#000000" stroke="none">
<path d="M3135 6895 c-662 -75 -1255 -320 -1775 -733 -135 -107 -439 -416
-544 -552 -383 -497 -600 -1005 -698 -1630 -20 -128 -22 -183 -23 -470 0 -259
4 -351 18 -450 91 -641 330 -1203 722 -1695 116 -146 412 -438 555 -549 486
-377 1015 -603 1625 -697 177 -27 592 -37 782 -20 679 62 1306 312 1833 732
126 101 353 320 459 444 428 500 688 1073 793 1745 20 128 22 183 23 470 0
259 -4 351 -18 450 -91 643 -333 1209 -726 1700 -95 119 -317 347 -436 449
-500 428 -1074 689 -1740 792 -181 27 -662 36 -850 14z m208 -217 c-2 -5 -21
-8 -41 -8 -61 0 -61 0 -47 -155 7 -77 11 -143 8 -147 -2 -5 -12 -8 -22 -8 -20
0 -24 20 -36 180 -10 126 -8 122 -65 114 -46 -6 -50 -5 -50 15 0 11 1 21 3 22
1 1 56 6 122 13 105 10 121 9 126 -4 4 -8 5 -18 2 -22z m417 13 c106 -49 103
-254 -5 -305 -25 -12 -56 -16 -112 -14 l-78 3 2 100 c1 55 5 133 9 173 l6 73
71 -6 c40 -4 88 -14 107 -24z m-747 -31 c3 -12 -1 -21 -12 -24 -15 -5 -130
-26 -139 -26 -2 0 -1 -15 3 -32 14 -72 13 -71 61 -64 24 3 55 8 69 12 18 4 27
1 31 -10 9 -24 2 -28 -69 -41 -70 -13 -68 -8 -52 -113 8 -52 7 -54 -16 -50
-21 3 -25 13 -51 148 -15 80 -27 154 -26 165 3 17 17 23 88 36 112 22 107 22
113 -1z m1063 -27 c4 -21 19 -101 34 -178 26 -137 26 -140 7 -143 -24 -5 -33
9 -41 63 l-7 42 -65 10 -66 9 -21 -43 c-16 -32 -27 -43 -44 -43 -13 0 -23 5
-23 10 0 9 99 189 152 278 13 22 27 32 43 32 20 0 25 -7 31 -37z m274 -29 c58
-15 106 -28 107 -29 1 0 0 -10 -3 -22 -5 -20 -8 -20 -55 -8 -38 10 -51 11 -55
2 -2 -7 -19 -70 -37 -141 -19 -72 -38 -131 -43 -133 -5 -1 -15 1 -23 6 -12 8
-9 31 22 147 20 76 34 141 31 145 -2 4 -22 10 -44 14 -22 4 -42 10 -45 15 -10
15 7 41 24 36 9 -3 63 -17 121 -32z m-1636 -156 c58 -79 106 -146 106 -150 0
-5 -10 -8 -22 -8 -14 0 -35 15 -54 37 l-31 37 -61 -18 -61 -19 -3 -51 c-3 -45
-6 -51 -27 -54 -24 -4 -24 -4 -18 75 4 43 9 124 13 180 7 102 8 105 46 112 3
0 54 -63 112 -141z m1910 66 c14 -5 16 -31 16 -185 0 -137 -3 -179 -12 -179
-27 0 -37 17 -40 65 l-3 49 -55 22 -55 22 -35 -40 c-25 -28 -40 -37 -53 -33
-9 4 -17 11 -17 16 0 12 220 269 231 269 4 0 14 -3 23 -6z m-2259 -38 c56 -24
83 -105 51 -151 -12 -18 -9 -24 45 -65 32 -25 58 -48 59 -52 0 -4 -11 -10 -25
-14 -20 -5 -36 3 -80 40 l-54 47 -36 -15 -35 -15 21 -53 c27 -70 27 -69 3 -78
-19 -7 -26 4 -84 147 -37 90 -59 158 -54 163 9 9 132 59 147 60 4 0 23 -6 42
-14z m2613 -129 c38 -35 21 -137 -23 -137 -21 0 -26 -15 -15 -45 7 -19 6 -35
-4 -60 -28 -66 -75 -71 -179 -19 -39 20 -73 38 -75 39 -2 2 31 71 73 154 l75
151 63 -31 c34 -17 72 -40 85 -52z m-2880 -27 c38 -23 38 -26 12 -40 -15 -8
-26 -7 -45 6 -33 21 -84 12 -116 -22 -69 -74 23 -236 124 -217 35 7 77 57 77
93 0 31 28 49 42 28 13 -19 2 -78 -20 -107 -47 -63 -146 -78 -209 -31 -73 53
-106 180 -64 244 44 66 132 86 199 46z m3140 -113 c13 -15 -58 -349 -75 -354
-23 -8 -35 24 -24 64 6 21 11 41 11 44 0 3 -24 22 -54 42 l-54 36 -38 -29
c-42 -34 -44 -35 -67 -17 -15 10 0 25 125 120 78 59 147 107 154 107 6 0 16
-6 22 -13z m-1508 -47 c1169 -105 2126 -947 2379 -2095 44 -198 55 -320 55
-570 0 -197 -4 -266 -23 -384 -171 -1110 -985 -1980 -2076 -2220 -198 -44
-320 -55 -570 -55 -272 0 -425 19 -659 78 -1357 348 -2214 1690 -1960 3072
217 1187 1215 2083 2424 2177 102 8 322 6 430 -3z m-1933 -35 c32 -32 35 -39
31 -81 l-3 -46 62 -31 c35 -17 63 -35 63 -39 0 -4 -9 -12 -20 -18 -16 -8 -32
-4 -81 21 -52 26 -66 29 -86 20 -37 -17 -37 -36 -3 -86 30 -43 31 -48 16 -63
-10 -10 -19 -13 -24 -7 -9 10 -172 241 -185 261 -4 7 19 30 60 58 85 59 120
61 170 11z m3676 -89 c18 -7 42 -25 55 -39 26 -27 39 -93 23 -116 -15 -23 -41
5 -41 44 0 43 -40 77 -84 73 -46 -5 -47 -45 -3 -111 20 -29 38 -62 42 -74 7
-26 -17 -78 -44 -93 -82 -43 -208 54 -185 144 11 46 52 26 45 -22 -3 -27 31
-69 68 -83 29 -11 71 12 71 39 0 9 -18 43 -40 76 -43 63 -49 98 -24 134 28 40
67 50 117 28z m-3879 -167 c59 -72 106 -132 104 -133 -2 -1 -10 -7 -19 -14
-14 -11 -31 6 -124 118 -88 108 -105 133 -95 145 7 8 16 15 20 15 4 0 55 -59
114 -131z m4154 -72 c65 -65 71 -75 57 -87 -14 -12 -24 -6 -73 43 l-58 57 -37
-38 -37 -38 55 -54 c49 -48 53 -56 40 -69 -13 -14 -21 -9 -71 39 l-55 55 -36
-39 -35 -38 58 -59 c52 -52 57 -61 43 -74 -13 -13 -23 -7 -88 59 l-74 75 112
120 c62 67 116 121 120 121 4 0 39 -33 79 -73z m-4285 -33 c83 -42 154 -78
156 -80 3 -3 -2 -11 -11 -20 -13 -14 -20 -13 -62 8 l-47 22 -45 -46 -46 -45
20 -46 c20 -44 20 -46 2 -62 -18 -16 -20 -15 -33 16 -8 19 -40 94 -72 166 -48
110 -55 135 -45 148 7 8 16 15 21 15 5 0 78 -34 162 -76z m-288 -314 c3 -5
-15 -37 -41 -71 -42 -55 -48 -59 -62 -45 -14 13 -11 21 28 70 41 54 62 67 75
46z m4735 -55 c35 -46 41 -58 29 -66 -22 -14 -24 -12 -69 46 -35 45 -40 58
-30 70 16 19 18 17 70 -50z m-5046 -181 c24 -9 1 -44 -28 -44 -49 0 -95 -87
-64 -118 22 -22 53 -12 105 34 68 58 107 66 151 29 26 -22 32 -34 32 -66 0
-92 -84 -170 -154 -143 -23 9 -1 44 27 44 53 0 101 75 77 120 -17 33 -54 25
-109 -24 -55 -49 -81 -61 -116 -52 -40 10 -65 45 -65 89 0 82 81 155 144 131z
m5354 -38 c83 -43 112 -155 56 -217 -17 -19 -19 -19 -31 -4 -9 14 -9 24 4 50
19 40 12 77 -22 111 -44 44 -136 26 -188 -35 -51 -62 -25 -153 48 -166 48 -9
59 5 39 49 -13 26 -15 39 -7 47 6 6 16 8 21 5 12 -7 62 -94 62 -107 0 -17 -60
-39 -104 -39 -36 0 -52 6 -80 30 -91 81 -63 210 58 266 58 27 105 30 144 10z
m186 -292 c3 -9 4 -19 1 -24 -2 -4 -63 -33 -134 -65 l-130 -58 13 -31 c7 -17
22 -48 32 -69 16 -33 16 -39 4 -47 -8 -6 -18 -10 -21 -10 -3 0 -24 41 -47 91
l-41 91 62 28 c34 15 103 46 152 69 50 22 93 41 96 41 4 0 10 -7 13 -16z
m-5460 -53 c7 -10 -73 -181 -84 -181 -15 0 -300 140 -300 147 0 4 4 14 9 22 8
12 33 4 140 -47 72 -34 133 -62 135 -62 2 0 18 29 35 65 28 60 51 80 65 56z
m-413 -220 l-28 -77 45 -17 c25 -9 49 -14 53 -11 4 2 17 33 29 69 22 67 25 71
49 56 12 -8 10 -20 -11 -79 l-26 -69 50 -18 c27 -9 50 -16 52 -14 1 2 14 35
28 74 26 71 34 80 56 67 9 -7 4 -30 -22 -101 -19 -51 -37 -95 -39 -97 -4 -5
-306 102 -315 111 -4 4 42 142 60 177 5 10 15 14 27 11 19 -5 19 -7 -8 -82z
m5963 -19 c89 -52 86 -196 -6 -251 -86 -53 -183 -47 -236 13 -78 89 -36 203
90 247 58 21 105 18 152 -9z m-5898 -227 c100 -29 132 -96 107 -218 -8 -40
-16 -74 -18 -76 -5 -4 -312 71 -326 79 -12 8 24 136 48 169 23 31 78 61 114
61 14 0 48 -7 75 -15z m6041 -160 c19 -93 17 -113 -17 -147 -31 -30 -64 -35
-111 -14 -12 5 -18 1 -22 -14 -7 -26 -69 -52 -102 -44 -14 3 -34 17 -45 31
-20 26 -57 170 -45 181 8 9 295 71 315 69 9 -1 19 -24 27 -62z m-6048 -208
c95 -63 91 -192 -7 -250 -71 -42 -212 -11 -252 55 -44 72 -15 172 60 211 50
26 147 18 199 -16z m6104 -156 c25 -25 -4 -46 -160 -122 l-163 -78 0 27 c0 22
8 30 44 45 l43 18 -4 47 c-8 85 -10 89 -50 97 -45 8 -63 21 -63 45 0 16 17 14
172 -26 94 -24 176 -48 181 -53z m-6065 -218 c3 -22 1 -22 -119 -25 l-123 -3
122 -48 c104 -42 122 -52 122 -71 0 -18 -19 -30 -122 -73 l-123 -52 123 0
c115 -1 122 -2 122 -21 0 -19 -7 -20 -171 -20 l-170 0 3 27 c3 24 16 32 136
82 72 30 129 58 125 61 -5 4 -65 29 -135 56 -120 46 -128 51 -128 76 l0 27
138 4 c203 5 197 5 200 -20z m6082 -48 l0 -25 -150 0 -150 0 0 -80 c0 -73 -2
-80 -20 -80 -19 0 -20 7 -20 105 l0 105 170 0 170 0 0 -25z m-152 -394 c74
-11 135 -21 137 -23 9 -8 -25 -159 -40 -182 -60 -91 -243 -76 -297 24 -16 29
-18 47 -13 108 8 98 11 104 49 97 17 -3 91 -14 164 -24z m-5884 -171 c8 -52
12 -97 8 -101 -4 -3 -68 -16 -142 -28 -74 -13 -147 -25 -161 -28 -25 -5 -26
-3 -42 89 -21 117 -21 118 2 118 21 0 26 -11 36 -80 12 -81 10 -79 63 -68 26
6 48 12 50 13 2 1 -2 33 -9 70 -9 56 -9 69 2 76 24 15 27 10 40 -67 l13 -75
36 6 c61 11 71 16 66 33 -2 9 -7 37 -11 62 -4 25 -9 53 -11 62 -5 16 24 31 37
19 4 -3 14 -49 23 -101z m5806 -195 c126 -87 138 -98 131 -118 -8 -20 -20 -23
-157 -39 -207 -23 -206 -23 -202 5 3 19 11 23 53 27 l50 5 17 63 17 63 -40 26
c-28 18 -39 33 -39 50 0 34 5 31 170 -82z m-5767 -4 c3 -14 -23 -54 -94 -140
-55 -67 -96 -121 -92 -121 5 0 60 16 123 34 63 19 115 34 116 33 1 -1 5 -12 8
-24 5 -16 2 -23 -11 -27 -304 -89 -322 -92 -323 -53 0 7 127 168 187 238 11
13 -12 9 -104 -17 -121 -35 -147 -36 -141 -8 2 12 44 29 148 60 168 49 176 51
183 25z m5630 -306 c71 -25 134 -45 141 -45 7 0 19 20 26 45 13 46 17 49 44
39 12 -5 8 -25 -27 -125 -30 -84 -47 -119 -58 -119 -27 0 -28 11 -9 60 l19 47
-140 48 c-104 36 -139 53 -139 65 0 13 8 30 15 30 0 0 58 -20 128 -45z m-5525
-30 c2 -17 -19 -28 -154 -78 -86 -32 -158 -56 -159 -55 -1 2 -5 12 -8 23 -6
18 10 26 141 76 81 31 154 56 162 55 8 -1 16 -10 18 -21z m5479 -187 c102
-102 122 -127 117 -145 -7 -27 -2 -27 -209 -8 -88 8 -161 15 -162 15 0 0 1 9
4 20 5 17 14 20 59 20 l54 0 27 55 27 55 -32 33 c-31 32 -40 56 -25 70 3 4 9
7 12 7 4 0 61 -55 128 -122z m-5450 52 c82 -49 100 -150 41 -225 -28 -36 -113
-75 -163 -75 -104 0 -178 117 -131 209 25 46 41 55 54 26 8 -16 8 -26 1 -31
-37 -22 -28 -110 14 -139 27 -19 100 -19 136 0 40 20 81 72 81 101 0 57 -43
104 -94 104 -34 0 -40 -14 -21 -50 17 -32 13 -50 -10 -50 -12 0 -70 108 -62
116 10 11 76 33 97 34 14 0 39 -9 57 -20z m5315 -316 c79 -48 144 -87 145 -88
1 -1 -16 -32 -38 -69 -43 -71 -85 -103 -124 -93 -37 9 -67 40 -67 69 0 25 -1
25 -24 10 -48 -31 -124 17 -124 79 0 26 74 178 87 178 1 0 67 -39 145 -86z
m-5147 33 c4 -14 -6 -51 -26 -97 -17 -41 -44 -105 -59 -142 l-29 -67 111 71
c86 54 112 67 119 57 5 -8 9 -18 9 -24 0 -5 -64 -50 -141 -99 -111 -70 -143
-86 -150 -75 -14 23 -11 34 50 179 l59 139 -42 -26 c-22 -15 -72 -46 -110 -71
-59 -37 -70 -42 -78 -28 -5 8 -9 19 -9 22 -1 7 271 183 283 184 4 0 10 -10 13
-23z m4964 -336 c88 -137 99 -165 68 -177 -13 -5 -334 90 -346 102 -3 2 2 12
11 21 13 13 22 14 49 4 53 -18 66 -13 104 38 l36 50 -26 40 c-23 33 -25 43
-15 61 7 12 15 18 20 14 4 -5 49 -74 99 -153z m-4730 0 c33 -44 61 -83 60 -88
0 -4 -58 -54 -129 -110 l-129 -103 -66 82 c-60 74 -65 83 -50 97 14 15 18 13
43 -19 15 -19 39 -48 53 -64 l26 -29 36 29 c21 16 37 33 37 38 0 4 -18 30 -41
57 -24 29 -39 55 -35 64 10 27 30 15 71 -40 22 -30 42 -54 45 -54 3 -1 23 14
44 33 l40 33 -52 63 c-46 58 -49 65 -34 76 9 8 18 14 18 14 1 0 29 -36 63 -79z
m4480 -150 c25 -16 -5 -41 -46 -39 -29 1 -42 -5 -65 -30 -30 -35 -34 -52 -18
-83 15 -27 41 -24 117 17 75 40 104 39 141 -2 38 -43 23 -106 -38 -158 -33
-28 -77 -34 -111 -15 -30 15 -6 39 37 37 46 -2 86 35 82 76 -5 52 -29 55 -110
13 -40 -21 -81 -37 -90 -37 -25 0 -75 46 -82 76 -9 36 27 108 67 133 33 22 92
27 116 12z m-4212 -158 c17 -10 52 -37 78 -60 l48 -43 -44 -47 c-23 -27 -76
-84 -116 -127 l-74 -80 -60 60 c-95 94 -100 158 -20 247 59 66 127 84 188 50z
m4056 -140 c59 -67 107 -126 107 -130 0 -4 -23 -28 -52 -53 -96 -83 -97 -83
-114 -69 -14 11 -8 20 45 68 l61 56 -34 40 -34 40 -34 -30 c-73 -67 -76 -69
-94 -54 -14 12 -10 19 43 65 l58 53 -37 37 -37 38 -60 -52 c-33 -29 -62 -52
-64 -52 -3 0 -8 8 -12 18 -5 13 12 34 67 84 40 37 76 66 79 65 3 -1 54 -57
112 -124z m-3852 -29 c9 -12 12 -53 10 -165 -1 -82 -1 -149 2 -149 2 0 35 43
73 95 69 95 83 106 101 83 8 -10 -16 -50 -86 -145 -53 -73 -101 -133 -107
-133 -32 0 -36 29 -30 182 8 175 17 171 -85 31 -33 -46 -64 -83 -68 -83 -5 0
-14 6 -20 14 -9 10 10 43 86 149 54 75 101 136 104 137 4 0 12 -7 20 -16z
m3449 -166 c65 -33 110 -104 110 -173 0 -69 -29 -113 -92 -139 -41 -17 -53
-18 -87 -7 -73 21 -140 113 -141 191 0 52 31 101 80 127 54 29 74 29 130 1z
m-3186 -21 c15 -11 16 -19 7 -57 -11 -51 -14 -47 56 -86 l52 -29 34 33 c36 35
49 39 66 18 9 -11 -14 -34 -111 -116 -68 -57 -130 -109 -139 -117 -13 -11 -19
-11 -34 1 -18 13 -17 19 10 190 16 97 32 176 35 176 3 0 14 -6 24 -13z m2940
-249 l73 -153 -85 -43 c-46 -24 -90 -41 -98 -38 -29 11 -12 33 51 64 36 17 65
36 65 42 0 19 -34 80 -44 80 -6 0 -35 -11 -64 -25 -63 -29 -68 -30 -76 -10 -4
11 12 24 57 46 34 17 63 33 65 34 2 1 -12 33 -30 69 -28 57 -31 68 -18 76 8 5
19 10 23 10 4 0 41 -69 81 -152z m-2437 4 c8 -5 -3 -44 -38 -135 -27 -71 -49
-134 -49 -141 0 -6 19 -18 42 -26 43 -16 53 -27 40 -47 -10 -16 -242 72 -242
92 0 24 17 26 60 9 23 -10 45 -13 49 -8 4 5 29 66 56 137 45 121 55 136 82
119z m2017 -191 c-4 -100 -10 -181 -15 -181 -4 0 -14 -3 -22 -6 -11 -4 -48 37
-126 138 -104 134 -109 144 -90 153 18 8 26 3 51 -28 34 -42 36 -43 106 -22
l52 16 0 50 c0 42 3 51 23 58 12 5 24 7 25 6 2 -2 0 -85 -4 -184z m-1664 84
c0 -5 -42 -161 -75 -281 l-15 -51 -97 27 c-96 26 -110 34 -95 57 5 9 25 7 77
-8 38 -10 73 -19 76 -19 4 0 12 21 18 47 14 54 12 57 -66 74 -46 11 -53 15
-53 36 0 26 3 26 100 -3 24 -7 45 -12 46 -11 0 1 9 32 19 70 16 59 21 67 41
67 13 0 24 -2 24 -5z m1383 -156 c21 -88 35 -164 32 -170 -4 -5 -14 -9 -23 -9
-14 0 -24 32 -55 162 -37 162 -37 177 -1 178 5 0 27 -72 47 -161z m-1292 121
c4 -8 10 -31 14 -51 5 -36 6 -36 71 -46 l66 -9 21 43 c16 32 27 43 44 43 13 0
23 -5 23 -10 0 -6 -38 -76 -84 -158 -70 -123 -88 -148 -109 -150 -28 -4 -22
-22 -67 213 -11 61 -22 118 -25 128 -2 14 2 17 17 15 12 -2 25 -10 29 -18z
m1158 -127 c12 -76 24 -152 27 -169 l6 -31 -80 -12 c-86 -13 -114 -7 -147 29
-27 30 -28 109 -2 138 21 23 19 27 -30 88 -39 49 -41 64 -9 64 18 0 36 -16 68
-58 41 -54 45 -57 78 -52 38 6 39 8 26 93 -7 45 -6 47 17 47 24 0 25 -4 46
-137z m-810 27 c31 -70 31 -70 71 -70 l40 0 0 65 c0 63 1 65 26 65 l26 0 -6
-102 c-4 -57 -9 -133 -12 -170 l-6 -68 -67 0 c-78 0 -130 22 -149 63 -19 40
-7 94 28 127 l28 26 -29 54 c-35 68 -35 80 -5 80 19 0 29 -12 55 -70z m421 54
c50 -20 78 -58 92 -126 26 -130 -63 -234 -178 -208 -65 15 -128 101 -78 108
14 2 24 -5 32 -23 23 -50 96 -59 143 -17 54 49 50 166 -8 212 -48 37 -131 15
-148 -40 -9 -27 -45 -27 -45 0 0 33 31 72 75 91 50 23 64 23 115 3z"/>
<path d="M3616 6549 c-7 -133 -6 -139 47 -139 45 0 94 26 111 59 9 16 16 53
16 80 0 41 -5 56 -28 82 -24 27 -37 33 -84 37 l-55 4 -7 -123z"/>
<path d="M4001 6546 c-18 -32 -29 -62 -24 -66 4 -4 25 -10 46 -13 42 -7 42 -8
24 78 l-13 59 -33 -58z"/>
<path d="M2600 6452 c0 -40 3 -72 8 -72 4 0 24 5 45 11 l38 10 -37 52 c-21 29
-41 56 -46 62 -4 5 -8 -23 -8 -63z"/>
<path d="M4546 6396 l-46 -54 28 -10 c15 -5 34 -13 43 -17 14 -5 18 4 24 60 4
37 5 69 2 71 -2 2 -25 -20 -51 -50z"/>
<path d="M2263 6424 c-18 -8 -33 -18 -33 -23 0 -4 9 -31 21 -59 l21 -50 36 15
c52 21 72 42 72 73 0 54 -51 73 -117 44z"/>
<path d="M4832 6324 c-13 -26 -22 -48 -20 -49 2 -1 17 -10 35 -19 43 -22 76
-20 98 4 25 28 8 63 -44 90 -22 11 -42 20 -44 20 -1 0 -13 -21 -25 -46z"/>
<path d="M4765 6190 l-25 -50 40 -20 c67 -34 120 -23 120 25 0 24 -30 55 -77
79 l-33 16 -25 -50z"/>
<path d="M5131 6108 l-53 -40 36 -25 c20 -13 40 -22 44 -19 9 5 36 115 30 121
-2 2 -27 -14 -57 -37z"/>
<path d="M3880 5879 c-80 -66 -158 -131 -174 -144 -15 -14 -39 -25 -52 -25
-20 0 -24 5 -24 30 0 36 -24 40 -63 10 -14 -11 -30 -20 -36 -20 -5 0 -40 27
-78 60 -37 33 -73 60 -80 60 -7 0 7 -31 30 -70 23 -38 48 -70 54 -70 17 0 16
-18 -1 -36 -8 -7 -16 -18 -18 -23 -1 -5 -14 -12 -28 -16 -20 -4 -40 5 -94 45
-67 49 -106 65 -89 36 26 -44 80 -105 94 -106 26 0 30 -12 9 -27 -11 -8 -20
-20 -20 -27 0 -7 -30 -31 -66 -55 -37 -23 -65 -44 -62 -46 2 -2 45 11 96 30
51 19 97 35 102 35 27 0 1 -25 -95 -91 -58 -40 -105 -74 -105 -76 0 -5 123 58
213 109 72 42 80 44 125 37 63 -10 174 -11 190 0 7 4 12 12 10 17 -2 5 4 19
12 30 13 18 30 22 110 29 52 4 124 8 160 9 36 1 76 8 88 15 l24 13 -21 22
c-12 12 -21 28 -21 34 0 14 -16 16 -25 3 -14 -24 -195 62 -195 93 0 4 43 53
95 110 86 94 109 127 88 125 -5 0 -73 -54 -153 -120z"/>
<path d="M1882 5194 c12 -45 1 -59 -37 -44 -34 13 -45 5 -20 -14 18 -13 18
-14 -3 -27 -30 -19 -27 -29 8 -29 36 0 38 -13 8 -36 l-23 -16 25 7 c14 5 57
10 97 12 55 4 71 8 67 18 -9 23 46 43 154 56 56 7 102 15 102 19 0 9 -44 19
-115 26 -59 7 -62 9 -45 29 22 26 -21 18 -54 -10 -52 -44 -74 -44 -118 4 -21
22 -43 41 -48 41 -4 0 -4 -16 2 -36z"/>
<path d="M5180 4995 c-68 -19 -488 -130 -728 -191 -155 -40 -238 -56 -300 -59
-48 -2 -112 -8 -142 -13 -37 -6 -93 -5 -175 4 -66 8 -133 13 -150 13 -16 -1
20 -7 80 -14 227 -27 275 -37 287 -59 9 -17 6 -24 -21 -48 -17 -15 -39 -28
-49 -28 -9 0 -40 -18 -69 -40 -39 -29 -68 -42 -115 -50 -82 -15 -97 -24 -202
-119 -49 -44 -93 -78 -98 -75 -4 3 -8 0 -8 -6 0 -7 -11 -26 -26 -42 -60 -73 4
-113 213 -132 76 -7 123 -15 105 -17 -32 -4 -32 -4 -11 -17 11 -8 18 -9 14 -3
-3 6 1 11 10 11 9 0 15 -7 13 -16 -2 -12 10 -20 42 -30 24 -7 46 -11 49 -9 2
3 -1 5 -8 5 -7 0 -10 4 -6 9 3 5 -9 11 -27 13 -37 3 -47 32 -13 35 11 1 44 5
74 9 40 5 52 4 47 -4 -4 -7 -4 -12 1 -12 4 0 9 -13 10 -29 2 -27 -1 -30 -35
-34 l-37 -4 39 -1 c33 -2 38 -5 33 -22 -4 -17 -1 -20 31 -19 31 2 32 3 10 6
-16 2 -28 11 -28 18 0 16 26 22 150 34 l85 8 -63 2 c-55 1 -64 4 -72 24 -8 21
-9 21 -9 -5 -1 -24 -5 -28 -30 -28 -16 0 -37 -3 -46 -6 -14 -6 -16 -1 -13 27
3 33 5 34 49 37 40 3 46 6 42 21 -6 22 1 25 96 42 57 10 76 10 79 1 2 -7 16 0
34 18 26 27 58 33 43 9 -4 -5 5 -9 19 -9 13 0 26 -5 28 -12 3 -7 7 -6 11 5 3
9 2 17 -3 17 -6 0 -10 6 -10 13 0 7 35 30 78 50 63 30 134 49 387 103 171 36
346 74 390 83 l80 18 50 -41 c28 -22 60 -51 72 -63 26 -28 28 -28 57 -6 l23
18 -18 43 c-25 58 -24 66 9 79 l27 11 -32 1 c-18 1 -33 4 -33 7 0 3 14 59 30
124 35 140 35 136 12 142 -26 7 -36 -8 -87 -130 -43 -100 -50 -110 -77 -116
-69 -14 -91 -8 -139 40 -56 55 -76 43 -24 -15 l36 -40 -43 -5 c-24 -3 -157
-11 -297 -17 -226 -11 -255 -11 -265 3 -17 24 -129 77 -178 84 -24 4 -46 12
-50 18 -4 6 -58 13 -125 16 l-118 5 -3 27 c-4 31 -23 24 293 108 377 101 799
221 810 231 12 12 -9 10 -65 -6z"/>
<path d="M3033 4813 c9 -2 25 -2 35 0 9 3 1 5 -18 5 -19 0 -27 -2 -17 -5z"/>
<path d="M3123 4803 c15 -2 37 -2 50 0 12 2 0 4 -28 4 -27 0 -38 -2 -22 -4z"/>
<path d="M3390 4774 c107 -12 211 -23 230 -22 19 0 -53 11 -160 24 -107 12
-211 23 -230 22 -19 0 53 -11 160 -24z"/>
<path d="M2612 4261 c-88 -30 -122 -75 -122 -163 0 -68 36 -132 126 -228 89
-94 106 -94 189 0 73 83 125 178 125 228 -1 48 -32 116 -64 137 -32 21 -121
45 -166 45 -19 -1 -59 -9 -88 -19z"/>
<path d="M4240 4151 l-25 -7 28 -6 c19 -4 27 -1 27 8 0 8 -1 14 -2 13 -2 -1
-14 -4 -28 -8z"/>
<path d="M4138 4133 c6 -2 18 -2 25 0 6 3 1 5 -13 5 -14 0 -19 -2 -12 -5z"/>
<path d="M4400 4108 c0 -11 -11 -18 -32 -21 -18 -2 1 -4 42 -4 41 0 62 2 45 4
-16 2 -36 12 -42 21 -12 15 -13 15 -13 0z"/>
<path d="M4270 4093 c0 -6 -8 -14 -17 -16 -17 -4 -17 -5 0 -6 20 -1 23 -27 5
-34 -7 -3 19 -5 57 -4 60 1 63 1 18 4 -38 3 -53 8 -53 19 0 8 10 15 23 15 20
1 20 2 2 6 -11 3 -23 10 -27 17 -6 8 -8 8 -8 -1z"/>
<path d="M3684 4051 c3 -5 15 -7 26 -4 13 4 20 0 20 -10 0 -8 8 -17 18 -20 9
-2 26 -8 37 -12 11 -4 5 2 -13 14 -18 12 -30 26 -27 31 4 6 -9 10 -30 10 -20
0 -34 -4 -31 -9z"/>
<path d="M4443 4043 c9 -2 25 -2 35 0 9 3 1 5 -18 5 -19 0 -27 -2 -17 -5z"/>
<path d="M4183 4023 c9 -2 25 -2 35 0 9 3 1 5 -18 5 -19 0 -27 -2 -17 -5z"/>
<path d="M4083 4013 c9 -2 25 -2 35 0 9 3 1 5 -18 5 -19 0 -27 -2 -17 -5z"/>
<path d="M3888 3993 c12 -2 32 -2 45 0 12 2 2 4 -23 4 -25 0 -35 -2 -22 -4z"/>
<path d="M2706 3733 c-11 -11 -6 -23 9 -23 8 0 15 4 15 9 0 13 -16 22 -24 14z"/>
<path d="M4290 3571 c0 -5 16 -55 36 -111 l37 -101 -30 -42 c-260 -368 -327
-457 -340 -457 -8 0 -216 -21 -462 -46 -413 -43 -460 -45 -636 -41 -192 6
-294 21 -355 52 -28 15 -30 19 -24 53 3 20 8 45 11 55 7 27 -82 25 -97 -3 -6
-11 -15 -20 -21 -20 -6 0 -134 122 -284 271 l-274 271 -71 -17 -70 -17 202
-400 c192 -378 202 -400 184 -413 -13 -10 -17 -21 -12 -38 4 -18 1 -27 -12
-32 -9 -4 -165 -49 -346 -101 -181 -51 -340 -101 -353 -110 -23 -15 -24 -17
-8 -34 11 -13 37 -21 78 -25 57 -5 91 2 396 85 l333 90 187 -74 c102 -41 218
-84 256 -95 96 -28 286 -51 424 -51 66 0 111 -4 106 -9 -12 -10 -1210 -441
-1228 -441 -6 0 -41 25 -77 56 -62 53 -67 55 -109 50 -24 -3 -55 -6 -69 -6
-23 0 -21 -4 29 -57 30 -32 74 -81 98 -110 24 -28 57 -57 74 -62 78 -28 103
-21 881 235 694 228 749 244 765 230 16 -15 19 -15 31 -1 7 8 24 15 37 15 l25
0 -22 -35 c-12 -19 -18 -36 -13 -37 4 0 13 -2 20 -2 6 -1 27 -19 45 -40 31
-35 40 -40 97 -47 35 -4 121 -4 192 0 123 7 130 8 166 37 21 17 46 46 55 65
33 66 18 155 -34 200 l-30 27 39 6 c72 11 319 36 558 56 505 44 775 79 860
112 73 29 157 82 210 133 36 36 45 51 45 79 0 40 -12 51 -162 147 -100 64
-191 98 -341 126 -97 17 -231 13 -664 -24 -111 -9 -205 -14 -208 -12 -3 3 27
105 65 227 l71 221 -73 110 -73 111 -57 0 c-32 0 -58 -4 -58 -9z"/>
<path d="M1695 6105 c-35 -16 -65 -39 -65 -49 0 -11 62 -96 70 -96 4 0 26 18
49 39 47 43 49 69 9 104 -24 20 -24 20 -63 2z"/>
<path d="M1346 5742 c9 -20 21 -49 27 -64 6 -16 14 -28 17 -28 3 0 20 15 38
33 l32 33 -65 32 -65 32 16 -38z"/>
<path d="M6353 4559 c-17 -5 -46 -24 -63 -41 -29 -29 -32 -36 -27 -77 8 -73
63 -104 146 -82 65 17 106 60 106 111 0 74 -76 116 -162 89z"/>
<path d="M467 4319 c-22 -13 -56 -84 -57 -115 0 -19 13 -24 113 -48 61 -14
117 -26 123 -26 25 0 31 97 9 139 -25 49 -139 79 -188 50z"/>
<path d="M6537 4207 l-49 -11 7 -35 c10 -55 31 -81 65 -81 41 0 53 26 39 89
-6 28 -11 50 -12 50 -1 -1 -24 -6 -50 -12z"/>
<path d="M6393 4176 c-29 -5 -53 -14 -53 -21 0 -6 7 -35 15 -63 12 -41 21 -53
41 -58 52 -13 76 43 55 126 -6 24 -8 25 -58 16z"/>
<path d="M398 3965 c-31 -17 -52 -71 -42 -109 14 -56 101 -97 173 -81 97 21
110 144 21 190 -37 19 -117 19 -152 0z"/>
<path d="M6493 3809 c3 -22 7 -43 10 -45 2 -2 33 8 68 24 l63 28 -66 17 c-37
9 -70 17 -74 17 -4 0 -4 -18 -1 -41z"/>
<path d="M6389 3113 c-2 -72 2 -88 31 -115 51 -47 146 -50 188 -5 17 18 47
116 39 124 -4 3 -218 33 -237 33 -16 0 -20 -7 -21 -37z"/>
<path d="M6413 2744 l-11 -46 46 6 c24 3 59 6 76 6 30 0 29 1 -29 40 -33 22
-63 40 -66 40 -3 0 -10 -21 -16 -46z"/>
<path d="M6228 2228 c-10 -23 -17 -43 -15 -44 1 -2 34 -6 72 -10 39 -4 68 -5
65 -3 -3 2 -28 25 -55 51 l-50 47 -17 -41z"/>
<path d="M6001 2005 c-32 -55 -35 -78 -12 -99 29 -27 61 -16 98 32 18 24 33
47 33 50 0 8 -75 52 -88 52 -6 0 -19 -16 -31 -35z"/>
<path d="M6135 1930 c-30 -48 -31 -71 -5 -95 29 -26 61 -13 91 38 l26 44 -43
26 -44 27 -25 -40z"/>
<path d="M5897 1680 c-15 -21 -24 -41 -20 -43 18 -10 115 -39 118 -35 2 2 -13
29 -33 60 l-37 56 -28 -38z"/>
<path d="M1394 1361 c-40 -24 -74 -80 -74 -120 0 -23 11 -43 41 -76 l42 -45
76 81 c103 111 101 107 56 146 -45 39 -93 44 -141 14z"/>
<path d="M5039 1021 c-35 -35 -39 -88 -10 -141 21 -41 74 -80 108 -80 54 0
103 48 103 101 0 31 -36 94 -70 123 -44 36 -92 35 -131 -3z"/>
<path d="M1961 834 c-6 -37 -11 -68 -9 -69 2 -2 27 19 57 45 l53 49 -41 20
c-22 12 -42 21 -44 21 -2 0 -9 -30 -16 -66z"/>
<path d="M4400 629 c-13 -6 -26 -12 -28 -14 -7 -7 71 -104 80 -99 4 3 8 32 8
65 0 64 -6 69 -60 48z"/>
<path d="M2964 507 c3 -18 8 -51 12 -75 l7 -43 34 62 c19 34 31 65 26 69 -4 4
-25 10 -47 13 l-38 6 6 -32z"/>
<path d="M3977 490 c-42 -13 -57 -29 -57 -61 0 -38 24 -59 68 -59 76 0 80 4
69 71 -11 64 -17 68 -80 49z"/>
<path d="M3262 444 c-22 -15 -29 -57 -14 -82 10 -15 66 -32 104 -32 28 0 28 1
28 65 l0 65 -48 0 c-27 0 -57 -7 -70 -16z"/>
</g>
</svg>
